{"glyphs":{"0":{"ha":699,"x_min":37,"x_max":1036,"o":"m 1036 1015 m 227 423 q 264 167 227 267 q 354 66 301 66 q 443 164 414 66 q 472 430 472 262 q 441 686 472 591 q 354 780 410 780 q 260 682 294 780 q 227 423 227 585 m 132 122 q 84 185 132 122 q 37 422 37 248 q 132 722 37 595 q 353 848 228 848 q 569 722 476 848 q 662 422 662 597 q 569 121 662 247 q 353 -4 476 -4 q 132 122 228 -4 z "},"1":{"ha":469,"x_min":28,"x_max":439,"o":"m 49 636 q 35 651 41 640 q 28 669 28 662 q 31 685 28 682 q 175 776 100 730 q 294 847 250 822 q 340 872 338 872 l 343 872 q 359 846 354 872 q 347 719 347 807 l 347 175 q 358 77 347 119 q 393 56 361 68 q 435 45 425 45 q 439 16 439 45 q 437 -5 439 0 q 356 1 422 -4 q 259 5 290 5 q 161 1 228 5 q 80 -5 94 -4 q 75 22 75 0 q 80 45 75 45 q 127 57 95 45 q 163 80 160 69 q 171 157 171 113 l 171 613 q 144 681 171 681 q 49 636 123 681 z "},"2":{"ha":644,"x_min":31,"x_max":613,"o":"m 315 871 q 482 808 415 871 q 549 637 549 745 q 538 552 549 594 q 497 463 528 510 q 446 387 467 416 q 372 304 426 358 q 298 231 317 250 q 210 151 278 213 q 209 143 208 148 q 216 138 210 138 l 448 138 q 496 149 476 138 q 529 180 517 159 q 547 217 541 202 q 559 259 552 232 q 582 269 562 269 q 613 260 602 269 q 560 19 586 145 q 544 0 557 0 l 47 0 q 31 45 33 16 q 260 351 161 189 q 359 612 359 513 q 328 714 359 670 q 244 758 297 758 q 181 744 210 758 q 138 715 152 730 q 111 681 125 700 l 98 662 q 73 672 87 662 q 58 696 58 682 q 87 745 69 720 q 135 802 104 770 q 212 852 165 833 q 315 871 259 871 z "},"3":{"ha":618,"x_min":41,"x_max":583,"o":"m 345 871 q 451 831 400 871 q 502 715 502 791 q 464 593 502 650 q 387 513 426 537 q 511 449 439 513 q 583 290 583 385 q 467 75 583 156 q 208 -5 350 -5 q 49 41 121 -5 q 41 80 41 62 q 54 136 41 111 q 98 161 66 161 q 174 113 137 161 q 269 65 209 65 q 366 115 332 65 q 400 255 400 164 q 362 383 400 334 q 258 433 324 433 q 183 426 227 433 q 174 467 174 438 q 178 487 174 477 q 299 547 255 499 q 343 669 343 595 q 318 750 343 724 q 260 776 293 776 q 133 719 183 776 q 113 732 123 719 q 102 755 102 746 q 205 839 141 807 q 345 871 269 871 z "},"4":{"ha":667,"x_min":33,"x_max":635,"o":"m 534 873 q 559 860 559 873 l 559 331 l 614 331 q 635 250 635 331 q 632 242 635 245 q 627 237 629 239 l 623 236 l 559 236 l 559 5 q 469 -7 526 -7 q 391 11 391 -7 l 391 236 l 53 236 q 33 301 33 256 l 498 854 q 534 873 514 873 m 391 331 l 391 604 q 387 616 391 616 q 382 613 384 614 l 160 347 q 159 343 159 346 q 168 331 159 331 l 391 331 z "},"5":{"ha":608,"x_min":28,"x_max":571,"o":"m 152 865 q 496 872 467 865 q 507 826 507 856 q 492 726 507 753 q 351 722 414 723 q 258 722 289 722 q 216 722 227 722 q 198 709 199 720 l 172 559 q 282 572 229 572 q 479 497 387 572 q 571 319 571 422 q 462 88 571 180 q 195 -4 353 -4 q 37 42 109 -4 q 28 81 28 64 q 41 138 28 113 q 85 163 54 163 q 161 114 125 163 q 256 66 197 66 q 357 122 326 66 q 388 248 388 178 q 342 391 388 336 q 236 445 297 445 q 180 442 206 445 q 140 437 153 439 q 114 430 127 434 l 99 426 q 76 445 84 434 q 94 537 77 448 q 128 730 110 627 q 152 865 146 834 z "},"6":{"ha":624,"x_min":37,"x_max":589,"o":"m 220 258 q 323 62 220 62 q 388 104 369 62 q 407 240 407 146 q 380 380 407 332 q 289 427 353 427 q 229 389 239 427 q 220 258 221 358 m 321 -8 q 123 70 209 -8 q 37 274 37 148 q 81 481 37 382 q 199 654 125 579 q 358 783 274 728 q 534 875 442 837 q 546 867 541 873 q 553 856 551 861 q 556 841 555 850 q 559 829 557 831 q 362 694 445 780 q 248 510 279 608 q 251 481 244 491 q 328 498 290 498 q 512 425 435 498 q 589 252 589 353 q 509 71 589 149 q 321 -8 429 -8 z "},"7":{"ha":637,"x_min":37,"x_max":623,"o":"m 197 727 q 174 724 184 727 q 155 716 163 720 q 140 703 148 712 q 128 688 133 693 q 118 669 123 682 q 111 650 113 655 q 104 629 109 644 q 98 609 99 613 q 70 600 95 602 q 37 606 45 598 q 96 849 69 730 q 122 865 100 865 l 522 865 q 578 868 543 865 l 613 869 q 623 857 623 869 q 586 766 623 836 l 214 -14 q 205 -15 210 -15 q 171 -1 186 -15 q 156 31 156 12 l 500 727 l 197 727 z "},"8":{"ha":629,"x_min":33,"x_max":597,"o":"m 317 62 q 388 97 361 62 q 415 182 415 132 q 401 241 415 212 q 360 297 388 270 q 318 336 332 324 q 278 366 304 347 q 259 374 269 374 q 252 373 255 374 q 214 216 214 353 q 241 109 214 155 q 317 62 267 62 m 313 787 q 235 670 235 787 q 252 603 235 633 q 282 562 270 572 q 330 526 294 552 q 347 521 336 521 q 355 524 353 521 q 399 655 399 566 q 313 787 399 787 m 309 859 q 495 806 415 859 q 575 663 575 754 q 426 463 575 553 q 423 458 423 461 q 426 453 423 454 q 446 439 427 452 q 475 416 464 426 q 507 389 487 407 q 541 355 528 372 q 568 319 555 339 q 589 276 582 298 q 597 231 597 254 q 509 58 597 125 q 307 -8 422 -8 q 112 47 191 -8 q 33 216 33 102 q 191 427 33 343 q 190 438 199 431 q 168 456 186 441 q 142 478 151 471 q 119 502 134 486 q 95 532 103 518 q 77 566 87 547 q 62 610 66 586 q 58 659 58 633 q 135 802 58 746 q 309 859 212 859 z "},"9":{"ha":614,"x_min":31,"x_max":583,"o":"m 400 609 q 297 804 400 804 q 232 762 251 804 q 213 627 213 720 q 240 487 213 534 q 331 439 267 439 q 391 477 381 439 q 400 609 399 509 m 298 875 q 497 797 411 875 q 583 593 583 719 q 539 386 583 484 q 420 213 495 288 q 262 84 346 138 q 85 -8 178 30 q 61 38 61 -3 q 258 173 175 87 q 372 357 340 259 q 369 385 376 376 q 292 369 330 369 q 108 441 184 369 q 31 614 31 514 q 111 796 31 718 q 298 875 191 875 z "}," ":{"ha":283,"x_min":0,"x_max":0,"o":""},"!":{"ha":262,"x_min":31,"x_max":231,"o":"m 136 871 q 195 846 170 871 q 220 779 220 821 q 198 573 220 751 q 163 300 176 395 q 118 258 156 258 q 102 288 107 258 q 68 549 90 366 q 46 780 46 732 q 72 846 46 822 q 136 871 98 871 m 31 90 q 60 160 31 132 q 129 189 90 189 q 201 160 172 189 q 231 90 231 132 q 203 16 231 47 q 134 -15 175 -15 q 63 15 95 -15 q 31 90 31 45 z "},"\"":{"ha":438,"x_min":38,"x_max":399,"o":"m 113 947 l 137 947 q 168 930 157 947 q 178 859 178 913 q 159 734 178 818 q 136 609 140 650 q 109 589 133 589 q 84 606 87 589 q 58 753 77 670 q 38 861 38 836 q 63 914 38 882 q 113 947 88 947 m 334 947 l 359 947 q 389 930 378 947 q 399 859 399 913 q 378 734 399 818 q 354 609 358 651 q 344 594 353 600 q 327 589 335 589 q 307 606 309 589 q 280 753 300 670 q 260 861 260 836 q 285 915 260 883 q 334 947 309 947 z "},"#":{"ha":642,"x_min":35,"x_max":605,"o":"m 416 33 q 412 27 416 33 q 376 20 404 20 l 345 20 q 332 24 336 20 q 327 30 327 27 l 327 33 l 357 232 l 245 232 l 216 33 q 215 28 216 30 q 204 24 214 27 q 174 20 194 20 l 142 20 q 130 24 134 20 q 125 30 125 27 l 123 33 l 155 232 l 43 232 q 35 245 35 232 q 46 315 35 278 q 50 320 47 319 q 54 321 52 321 l 56 321 l 167 321 l 183 422 l 43 422 q 35 437 35 423 q 46 506 35 469 q 50 511 47 510 q 54 513 52 513 l 56 513 l 195 513 l 228 719 q 305 731 228 731 q 317 728 313 731 q 320 722 320 724 l 319 719 l 288 513 l 399 513 l 431 719 q 509 731 431 731 q 520 728 517 731 q 524 722 524 724 l 522 719 l 490 513 l 595 513 q 598 513 597 513 q 602 511 600 514 q 605 503 605 509 q 593 431 605 471 l 585 422 l 477 422 l 460 321 l 595 321 q 598 322 597 321 q 602 320 600 323 q 605 312 605 317 q 593 240 605 279 q 589 234 591 236 q 586 232 587 232 l 585 232 l 449 232 l 416 33 m 370 321 l 387 422 l 275 422 l 258 321 l 370 321 z "},"$":{"ha":629,"x_min":34,"x_max":594,"o":"m 362 906 q 415 895 415 906 l 260 -54 q 208 -42 208 -54 l 362 906 m 319 872 q 406 865 363 872 q 484 849 449 859 q 526 838 519 840 q 556 621 556 722 q 515 608 547 608 q 491 617 491 608 q 475 671 491 631 q 416 755 458 711 q 320 799 373 799 q 242 769 270 799 q 214 688 214 739 q 376 507 214 610 q 519 407 488 437 q 594 232 594 335 q 501 58 594 127 q 293 -12 408 -12 q 64 22 212 -12 q 34 237 41 110 q 57 251 33 251 q 98 245 87 251 q 118 193 103 222 q 157 134 133 164 q 218 83 180 103 q 298 62 255 62 q 380 100 346 62 q 414 197 414 137 q 376 277 414 239 q 267 361 338 315 q 220 391 259 366 q 165 425 180 415 q 121 462 151 435 q 78 509 91 488 q 54 564 65 530 q 42 633 42 597 q 130 804 42 735 q 319 872 217 872 z "},"%":{"ha":895,"x_min":31,"x_max":861,"o":"m 231 821 q 160 692 160 821 q 254 509 160 509 q 309 546 292 509 q 327 632 327 583 q 231 821 327 821 m 93 810 q 124 840 93 810 q 244 871 155 871 q 396 810 334 871 q 458 663 458 749 q 396 517 458 578 q 244 457 334 457 q 93 517 155 457 q 31 663 31 578 q 93 810 31 749 m 635 363 q 579 326 595 363 q 563 236 563 288 q 656 52 563 52 q 712 89 694 52 q 730 176 730 126 q 635 363 730 363 m 496 354 q 527 385 496 354 q 647 415 557 415 q 799 354 736 415 q 861 208 861 293 q 799 62 861 122 q 647 1 736 1 q 496 62 557 1 q 434 208 434 122 q 496 354 434 293 m 821 853 l 168 9 q 123 -5 156 -5 q 71 14 75 -5 l 723 857 q 749 876 739 876 q 821 853 792 876 z "},"&":{"ha":951,"x_min":34,"x_max":892,"o":"m 460 137 q 399 221 442 157 q 320 338 355 285 l 286 391 q 224 221 224 346 q 260 113 224 149 q 350 76 297 76 q 460 137 414 76 m 392 818 q 334 787 351 818 q 316 711 316 755 q 321 675 316 694 q 334 637 326 656 q 350 606 343 618 q 369 574 357 594 q 382 552 381 555 q 456 621 433 587 q 479 711 479 655 q 456 783 479 749 q 392 818 434 818 m 223 835 q 258 862 223 835 q 396 890 293 888 q 562 844 499 891 q 624 723 624 798 q 575 583 624 640 q 434 469 526 526 q 585 259 488 382 q 656 355 656 343 q 644 374 656 369 q 613 380 631 380 q 594 380 595 380 q 591 406 591 391 q 595 423 591 422 l 735 422 q 886 426 795 422 q 892 403 892 423 q 882 374 892 377 q 791 349 814 365 q 753 309 783 343 q 691 234 724 275 q 643 178 658 193 l 650 170 q 662 155 656 161 q 677 140 667 149 q 694 125 686 132 q 714 115 703 119 q 736 111 726 111 q 788 135 764 111 q 826 182 812 159 q 850 170 836 182 q 864 149 864 159 q 798 57 853 118 q 682 -4 743 -4 q 597 14 637 -4 q 540 52 557 33 l 522 71 q 302 -5 435 -5 q 114 50 194 -5 q 34 220 34 106 q 52 310 34 269 q 108 386 71 351 q 168 437 145 420 q 232 480 191 454 q 216 507 228 486 q 198 538 203 528 q 182 569 193 548 q 167 605 172 590 q 157 640 161 620 q 153 678 153 659 q 223 835 153 781 z "},"'":{"ha":271,"x_min":68,"x_max":206,"o":"m 141 947 l 167 947 q 196 930 186 947 q 206 859 206 913 q 186 734 206 818 q 161 609 165 651 q 151 594 160 600 q 134 589 142 589 q 114 606 117 589 q 87 753 107 670 q 68 861 68 836 q 92 915 68 883 q 141 947 117 947 z "},"(":{"ha":419,"x_min":37,"x_max":389,"o":"m 206 414 q 271 45 206 206 q 387 -144 336 -117 q 389 -151 389 -145 q 385 -173 389 -160 q 373 -186 380 -186 q 317 -159 355 -186 q 231 -79 279 -133 q 140 44 183 -26 q 66 212 96 114 q 37 414 37 311 q 66 612 37 514 q 138 781 95 711 q 229 905 182 850 q 315 987 277 960 q 373 1015 354 1015 q 385 1001 380 1015 q 389 978 389 987 q 388 974 389 975 q 265 767 324 929 q 206 414 206 605 z "},")":{"ha":419,"x_min":30,"x_max":382,"o":"m 213 414 q 154 768 213 605 q 31 974 95 930 q 30 978 30 975 q 35 1001 30 987 q 46 1015 39 1015 q 127 968 73 1015 q 239 845 180 921 q 340 652 297 769 q 382 414 382 534 q 340 176 382 293 q 239 -17 297 58 q 127 -139 182 -92 q 46 -186 73 -186 q 35 -174 39 -186 q 30 -152 30 -161 q 33 -144 30 -145 q 149 47 84 -119 q 213 414 213 213 z "},"*":{"ha":564,"x_min":33,"x_max":529,"o":"m 403 845 q 445 861 420 861 q 483 845 469 861 q 496 806 498 829 q 476 765 494 783 q 410 721 457 747 q 343 677 362 694 q 339 667 339 674 l 347 659 q 423 639 370 648 q 500 616 476 629 q 529 581 522 604 q 525 540 536 557 q 492 515 514 521 q 448 521 469 510 q 385 570 425 533 q 323 620 346 606 q 311 621 316 624 l 304 612 q 308 534 301 587 q 309 453 315 480 q 285 416 304 430 q 245 407 266 401 q 212 431 225 412 q 203 473 199 450 q 231 548 208 499 q 259 624 254 597 q 258 633 260 629 l 245 635 q 173 607 221 631 q 98 581 125 583 q 54 592 73 578 q 33 628 35 606 q 45 667 30 650 q 84 688 60 685 q 162 684 109 690 q 243 681 216 677 q 255 686 252 681 l 252 697 q 203 758 240 719 q 155 822 165 798 q 153 867 145 845 q 180 898 161 890 q 222 898 201 906 q 252 868 243 890 q 274 791 263 845 q 297 713 285 738 q 305 705 300 705 l 315 713 q 357 779 332 731 q 403 845 382 827 z "},"+":{"ha":722,"x_min":35,"x_max":685,"o":"m 408 281 l 408 31 q 327 9 388 18 q 322 9 324 9 q 319 8 320 8 q 311 19 311 8 l 311 278 q 302 285 311 285 l 43 285 q 35 298 35 285 q 46 376 35 339 q 50 381 47 380 q 54 382 52 382 l 56 382 l 304 382 q 311 391 311 382 l 311 637 q 317 647 309 644 q 395 658 354 658 l 408 650 l 408 389 q 414 382 408 382 l 674 382 q 685 373 685 382 q 671 293 685 343 q 668 287 670 289 q 665 285 666 285 l 662 285 l 414 285 q 408 281 408 285 z "},",":{"ha":297,"x_min":33,"x_max":258,"o":"m 127 -42 q 102 5 127 -24 q 76 84 76 35 q 103 146 76 111 q 184 182 130 182 q 239 167 218 182 q 258 68 258 125 q 239 -27 258 39 q 165 -149 214 -94 q 65 -228 117 -205 l 62 -228 q 43 -210 54 -228 q 33 -182 33 -191 q 56 -167 33 -180 q 104 -121 80 -153 q 127 -42 127 -88 z "},"-":{"ha":441,"x_min":42,"x_max":396,"o":"m 42 277 q 45 328 42 307 q 52 355 49 349 q 58 362 56 362 l 60 362 l 387 378 l 388 378 q 396 366 396 378 q 392 314 396 336 q 382 285 388 292 l 378 277 l 52 262 q 49 262 50 262 q 45 266 47 262 q 42 277 42 270 z "},".":{"ha":277,"x_min":39,"x_max":239,"o":"m 239 90 q 211 16 239 47 q 142 -15 183 -15 q 70 17 100 -15 q 39 90 39 49 q 68 159 39 130 q 140 189 98 189 q 210 159 180 189 q 239 90 239 130 z "},"/":{"ha":576,"x_min":30,"x_max":548,"o":"m 548 1024 l 146 -16 q 115 -36 144 -24 q 54 -47 87 -47 q 39 -45 45 -47 q 31 -41 33 -43 l 30 -38 l 431 1002 q 498 1032 445 1032 q 548 1024 532 1032 z "},":":{"ha":274,"x_min":38,"x_max":237,"o":"m 237 487 q 210 413 237 445 q 141 381 182 381 q 68 413 99 381 q 38 487 38 445 q 68 557 38 528 q 141 586 99 586 q 210 557 182 586 q 237 487 237 528 m 237 91 q 210 17 237 49 q 141 -15 182 -15 q 68 17 99 -15 q 38 91 38 49 q 68 161 38 132 q 141 190 99 190 q 210 161 182 190 q 237 91 237 132 z "},";":{"ha":292,"x_min":30,"x_max":255,"o":"m 54 487 q 85 557 54 528 q 157 586 115 586 q 226 557 198 586 q 254 487 254 528 q 226 413 254 445 q 157 381 198 381 q 85 413 115 381 q 54 487 54 445 m 115 -24 q 94 22 115 -4 q 73 84 73 49 q 100 146 73 111 q 182 182 127 182 q 236 171 221 182 q 255 71 255 121 q 248 12 255 50 q 237 -34 241 -26 q 156 -153 214 -92 q 62 -228 98 -214 l 60 -228 q 41 -210 52 -228 q 30 -182 30 -191 q 51 -162 30 -180 q 94 -107 72 -144 q 115 -24 115 -71 z "},"<":{"ha":629,"x_min":34,"x_max":595,"o":"m 595 61 q 587 15 595 50 q 574 -20 579 -20 q 567 -18 572 -20 l 58 240 q 34 294 34 254 q 58 327 34 315 l 564 581 q 571 583 570 583 q 594 506 579 583 l 590 494 l 159 283 l 591 69 q 595 61 595 68 z "},"=":{"ha":719,"x_min":42,"x_max":677,"o":"m 677 239 q 663 156 677 206 q 660 150 662 152 q 656 148 658 148 l 655 148 l 52 148 q 42 161 42 148 q 54 239 42 197 q 58 244 56 243 q 62 245 60 245 l 64 245 l 666 245 q 677 239 677 245 m 42 354 q 62 438 49 438 l 671 438 q 677 431 677 438 q 663 349 677 399 q 660 342 662 345 q 656 340 658 340 l 655 340 l 52 340 q 42 354 42 340 z "},">":{"ha":633,"x_min":37,"x_max":598,"o":"m 37 61 q 41 69 37 61 l 473 283 l 42 494 q 38 506 42 494 q 61 583 53 583 q 68 581 62 583 l 574 327 q 598 294 598 315 q 574 240 598 254 l 65 -18 q 58 -20 60 -20 q 45 15 53 -20 q 37 61 37 50 z "},"?":{"ha":475,"x_min":31,"x_max":444,"o":"m 42 90 q 71 160 42 132 q 140 189 100 189 q 212 160 183 189 q 241 90 241 132 q 214 16 241 47 q 145 -15 186 -15 q 74 15 106 -15 q 42 90 42 45 m 130 708 q 59 736 87 708 q 31 800 31 765 q 43 859 31 841 q 123 876 79 876 q 343 809 243 871 q 444 636 444 747 q 403 486 444 538 q 279 397 362 434 q 241 382 263 391 q 209 368 220 373 q 191 357 198 362 q 174 300 174 343 q 159 270 174 282 q 129 258 145 258 q 119 267 123 258 q 113 288 114 277 q 107 363 111 308 q 117 462 104 429 q 171 515 130 495 q 295 589 263 562 q 327 659 327 617 q 250 727 327 727 q 193 718 227 727 q 130 708 160 708 z "},"@":{"ha":1059,"x_min":37,"x_max":1023,"o":"m 937 290 q 838 585 937 467 q 571 704 739 704 q 262 592 385 704 q 138 302 138 480 q 250 -42 138 87 q 602 -171 361 -171 q 697 -153 650 -171 q 700 -165 700 -164 q 654 -212 700 -191 q 528 -232 609 -232 q 328 -187 422 -232 q 172 -73 235 -142 q 73 83 109 -3 q 37 251 37 168 q 194 639 37 495 q 586 783 351 783 q 768 740 684 783 q 907 629 852 697 q 992 479 962 562 q 1023 316 1023 397 q 1000 154 1023 222 q 939 50 977 85 q 860 -1 901 15 q 776 -18 819 -18 q 660 16 707 -18 q 613 94 613 50 q 610 94 613 95 q 606 91 608 92 q 537 23 590 56 q 420 -9 484 -9 q 304 53 349 -9 q 260 191 260 115 q 367 446 260 335 q 646 556 473 556 q 704 553 670 556 q 760 548 738 551 l 783 544 q 773 472 776 499 l 745 194 q 742 156 742 167 q 792 46 739 46 q 937 290 937 46 m 627 453 q 618 478 627 469 q 583 487 610 487 q 467 406 524 487 q 410 194 410 326 q 421 98 410 125 q 458 72 433 72 q 553 143 503 72 q 605 247 602 214 l 625 437 q 627 453 627 445 z "},"A":{"ha":977,"x_min":15,"x_max":978,"o":"m 574 45 q 635 58 604 45 q 666 92 666 71 q 632 183 666 95 l 591 282 q 582 288 586 288 q 452 289 556 289 q 315 288 362 289 q 305 281 309 288 q 260 178 305 281 q 233 95 233 117 q 258 61 233 73 q 300 47 282 49 q 332 45 319 45 q 336 23 336 43 q 334 -5 336 3 q 262 1 316 -4 q 175 5 209 5 q 94 1 141 5 q 20 -5 46 -4 q 15 15 15 0 q 18 43 15 43 q 72 58 34 43 q 119 87 110 72 q 142 127 130 103 q 160 165 153 151 l 167 182 l 467 871 q 517 906 481 906 q 549 888 537 906 l 827 201 q 872 90 853 138 q 917 56 880 68 q 972 45 954 45 q 978 22 978 45 q 975 -5 978 -1 q 892 0 970 -5 q 779 5 814 5 q 574 -5 769 5 q 568 22 568 0 q 574 45 568 45 m 351 374 q 452 370 392 370 q 548 373 506 370 l 552 380 l 454 623 l 349 380 q 351 374 349 374 z "},"B":{"ha":821,"x_min":35,"x_max":784,"o":"m 581 239 q 414 427 581 427 q 345 420 369 427 q 330 408 330 415 l 330 103 q 339 84 330 91 q 441 75 353 75 q 581 239 581 75 m 140 194 l 140 707 q 132 812 140 781 q 92 837 127 823 q 41 850 56 850 q 35 875 35 850 q 39 901 35 897 q 239 894 148 894 q 444 897 283 894 q 545 884 494 897 q 645 844 597 871 q 723 768 693 817 q 753 655 753 719 q 712 538 753 585 q 640 480 671 492 q 633 472 629 476 q 732 405 681 464 q 784 254 784 346 q 689 67 784 137 q 439 0 594 -3 l 240 3 q 150 1 199 3 q 71 -3 100 -1 l 42 -5 q 37 18 37 0 q 42 45 37 45 q 93 54 58 45 q 132 75 127 64 q 140 194 140 106 m 477 515 q 509 536 498 526 q 532 576 519 545 q 545 654 545 606 q 420 822 545 822 q 342 817 361 822 q 330 800 330 814 l 330 677 l 330 522 q 400 503 330 503 q 477 515 453 503 z "},"C":{"ha":865,"x_min":34,"x_max":829,"o":"m 829 244 q 808 138 829 225 q 773 46 787 52 q 468 -9 621 -9 q 161 123 289 -9 q 34 437 34 255 q 162 767 34 629 q 481 905 290 905 q 792 865 629 905 q 809 774 799 864 q 819 665 819 685 q 783 644 819 644 q 761 648 781 644 q 739 700 754 673 q 692 758 723 727 q 608 809 662 789 q 488 829 555 829 q 245 465 245 829 q 320 180 245 296 q 532 64 395 64 q 705 137 632 64 q 737 185 723 155 q 759 237 751 216 q 768 258 766 258 q 829 244 823 258 z "},"D":{"ha":982,"x_min":35,"x_max":945,"o":"m 239 894 q 475 894 239 894 q 821 763 696 894 q 945 456 945 632 q 819 128 945 260 q 473 -4 693 -4 q 368 -1 448 -4 q 240 3 288 3 l 42 -5 q 37 18 37 0 q 42 45 37 45 q 93 54 58 45 q 132 75 127 64 q 140 194 140 106 l 140 707 q 132 812 140 781 q 92 837 127 823 q 41 850 56 850 q 35 875 35 850 q 39 901 35 897 q 239 894 148 894 m 330 711 l 330 184 q 342 90 330 96 q 495 72 372 72 q 671 170 609 72 q 734 461 734 267 q 668 714 734 610 q 486 818 602 818 l 479 818 q 347 796 363 818 q 330 711 330 772 z "},"E":{"ha":811,"x_min":35,"x_max":777,"o":"m 239 894 q 449 897 298 894 q 677 901 600 901 q 716 700 678 887 q 685 693 709 693 q 666 703 670 693 q 585 791 640 754 q 476 827 529 827 l 425 827 q 336 810 339 827 q 330 704 330 777 l 330 495 q 388 487 330 487 l 460 487 q 552 492 544 487 q 563 532 559 498 q 571 571 566 552 q 591 581 572 581 q 621 574 614 581 l 621 317 q 593 312 616 312 q 571 323 575 312 q 562 355 566 342 q 555 376 557 369 q 549 388 552 382 q 544 395 545 393 q 538 398 543 396 q 533 401 534 400 q 427 412 515 412 q 330 400 330 412 l 330 191 q 340 95 330 126 q 433 73 347 73 l 468 73 q 620 109 552 73 q 672 155 643 121 q 718 231 701 189 q 736 239 719 239 q 777 231 769 239 q 704 -3 711 43 q 484 0 635 -3 q 240 3 334 3 l 42 -5 q 37 18 37 0 q 42 45 37 45 q 93 54 58 45 q 132 75 127 64 q 140 194 140 106 l 140 707 q 132 812 140 781 q 92 837 127 823 q 41 850 56 850 q 35 875 35 850 q 39 901 35 897 q 239 894 148 894 z "},"F":{"ha":750,"x_min":35,"x_max":716,"o":"m 239 894 q 467 897 327 894 q 677 901 606 901 q 716 700 678 887 q 685 693 709 693 q 666 703 670 693 q 585 791 640 754 q 476 827 529 827 l 425 827 q 336 810 339 827 q 330 704 330 777 l 330 495 q 388 487 330 487 l 460 487 q 552 492 544 487 q 563 532 559 498 q 571 571 566 552 q 591 581 572 581 q 621 574 614 581 l 621 317 q 593 312 616 312 q 571 323 575 312 q 562 355 566 342 q 555 376 557 369 q 549 388 552 382 q 544 395 545 393 q 538 398 543 396 q 533 401 534 400 q 427 412 515 412 q 330 400 330 412 l 330 191 q 339 80 330 122 q 384 54 343 64 q 445 45 425 45 q 450 19 450 45 q 448 -5 450 3 q 240 3 285 3 l 42 -5 q 37 18 37 0 q 42 45 37 45 q 93 54 58 45 q 132 75 127 64 q 140 194 140 106 l 140 707 q 132 812 140 781 q 92 837 127 823 q 41 850 56 850 q 35 875 35 850 q 39 901 35 897 q 239 894 161 894 z "},"G":{"ha":956,"x_min":34,"x_max":921,"o":"m 34 437 q 164 766 34 628 q 480 905 294 905 q 791 865 628 905 q 810 763 798 864 q 822 643 822 662 q 798 632 822 632 q 755 639 769 632 q 734 692 749 665 q 689 753 719 719 q 606 808 659 787 q 487 829 553 829 q 243 468 243 829 q 269 279 243 366 q 363 127 296 191 q 530 64 430 64 q 617 85 590 64 q 632 126 632 98 l 632 212 l 632 221 q 623 326 632 290 q 533 362 612 362 q 527 385 528 362 q 532 412 526 407 q 596 409 556 411 q 669 406 636 407 q 734 404 703 404 q 917 412 754 404 q 921 385 921 400 q 916 361 921 361 q 844 340 884 361 q 822 233 822 330 l 822 155 q 826 118 822 130 q 830 103 830 106 q 802 65 830 80 q 724 28 751 39 q 625 2 696 16 q 465 -12 553 -12 q 160 121 286 -12 q 34 437 34 255 z "},"H":{"ha":986,"x_min":35,"x_max":948,"o":"m 655 187 l 655 414 q 652 419 655 414 q 494 422 525 422 q 326 418 326 420 l 328 415 l 328 193 q 339 79 328 121 q 376 57 342 69 q 423 45 411 45 q 429 24 429 45 q 426 -5 430 4 q 342 0 419 -5 q 231 5 266 5 q 128 1 195 5 q 41 -5 61 -4 q 35 18 35 0 q 38 45 35 45 q 90 56 54 45 q 129 77 125 66 q 138 187 138 114 l 138 705 q 129 811 138 788 q 91 837 122 826 q 43 848 60 848 q 38 875 38 848 q 41 898 38 895 q 229 890 228 890 q 427 898 264 890 q 431 869 431 891 q 426 848 431 848 q 378 836 414 848 q 339 815 343 825 q 328 700 328 787 l 328 507 l 331 503 q 494 500 464 500 q 652 503 530 500 q 655 509 655 506 l 655 705 q 646 812 655 776 q 608 836 642 823 q 560 848 575 848 q 554 870 555 848 q 559 898 553 892 q 761 890 746 890 q 944 898 781 890 q 948 873 948 886 q 941 848 948 848 q 894 836 929 848 q 856 815 859 825 q 845 700 845 774 l 845 193 q 856 77 845 119 q 893 57 859 68 q 940 46 928 46 q 945 18 945 46 q 941 -5 945 7 q 861 0 929 -5 q 758 5 793 5 q 648 1 722 5 q 556 -5 574 -4 q 551 22 551 0 q 557 45 552 45 q 608 57 572 45 q 647 80 643 69 q 655 187 655 111 z "},"I":{"ha":469,"x_min":35,"x_max":431,"o":"m 138 708 q 127 814 138 795 q 90 836 121 825 q 43 848 58 848 q 38 871 38 848 q 41 898 38 895 q 106 893 61 897 q 173 889 151 890 q 237 890 195 888 q 427 898 264 890 q 431 873 431 886 q 426 848 431 848 q 377 836 414 848 q 338 815 340 825 q 331 770 334 799 q 328 720 328 741 l 328 700 l 328 198 q 339 79 328 121 q 376 57 342 69 q 423 45 411 45 q 429 19 429 45 q 426 -5 429 3 q 345 0 416 -5 q 237 5 273 5 q 130 1 201 5 q 41 -5 60 -4 q 35 16 35 0 q 39 45 35 45 q 90 56 54 45 q 129 79 125 68 q 138 187 138 115 l 138 708 z "},"J":{"ha":669,"x_min":31,"x_max":633,"o":"m 439 890 q 629 898 467 890 q 633 873 633 886 q 628 848 633 848 q 579 836 616 848 q 540 815 543 825 q 530 700 530 779 l 530 194 q 422 -166 530 -37 q 129 -296 315 -296 q 52 -271 83 -296 q 31 -201 31 -239 q 57 -142 31 -167 q 117 -118 83 -118 q 186 -159 149 -118 q 243 -201 224 -201 q 321 -106 302 -201 q 340 183 340 -11 l 340 708 q 330 814 340 795 q 292 836 323 825 q 245 848 260 848 q 240 871 240 848 q 243 898 240 895 q 439 890 430 890 z "},"K":{"ha":1005,"x_min":35,"x_max":963,"o":"m 237 890 q 427 898 264 890 q 431 873 431 886 q 426 848 431 848 q 377 836 414 848 q 338 815 340 825 q 328 700 328 779 l 328 486 q 331 477 328 480 q 336 475 334 475 l 338 475 l 347 475 q 407 526 357 475 q 654 795 524 646 q 665 826 665 808 q 635 845 665 840 q 583 850 605 850 q 575 869 578 850 q 575 898 572 888 q 757 890 726 890 q 936 898 773 890 q 938 871 939 892 q 933 850 937 850 l 925 849 q 909 848 917 849 q 890 846 902 848 q 867 842 878 844 q 842 835 856 840 q 818 825 829 830 q 795 812 807 819 q 776 795 784 804 l 543 537 q 541 498 525 517 l 863 79 q 909 53 878 61 q 958 45 941 45 q 963 19 963 45 q 958 -5 963 5 q 871 0 956 -5 q 753 5 787 5 q 560 -5 680 5 q 555 22 555 0 q 560 45 555 45 q 600 53 575 45 q 624 72 624 61 q 382 388 624 115 q 363 392 378 392 q 328 369 328 392 l 328 198 q 339 79 328 121 q 376 57 342 69 q 423 45 411 45 q 429 19 429 45 q 426 -5 429 3 q 345 0 416 -5 q 237 5 273 5 q 130 1 201 5 q 41 -5 60 -4 q 35 16 35 0 q 39 45 35 45 q 90 56 54 45 q 129 79 125 68 q 138 187 138 115 l 138 708 q 127 814 138 795 q 90 836 121 825 q 43 848 58 848 q 38 871 38 848 q 41 898 38 895 q 237 890 228 890 z "},"L":{"ha":811,"x_min":35,"x_max":776,"o":"m 237 890 q 427 898 264 890 q 431 873 431 886 q 426 848 431 848 q 377 836 414 848 q 338 815 340 825 q 328 707 328 779 l 328 193 q 339 95 328 126 q 431 73 346 73 l 467 73 q 618 109 551 73 q 671 155 642 121 q 716 231 700 189 q 735 239 719 239 q 776 231 768 239 q 703 -3 709 43 q 461 0 625 -3 q 239 3 297 3 l 41 -5 q 35 18 35 0 q 41 45 35 45 q 92 54 57 45 q 130 75 126 64 q 138 194 138 106 l 138 712 q 127 814 138 795 q 90 836 121 825 q 43 848 58 848 q 38 871 38 848 q 41 898 38 895 q 237 890 228 890 z "},"M":{"ha":1245,"x_min":35,"x_max":1206,"o":"m 258 890 q 334 893 285 890 q 400 898 384 897 q 511 642 414 854 q 656 312 609 430 l 659 312 q 662 313 662 312 q 827 741 766 572 l 872 892 q 982 890 897 890 q 1153 898 990 890 q 1158 876 1158 890 q 1152 848 1158 848 l 1150 848 q 1093 831 1116 848 q 1074 776 1073 817 q 1088 495 1077 722 q 1101 206 1099 269 q 1122 81 1105 123 q 1158 57 1127 69 q 1200 45 1188 45 q 1206 18 1206 45 q 1203 -5 1206 3 q 1127 1 1188 -4 q 1031 5 1066 5 q 924 1 994 5 q 834 -5 853 -4 q 827 16 827 1 q 831 45 827 45 q 878 57 846 45 q 916 83 909 69 q 926 121 926 103 q 924 201 926 152 l 913 545 q 902 636 907 636 q 895 627 899 636 l 661 42 q 639 13 655 28 q 606 -3 623 -3 q 594 0 602 -3 l 296 670 l 273 148 q 274 99 273 109 q 334 63 278 81 q 407 45 389 45 q 412 18 412 45 q 410 -5 412 3 q 328 0 399 -5 q 222 5 258 5 q 125 1 187 5 q 41 -5 62 -4 q 35 18 35 0 q 39 43 35 43 q 119 64 64 43 q 176 113 174 84 q 182 178 179 144 q 191 386 186 248 q 201 651 197 524 q 206 796 205 779 q 202 821 206 811 q 159 840 198 831 q 102 849 119 849 q 96 878 96 849 q 102 898 96 892 q 172 893 121 897 q 258 890 222 890 z "},"N":{"ha":1054,"x_min":37,"x_max":1019,"o":"m 793 711 q 776 808 793 788 q 725 836 764 823 q 670 848 686 848 q 663 870 665 848 q 666 898 662 892 q 845 887 791 887 q 938 892 879 887 q 1013 898 997 897 q 1019 873 1019 887 q 1012 848 1019 848 q 899 803 937 848 q 880 704 880 780 l 880 189 q 886 -1 880 140 q 852 -7 880 -7 q 810 24 836 -7 l 258 711 l 258 191 q 269 95 258 117 q 326 59 281 72 q 391 46 370 46 q 395 23 395 46 q 393 -5 396 0 q 313 0 381 -5 q 210 5 245 5 q 121 1 175 5 q 42 -5 66 -4 q 38 19 38 -1 q 42 45 38 45 q 73 47 56 45 q 118 63 91 50 q 157 96 145 76 q 171 195 171 118 l 171 728 q 151 825 171 799 q 103 841 144 834 q 43 848 62 848 q 37 870 38 848 q 41 898 35 892 q 127 892 62 897 q 227 887 191 887 q 359 898 273 887 q 450 764 382 852 q 623 548 517 677 q 791 336 728 419 q 793 392 793 346 l 793 711 z "},"O":{"ha":943,"x_min":34,"x_max":906,"o":"m 449 829 q 330 777 377 829 q 264 648 282 724 q 245 475 245 572 q 258 338 245 406 q 298 207 271 271 q 374 102 324 142 q 491 62 425 62 q 644 165 593 62 q 694 419 694 269 q 683 561 694 494 q 646 691 671 628 q 570 791 620 754 q 449 829 519 829 m 162 121 q 98 188 162 121 q 34 445 34 255 q 162 770 34 635 q 469 905 290 905 q 777 770 648 905 q 906 445 906 635 q 777 121 906 255 q 469 -14 648 -14 q 162 121 290 -14 z "},"P":{"ha":776,"x_min":35,"x_max":739,"o":"m 239 894 q 325 896 278 894 q 412 898 372 898 q 563 876 492 898 q 686 795 633 854 q 739 650 739 736 q 654 460 739 540 q 449 380 570 380 q 406 387 427 380 q 373 399 384 393 q 359 410 362 406 q 353 439 354 418 q 358 461 351 461 q 419 450 376 450 q 533 635 533 450 q 408 821 533 821 q 346 810 361 821 q 330 677 330 798 l 330 191 q 339 80 330 122 q 384 54 343 64 q 445 45 425 45 q 450 19 450 45 q 448 -5 450 3 q 240 3 285 3 l 42 -5 q 37 18 37 0 q 42 45 37 45 q 93 54 58 45 q 132 75 127 64 q 140 194 140 106 l 140 707 q 132 812 140 781 q 92 837 127 823 q 41 850 56 850 q 35 875 35 850 q 39 901 35 897 q 239 894 161 894 z "},"Q":{"ha":1051,"x_min":34,"x_max":1017,"o":"m 446 818 q 292 722 340 818 q 243 475 243 625 q 256 340 243 407 q 295 210 269 273 q 372 108 321 146 q 488 69 422 69 q 641 169 590 69 q 692 419 692 269 q 680 559 692 494 q 643 685 669 624 q 567 782 617 746 q 446 818 517 818 m 898 -100 q 945 -97 922 -100 q 983 -90 968 -94 q 1001 -87 998 -87 q 1017 -114 1017 -87 l 1017 -121 q 884 -173 959 -152 q 750 -194 810 -194 q 618 -156 685 -194 q 479 -68 552 -118 q 350 0 407 -18 q 250 50 301 15 q 148 140 198 85 q 66 275 98 194 q 34 445 34 355 q 161 770 34 635 q 467 905 288 905 q 773 770 646 905 q 901 445 901 635 q 801 149 901 271 q 597 7 701 27 q 677 -35 632 -9 q 745 -72 723 -61 q 808 -92 768 -83 q 898 -100 848 -100 z "},"R":{"ha":962,"x_min":35,"x_max":918,"o":"m 408 821 q 346 810 361 821 q 330 677 331 799 l 330 530 q 334 498 330 510 q 349 480 339 486 q 366 473 358 475 q 387 472 374 472 l 423 472 q 505 518 476 472 q 534 640 534 564 q 408 821 534 821 m 429 895 q 525 884 475 895 q 625 848 575 872 q 708 777 675 823 q 741 667 741 730 q 688 509 741 576 q 574 420 635 441 q 570 406 563 416 q 621 322 600 355 q 671 249 642 289 q 718 183 700 209 q 806 89 751 133 q 913 45 861 45 q 918 20 918 38 q 913 -7 918 5 q 865 -9 894 -9 q 744 3 799 -9 q 656 33 689 16 q 589 81 623 49 q 540 136 556 114 q 496 199 524 157 q 461 255 483 221 q 427 309 439 289 q 399 350 414 328 q 374 382 384 372 q 357 396 363 393 q 342 397 353 397 q 330 376 330 397 l 330 191 q 339 80 330 122 q 384 54 343 64 q 445 45 425 45 q 450 19 450 45 q 448 -5 450 3 q 240 3 285 3 l 42 -5 q 37 18 37 0 q 42 45 37 45 q 93 54 58 45 q 132 75 127 64 q 140 194 140 106 l 140 707 q 132 812 140 781 q 92 837 127 823 q 41 850 56 850 q 35 875 35 850 q 39 901 35 897 q 239 894 164 894 q 332 895 275 894 q 429 895 388 895 z "},"S":{"ha":655,"x_min":34,"x_max":618,"o":"m 42 663 q 132 837 42 765 q 331 909 222 909 q 390 905 359 909 q 441 897 420 901 q 500 884 463 892 q 559 871 537 875 q 574 646 574 739 q 553 632 568 632 q 511 642 514 632 q 453 771 502 709 q 332 833 404 833 q 254 804 286 833 q 222 713 222 776 q 236 661 222 686 q 281 608 250 635 q 334 567 313 581 q 400 524 354 553 q 419 511 412 515 q 464 484 430 505 q 512 454 498 464 q 551 420 526 444 q 588 375 576 397 q 609 317 600 353 q 618 237 618 281 q 529 58 618 129 q 323 -14 439 -14 q 65 22 216 -14 q 44 140 54 65 q 34 247 34 216 q 58 260 38 260 q 102 252 100 260 q 170 127 113 190 q 296 64 227 64 q 430 212 430 64 q 418 257 430 235 q 381 301 406 279 q 338 336 357 323 q 284 372 319 350 q 240 400 250 393 q 220 414 233 404 q 152 461 175 444 q 98 510 129 479 q 55 578 68 541 q 42 663 42 616 z "},"T":{"ha":902,"x_min":33,"x_max":867,"o":"m 300 895 q 346 893 300 895 q 449 891 392 891 q 598 895 506 891 q 747 899 690 899 q 841 914 781 899 l 867 692 q 827 682 857 682 q 814 689 815 682 q 669 823 780 823 q 553 799 559 823 q 543 678 543 761 l 543 189 q 553 79 543 121 q 591 57 556 69 q 637 45 625 45 q 643 19 643 45 q 640 -5 643 3 q 559 0 631 -5 q 452 5 487 5 q 345 1 415 5 q 255 -5 274 -4 q 250 16 250 0 q 254 45 250 45 q 304 56 269 45 q 343 79 339 68 q 353 183 353 115 l 353 674 q 342 799 353 780 q 334 810 338 807 q 305 819 331 814 q 231 823 279 823 q 140 793 175 823 q 85 690 104 762 q 72 684 84 684 q 33 693 42 684 l 58 914 q 152 899 118 899 q 300 895 209 899 z "},"U":{"ha":1021,"x_min":33,"x_max":986,"o":"m 232 890 q 422 898 259 890 q 426 873 426 886 q 420 848 426 848 q 372 836 408 848 q 332 815 335 825 q 323 700 323 779 l 323 378 q 379 178 323 254 q 532 102 435 102 q 696 168 632 102 q 761 388 761 233 l 761 711 q 743 808 761 788 q 692 836 731 823 q 637 848 654 848 q 631 870 632 848 q 633 898 629 892 q 812 887 758 887 q 905 892 846 887 q 981 898 964 897 q 986 873 986 887 q 979 848 986 848 q 867 803 905 848 q 848 704 848 780 l 848 395 q 751 95 848 197 q 499 -7 654 -7 q 233 96 334 -7 q 133 422 133 199 l 133 708 q 122 814 133 795 q 84 836 115 825 q 38 848 53 848 q 33 871 33 848 q 35 898 33 895 q 232 890 222 890 z "},"V":{"ha":989,"x_min":22,"x_max":986,"o":"m 220 887 q 425 898 229 887 q 430 870 430 892 q 425 848 430 848 q 368 836 401 848 q 335 799 335 823 q 366 709 335 787 l 548 262 l 739 708 q 766 800 766 769 q 739 834 766 821 q 670 848 711 848 q 666 869 666 849 q 669 898 666 890 q 739 892 688 897 q 823 887 789 887 q 906 892 857 887 q 981 898 955 897 q 986 878 986 892 q 983 849 986 849 q 936 838 968 849 q 883 810 903 826 q 831 711 872 800 l 538 37 q 511 0 528 14 q 480 -14 494 -14 q 449 4 461 -14 l 171 692 q 126 803 130 793 q 82 836 118 825 q 27 848 46 848 q 22 871 22 848 q 24 898 22 894 q 108 892 31 898 q 220 887 184 887 z "},"W":{"ha":1484,"x_min":3,"x_max":1482,"o":"m 198 890 q 382 898 220 890 q 386 869 385 890 q 382 848 387 849 q 320 802 320 848 l 336 760 l 586 264 q 606 271 593 250 l 690 420 l 541 715 q 483 814 499 798 q 404 848 449 848 q 399 873 399 848 q 401 898 399 895 q 590 890 589 890 q 769 898 606 890 q 772 869 772 890 q 769 848 773 849 q 727 838 747 848 q 707 804 707 827 l 723 762 l 802 606 l 867 735 q 894 806 894 791 q 870 833 894 823 q 827 846 846 844 q 793 849 807 849 q 787 871 788 849 q 792 898 787 892 q 954 890 922 890 q 1123 898 960 890 q 1126 870 1126 890 q 1123 849 1127 850 q 1070 836 1103 849 q 1024 808 1038 823 q 948 692 987 769 l 853 505 l 971 273 q 989 278 978 259 l 1221 738 q 1245 806 1245 787 q 1209 839 1245 829 q 1149 849 1173 849 q 1143 871 1143 849 q 1147 898 1142 892 q 1309 890 1278 890 q 1478 898 1316 890 q 1482 864 1482 887 q 1478 849 1482 849 q 1427 837 1458 849 q 1382 811 1396 825 q 1303 692 1344 770 l 968 26 q 922 -18 947 -18 q 907 -11 911 -18 l 741 316 l 578 26 q 532 -18 553 -18 q 519 -11 524 -18 l 152 715 q 90 819 115 787 q 52 840 79 833 q 8 848 26 848 q 3 873 3 848 q 5 898 3 895 q 198 890 193 890 z "},"X":{"ha":1042,"x_min":37,"x_max":1001,"o":"m 288 890 q 483 898 320 890 q 485 870 486 892 q 480 848 484 848 q 435 840 460 848 q 408 819 410 833 q 419 789 408 806 l 570 562 q 614 616 586 582 q 663 677 643 651 q 705 730 684 703 q 739 778 727 758 q 750 806 750 798 q 718 835 750 822 q 650 848 686 848 q 644 870 644 848 q 648 898 643 892 q 817 890 799 890 q 997 898 834 890 q 1001 869 1001 891 q 996 848 1001 848 q 937 836 977 848 q 875 795 898 823 l 621 483 q 879 103 854 132 q 941 59 905 73 q 994 45 977 45 q 998 15 998 45 q 994 -5 998 3 q 796 3 831 3 q 673 -1 751 3 q 582 -5 594 -5 q 578 22 576 0 q 585 45 579 45 q 631 56 602 45 q 661 83 661 66 q 656 98 661 91 l 480 365 q 290 90 290 113 q 323 57 290 69 q 391 45 355 45 q 397 16 397 45 q 395 -5 397 0 q 216 3 260 3 q 42 -5 205 3 q 37 14 37 11 q 42 45 37 45 q 103 58 60 45 q 161 91 146 71 l 423 450 l 241 728 q 168 827 184 817 q 96 848 140 848 q 91 870 91 848 q 96 898 91 892 q 176 894 104 898 q 288 890 248 890 z "},"Y":{"ha":907,"x_min":42,"x_max":901,"o":"m 240 890 q 434 898 271 890 q 436 870 437 892 q 431 848 435 848 q 386 840 411 848 q 359 819 361 833 q 370 789 359 808 l 506 549 q 519 552 513 543 q 613 703 559 609 q 667 818 667 796 q 581 848 667 848 q 574 870 575 848 q 579 898 574 892 q 743 890 701 890 q 897 898 779 890 q 901 873 901 886 q 895 849 901 849 q 840 837 871 849 q 789 800 808 825 q 653 591 754 753 q 552 412 552 430 l 552 197 q 563 79 552 121 q 600 57 566 69 q 647 45 635 45 q 652 19 652 45 q 650 -5 652 3 q 568 0 640 -5 q 461 5 496 5 q 354 1 425 5 q 264 -5 283 -4 q 259 16 259 0 q 263 45 259 45 q 313 56 278 45 q 353 79 349 68 q 362 189 362 115 l 362 419 q 319 506 362 429 q 235 656 277 583 l 193 728 q 119 827 148 811 q 47 848 85 848 q 42 870 42 848 q 47 898 42 892 q 109 895 71 897 q 178 891 146 892 q 240 890 210 890 z "},"Z":{"ha":861,"x_min":41,"x_max":826,"o":"m 321 890 l 469 890 q 784 903 594 890 q 793 886 788 902 q 798 859 798 869 l 302 111 q 293 91 293 98 q 312 77 293 77 l 528 77 q 683 123 623 77 q 766 236 743 168 q 784 244 770 244 q 826 236 817 244 q 804 172 818 213 q 781 107 789 132 q 764 52 773 83 q 753 0 755 22 l 52 0 q 41 35 41 12 q 46 58 41 52 l 545 812 l 313 812 q 233 803 264 812 q 180 769 201 793 q 153 729 160 745 q 130 674 145 713 q 123 656 126 662 q 106 648 121 648 q 61 654 66 648 q 102 898 94 826 q 321 890 134 890 z "},"[":{"ha":420,"x_min":46,"x_max":391,"o":"m 72 1044 q 382 1076 222 1044 q 391 1055 391 1076 q 377 1020 391 1027 q 298 990 346 1004 q 225 977 251 977 q 213 964 213 977 l 213 -71 q 224 -81 213 -81 q 294 -94 247 -81 q 377 -125 342 -107 q 391 -159 391 -132 q 382 -180 391 -178 q 72 -149 198 -149 q 46 -118 46 -149 l 46 1013 q 72 1044 46 1044 z "},"\\":{"ha":560,"x_min":28,"x_max":530,"o":"m 530 -8 q 515 -43 530 -33 q 486 -53 499 -53 l 453 -50 l 28 1024 q 57 1032 38 1032 q 137 1002 123 1032 l 526 18 q 530 -8 530 9 z "},"]":{"ha":420,"x_min":28,"x_max":373,"o":"m 28 -159 q 42 -125 28 -132 q 125 -94 77 -107 q 195 -81 172 -81 q 206 -71 206 -81 l 206 964 q 194 977 206 977 q 121 990 168 977 q 42 1020 73 1004 q 28 1055 28 1027 q 37 1076 28 1076 q 347 1044 197 1044 q 373 1013 373 1044 l 373 -118 q 347 -149 373 -149 q 37 -180 221 -149 q 28 -159 28 -178 z "},"^":{"ha":526,"x_min":76,"x_max":488,"o":"m 471 636 q 390 686 453 636 q 281 789 327 735 q 176 686 239 735 q 94 636 113 636 q 83 646 88 636 q 77 667 79 656 l 76 677 q 110 711 77 681 q 187 798 142 742 q 262 918 232 853 q 264 926 263 921 q 267 932 266 930 q 269 935 267 933 q 275 936 271 936 q 295 928 288 936 q 308 908 302 921 q 332 864 313 895 q 377 798 351 833 q 418 751 391 780 q 466 702 445 723 q 488 678 487 681 q 483 653 488 670 q 471 636 477 636 z "},"_":{"ha":718,"x_min":41,"x_max":675,"o":"m 41 -45 q 61 18 47 18 l 670 18 q 675 11 675 18 q 662 -50 675 0 q 659 -56 661 -54 q 655 -58 656 -58 l 654 -58 l 50 -58 q 41 -45 41 -58 z "},"`":{"ha":335,"x_min":57,"x_max":292,"o":"m 57 892 q 73 918 57 905 q 119 932 88 932 q 165 920 153 932 q 220 848 189 892 q 271 770 251 803 q 292 732 292 736 q 283 717 292 726 q 269 708 275 708 q 154 783 251 708 q 57 892 57 859 z "},"a":{"ha":659,"x_min":38,"x_max":625,"o":"m 286 88 q 341 105 321 88 q 361 146 361 122 l 361 283 q 334 275 358 282 q 304 264 311 267 q 278 254 297 262 q 252 241 259 247 q 233 225 244 235 q 218 205 222 216 q 214 180 214 194 q 235 110 214 132 q 286 88 256 88 m 340 609 q 486 557 435 609 q 537 368 537 505 l 537 148 q 570 102 537 102 q 616 119 593 102 q 625 99 625 114 q 616 49 625 65 q 554 12 597 31 q 473 -8 511 -8 q 411 12 441 -8 q 372 57 381 31 q 361 50 370 57 q 336 33 351 42 q 302 14 321 23 q 255 -3 282 4 q 201 -9 228 -9 q 82 32 126 -9 q 38 136 38 73 q 55 203 38 172 q 94 253 72 233 q 155 290 117 273 q 220 315 193 307 q 290 336 247 324 q 349 353 332 347 q 361 373 361 357 l 361 422 q 293 533 361 533 q 214 442 214 533 q 190 398 214 412 q 136 384 165 384 q 50 425 73 384 q 142 551 50 494 q 340 609 233 609 z "},"b":{"ha":765,"x_min":33,"x_max":732,"o":"m 434 606 q 644 519 556 606 q 732 307 732 431 q 640 80 732 171 q 414 -11 547 -11 q 312 1 350 -11 q 239 14 274 14 q 197 1 225 14 q 164 -12 168 -12 q 140 1 160 -12 q 121 20 121 14 q 123 45 121 24 q 129 100 126 65 q 132 174 132 134 l 132 720 q 123 818 132 777 q 53 840 117 840 l 41 840 q 33 867 33 840 q 41 890 33 890 q 125 901 83 894 q 198 914 168 907 q 252 928 228 921 q 289 939 275 935 l 302 943 l 305 943 q 316 935 311 943 q 323 920 321 926 q 308 783 308 859 l 308 585 q 308 578 308 581 q 309 570 308 575 q 311 566 309 566 q 316 567 313 566 q 434 606 365 606 m 419 524 q 337 494 366 524 q 308 431 308 464 l 308 175 q 339 92 308 121 q 418 62 370 62 q 508 117 479 62 q 537 262 537 172 q 419 524 537 524 z "},"c":{"ha":627,"x_min":35,"x_max":579,"o":"m 359 606 q 469 589 418 606 q 540 555 519 571 q 571 526 560 540 q 498 401 571 401 q 418 469 445 401 q 387 516 406 500 q 336 532 369 532 q 228 328 228 532 q 381 99 228 99 q 467 112 426 99 q 524 135 507 125 q 567 165 540 145 q 579 140 579 160 q 574 113 579 123 q 493 35 560 79 q 342 -9 426 -9 q 123 82 212 -9 q 35 307 35 174 q 130 519 35 431 q 359 606 224 606 z "},"d":{"ha":751,"x_min":24,"x_max":718,"o":"m 342 533 q 249 482 278 533 q 220 320 220 431 q 342 75 220 75 q 418 101 388 75 q 449 165 449 127 l 449 412 q 446 444 449 429 q 434 481 444 458 q 401 519 425 505 q 342 533 377 533 m 350 606 q 445 594 406 606 q 449 613 449 594 l 449 720 q 441 818 449 777 q 370 840 434 840 l 358 840 q 350 867 350 840 q 358 890 350 890 q 443 901 400 894 q 515 914 486 907 q 569 928 545 921 q 606 939 593 935 l 620 943 l 623 943 q 633 935 628 943 q 640 920 639 926 q 625 783 625 859 l 625 199 q 633 102 625 141 q 648 87 636 92 q 674 80 661 81 q 700 79 688 79 l 713 77 q 718 61 718 76 q 709 27 718 27 q 656 22 689 26 q 589 13 623 18 q 526 3 556 8 q 477 -5 496 -1 l 457 -8 q 449 15 449 -8 l 449 43 q 448 50 449 49 q 444 49 446 52 q 307 -8 387 -8 q 111 74 197 -8 q 24 288 24 156 q 117 515 24 423 q 350 606 210 606 z "},"e":{"ha":627,"x_min":35,"x_max":600,"o":"m 323 532 q 245 481 270 532 q 221 381 221 430 q 231 373 221 373 l 403 373 q 422 399 422 373 q 394 491 422 450 q 323 532 366 532 m 330 606 q 526 522 452 606 q 600 349 600 437 q 587 308 600 317 q 536 298 574 298 l 229 298 q 221 289 221 298 q 262 157 221 216 q 381 99 304 99 q 467 112 426 99 q 524 135 507 125 q 567 165 540 145 q 579 140 579 160 q 574 113 579 123 q 492 35 560 80 q 340 -9 425 -9 q 125 81 216 -9 q 35 300 35 172 q 117 518 35 430 q 330 606 198 606 z "},"f":{"ha":515,"x_min":52,"x_max":618,"o":"m 456 944 q 559 930 515 944 q 614 898 604 917 q 618 843 618 872 q 601 790 618 814 q 551 766 583 766 q 501 790 522 766 q 460 837 480 814 q 415 860 441 860 q 351 798 372 860 q 331 644 331 735 l 331 589 q 338 582 331 582 l 488 582 q 495 572 495 582 q 479 502 495 534 l 339 502 q 331 494 331 502 l 331 202 q 340 79 331 115 q 378 57 343 69 q 426 45 414 45 q 431 22 430 45 q 429 -5 431 0 q 344 1 414 -4 q 243 5 274 5 q 141 1 210 5 q 57 -5 72 -4 q 52 22 52 0 q 57 45 52 45 q 107 57 72 45 q 145 79 142 69 q 155 182 155 119 l 155 492 q 148 502 155 502 l 57 502 q 53 510 53 502 q 70 555 53 528 q 110 583 87 583 l 148 583 q 155 591 155 583 l 155 601 q 241 842 155 742 q 456 944 327 943 z "},"g":{"ha":658,"x_min":31,"x_max":623,"o":"m 457 -110 q 229 -49 457 -49 q 224 -50 225 -50 q 170 -80 179 -65 q 160 -117 160 -92 q 203 -185 160 -157 q 298 -213 245 -213 q 413 -187 369 -213 q 457 -110 457 -161 m 224 399 q 227 338 224 363 q 236 287 229 313 q 259 247 243 260 q 301 233 275 233 q 342 243 327 233 q 364 275 358 254 q 372 315 370 297 q 374 363 374 334 q 358 494 374 450 q 293 537 342 537 q 253 525 269 537 q 232 488 237 513 q 225 448 227 464 q 224 406 224 433 q 224 399 224 401 m 302 609 q 417 591 351 609 q 522 574 483 574 l 597 574 q 612 549 601 572 q 623 517 623 526 q 614 498 623 498 l 534 498 q 529 494 529 496 q 539 456 529 492 q 549 389 549 420 q 480 233 549 304 q 307 163 411 163 q 214 170 252 163 q 190 151 198 164 q 182 129 182 138 q 195 113 182 119 q 237 104 209 107 q 286 98 264 100 q 346 95 307 96 q 396 94 385 94 q 614 -49 613 83 q 507 -222 616 -148 q 275 -296 399 -296 q 102 -255 172 -296 q 31 -146 31 -214 q 63 -83 31 -117 q 142 -34 95 -49 q 79 14 107 -19 q 50 87 50 47 q 60 121 50 104 q 90 153 69 137 q 120 174 111 168 q 153 193 129 179 q 81 269 114 214 q 49 382 49 324 q 123 551 49 494 q 302 609 197 609 z "},"h":{"ha":844,"x_min":35,"x_max":802,"o":"m 524 605 q 652 538 602 605 q 701 336 701 472 l 701 202 q 711 79 701 115 q 749 57 713 69 q 796 45 784 45 q 801 22 800 45 q 799 -5 802 0 q 714 1 784 -4 q 613 5 644 5 q 515 1 581 5 q 433 -5 449 -4 q 427 22 427 0 q 433 45 427 45 q 480 57 448 45 q 515 79 513 69 q 525 182 525 119 l 525 304 q 498 447 525 404 q 410 490 471 490 q 315 430 315 490 l 315 202 q 324 79 315 115 q 360 57 327 69 q 404 45 393 45 q 409 22 408 45 q 407 -5 410 0 q 324 1 391 -4 q 227 5 258 5 q 125 1 194 5 q 41 -5 56 -4 q 35 22 35 0 q 41 45 35 45 q 91 57 56 45 q 129 79 126 69 q 138 182 138 119 l 138 720 q 132 818 138 784 q 61 840 125 840 l 49 840 q 41 867 41 840 q 49 890 41 890 q 134 901 91 894 q 206 914 176 907 q 260 928 236 921 q 297 939 283 935 l 311 943 l 313 943 q 324 935 319 943 q 331 920 330 926 q 315 783 315 859 l 315 530 q 320 521 315 521 q 327 526 321 521 q 411 583 357 560 q 524 605 465 605 z "},"i":{"ha":442,"x_min":35,"x_max":415,"o":"m 144 764 q 129 779 144 764 q 114 836 114 793 q 144 907 114 878 q 215 936 174 936 q 286 907 256 936 q 315 836 315 878 q 286 764 315 793 q 215 735 256 735 q 144 764 174 735 m 315 202 q 324 79 315 115 q 363 57 327 69 q 410 45 399 45 q 415 22 415 45 q 412 -5 415 0 q 328 1 399 -4 q 227 5 258 5 q 125 1 194 5 q 41 -5 57 -4 q 37 22 37 0 q 41 45 37 45 q 92 57 57 45 q 129 79 126 69 q 138 182 138 119 l 138 368 q 114 469 138 444 q 86 487 104 480 q 54 496 68 494 q 39 500 39 499 q 46 548 39 548 q 165 566 73 548 q 294 597 256 585 q 302 599 296 597 q 309 601 309 601 q 323 592 317 601 q 330 578 330 583 q 324 537 328 567 q 317 485 320 507 q 315 442 315 463 l 315 202 z "},"j":{"ha":399,"x_min":31,"x_max":363,"o":"m 171 368 q 146 469 171 444 q 119 487 137 480 q 87 496 100 494 q 73 500 73 499 q 79 548 73 548 q 197 566 104 548 q 328 597 290 585 l 335 600 l 342 601 q 357 592 350 601 q 363 578 363 583 q 357 536 362 564 q 350 486 353 509 q 347 442 347 463 l 347 163 q 282 -138 347 -37 q 168 -243 250 -190 q 53 -296 85 -296 q 31 -263 31 -283 q 33 -250 31 -251 q 50 -241 43 -244 q 83 -209 57 -237 q 125 -143 109 -180 q 156 -32 141 -106 q 171 136 171 42 l 171 368 m 177 764 q 162 779 177 764 q 148 836 148 793 q 177 907 148 878 q 248 936 206 936 q 319 907 290 936 q 349 836 349 878 q 319 764 349 793 q 248 735 290 735 q 177 764 206 735 z "},"k":{"ha":876,"x_min":35,"x_max":834,"o":"m 663 518 q 477 370 567 463 q 579 256 517 328 q 683 138 642 184 q 741 80 724 92 q 787 55 758 65 q 827 45 815 45 q 834 19 834 45 q 831 -4 834 1 q 661 4 669 4 q 557 -1 628 4 q 480 -5 487 -5 q 475 22 475 0 q 480 45 475 45 q 511 50 494 45 q 529 62 529 56 q 528 66 529 65 l 330 293 l 315 289 l 315 202 q 324 79 315 115 q 362 57 327 69 q 410 45 397 45 q 414 22 414 45 q 412 -5 415 0 q 328 1 397 -4 q 227 5 258 5 q 125 1 194 5 q 41 -5 56 -4 q 35 22 35 0 q 41 45 35 45 q 91 57 56 45 q 129 79 126 69 q 138 182 138 119 l 138 720 q 132 818 138 784 q 61 840 125 840 l 49 840 q 41 867 41 840 q 49 890 41 890 q 134 901 91 894 q 206 914 176 907 q 260 928 236 921 q 297 939 283 935 l 311 943 l 313 943 q 324 935 319 943 q 331 920 330 926 q 315 783 315 859 l 315 351 q 361 369 351 361 q 408 409 382 388 q 446 441 433 430 q 474 466 458 453 q 496 486 490 479 q 510 501 503 494 q 519 515 517 509 q 521 526 521 521 q 507 543 521 538 q 477 547 494 547 q 458 549 461 548 q 456 578 456 559 q 461 598 456 597 q 616 597 559 597 q 757 600 696 597 q 763 584 762 597 q 762 560 764 571 q 758 549 761 549 q 663 518 716 549 z "},"l":{"ha":453,"x_min":35,"x_max":415,"o":"m 138 720 q 132 818 138 784 q 61 840 125 840 l 49 840 q 41 867 41 840 q 49 890 41 890 q 134 901 91 894 q 206 914 176 907 q 260 928 236 921 q 297 939 283 935 l 311 943 l 313 943 q 324 935 319 943 q 331 920 330 926 q 316 783 316 859 l 315 202 q 324 79 315 115 q 362 57 327 69 q 410 45 397 45 q 414 22 414 45 q 412 -5 415 0 q 328 1 397 -4 q 227 5 258 5 q 125 1 194 5 q 41 -5 56 -4 q 35 22 35 0 q 41 45 35 45 q 91 57 56 45 q 129 79 126 69 q 138 182 138 119 l 138 720 z "},"m":{"ha":1204,"x_min":37,"x_max":1188,"o":"m 525 605 q 669 511 623 605 q 913 605 753 604 q 1041 538 991 605 q 1090 336 1090 472 l 1090 202 q 1100 79 1090 115 q 1137 57 1103 69 q 1183 45 1171 45 q 1187 22 1187 45 q 1185 -5 1188 0 q 1102 1 1171 -4 q 1002 5 1034 5 q 903 1 970 5 q 819 -5 836 -4 q 814 22 814 0 q 819 45 814 45 q 868 57 834 45 q 905 79 902 69 q 914 182 914 119 l 914 304 q 886 444 914 397 q 798 490 859 490 q 703 438 722 490 q 700 410 699 427 q 703 336 703 385 l 703 202 q 712 79 703 115 q 749 57 715 69 q 795 45 783 45 q 800 22 799 45 q 798 -5 800 0 q 714 1 783 -4 q 614 5 646 5 q 515 1 582 5 q 431 -5 448 -4 q 426 22 426 0 q 431 45 426 45 q 480 57 446 45 q 517 79 514 69 q 526 182 526 119 l 526 304 q 498 447 526 404 q 410 490 471 490 q 342 474 368 490 q 316 430 316 458 l 316 202 q 326 79 316 115 q 361 57 328 69 q 406 45 395 45 q 410 22 410 45 q 408 -5 411 0 q 326 1 392 -4 q 228 5 259 5 q 126 1 195 5 q 42 -5 57 -4 q 37 22 37 0 q 42 45 37 45 q 92 57 57 45 q 130 79 127 69 q 140 182 140 119 l 140 368 q 115 469 140 444 q 87 487 106 480 q 54 496 68 494 q 41 500 41 499 q 47 548 41 548 q 102 555 64 548 q 201 576 140 563 q 296 597 262 590 q 302 598 298 597 q 308 600 305 600 l 311 601 q 324 592 317 601 q 331 578 331 583 q 326 536 326 540 q 327 528 326 529 q 336 534 330 528 q 525 605 412 605 z "},"n":{"ha":844,"x_min":37,"x_max":803,"o":"m 525 605 q 653 538 604 605 q 703 336 703 472 l 703 202 q 712 79 703 115 q 750 57 715 69 q 798 45 785 45 q 802 22 802 45 q 800 -5 803 0 q 715 1 785 -4 q 614 5 646 5 q 516 1 582 5 q 434 -5 450 -4 q 429 22 429 0 q 434 45 429 45 q 481 57 449 45 q 517 79 514 69 q 526 182 526 119 l 526 304 q 498 447 526 404 q 410 490 471 490 q 342 474 368 490 q 316 430 316 458 l 316 202 q 326 79 316 115 q 361 57 328 69 q 406 45 395 45 q 410 22 410 45 q 408 -5 411 0 q 326 1 392 -4 q 228 5 259 5 q 126 1 195 5 q 42 -5 57 -4 q 37 22 37 0 q 42 45 37 45 q 92 57 57 45 q 130 79 127 69 q 140 182 140 119 l 140 368 q 115 469 140 444 q 87 487 106 480 q 54 496 68 494 q 41 500 41 499 q 47 548 41 548 q 102 555 64 548 q 201 576 140 563 q 296 597 262 590 q 302 598 298 597 q 308 600 305 600 l 311 601 q 324 592 317 601 q 331 578 331 583 q 326 536 326 540 q 327 528 326 529 q 336 534 330 528 q 525 605 412 605 z "},"o":{"ha":709,"x_min":35,"x_max":673,"o":"m 335 532 q 270 500 296 532 q 236 429 244 469 q 228 340 228 389 q 368 65 228 65 q 451 121 425 65 q 477 251 477 176 q 335 532 477 532 m 128 517 q 175 562 128 517 q 354 606 221 606 q 580 517 487 606 q 673 298 673 427 q 581 80 673 170 q 354 -9 488 -9 q 128 80 221 -9 q 35 298 35 170 q 128 517 35 427 z "},"p":{"ha":769,"x_min":33,"x_max":735,"o":"m 437 605 q 650 515 566 605 q 735 308 735 426 q 639 73 735 157 q 396 -11 543 -11 q 361 -8 380 -11 q 331 -2 343 -5 q 317 1 319 1 q 312 -20 312 1 l 312 -88 q 321 -212 312 -175 q 359 -233 324 -221 q 407 -245 395 -245 q 412 -268 411 -245 q 410 -296 412 -290 q 325 -290 395 -294 q 224 -285 255 -285 q 122 -290 191 -285 q 38 -296 53 -294 q 33 -268 33 -290 q 38 -245 33 -245 q 88 -233 53 -245 q 126 -212 123 -221 q 136 -109 136 -171 l 136 368 q 111 469 136 444 q 83 487 102 480 q 50 496 64 494 q 37 500 37 499 q 43 548 37 548 q 262 587 126 548 q 307 601 304 601 q 315 583 315 601 q 312 559 315 575 q 437 605 372 605 m 416 526 q 340 498 369 526 q 312 426 312 469 l 312 170 q 346 90 312 118 q 418 62 380 62 q 540 263 540 62 q 416 526 540 526 z "},"q":{"ha":700,"x_min":38,"x_max":739,"o":"m 361 606 q 461 594 419 606 q 536 582 503 582 q 574 595 547 582 q 605 608 602 608 q 631 595 610 608 q 651 575 651 582 q 650 566 651 574 q 647 545 648 559 q 644 514 646 532 q 640 470 642 496 q 639 416 639 444 l 639 -88 q 648 -212 639 -175 q 686 -233 651 -221 q 734 -245 722 -245 q 739 -268 738 -245 q 736 -296 739 -290 q 652 -290 722 -294 q 551 -285 582 -285 q 449 -290 518 -285 q 365 -296 380 -294 q 359 -268 359 -290 q 365 -245 359 -245 q 415 -233 380 -245 q 453 -212 450 -221 q 463 -109 463 -171 l 463 11 q 457 30 463 30 q 454 28 456 30 q 331 -11 400 -11 q 128 75 218 -11 q 38 289 38 160 q 132 517 38 427 q 361 606 227 606 m 351 533 q 233 331 233 533 q 237 241 233 279 q 253 162 241 203 q 291 98 264 121 q 358 75 317 75 q 431 98 399 75 q 463 157 463 122 l 463 410 q 351 533 463 533 z "},"r":{"ha":631,"x_min":37,"x_max":594,"o":"m 477 606 q 594 556 537 606 q 577 452 594 486 q 515 418 560 418 q 453 449 488 418 q 391 480 418 480 q 333 435 350 480 q 316 338 316 389 l 316 201 q 326 79 316 115 q 361 57 328 69 q 406 45 395 45 q 410 22 410 45 q 408 -5 411 0 q 326 1 392 -4 q 228 5 259 5 q 126 1 195 5 q 42 -5 57 -4 q 37 22 37 0 q 42 45 37 45 q 92 57 57 45 q 130 79 127 69 q 140 182 140 119 l 140 368 q 115 469 140 444 q 87 487 106 480 q 54 496 68 494 q 41 500 41 499 q 47 548 41 548 q 102 555 64 548 q 201 576 140 563 q 296 597 262 590 q 311 601 309 601 q 324 592 317 601 q 331 578 331 583 q 327 543 328 562 q 324 518 326 524 q 477 606 391 606 z "},"s":{"ha":521,"x_min":35,"x_max":486,"o":"m 271 609 q 448 582 391 609 q 461 414 461 519 q 444 401 461 401 q 399 412 401 401 q 357 502 387 469 q 264 534 328 534 q 216 520 235 534 q 197 479 197 506 q 224 425 197 448 q 304 377 251 403 q 361 347 340 359 q 417 309 382 335 q 469 247 452 282 q 486 168 486 212 q 417 33 486 79 q 243 -14 349 -14 q 137 1 195 -14 q 53 38 79 16 q 37 203 37 132 q 57 208 42 208 q 102 195 100 208 q 248 61 125 61 q 302 76 281 61 q 324 118 324 91 q 295 175 324 152 q 190 236 266 198 q 73 319 111 274 q 35 431 35 365 q 106 566 35 524 q 271 609 176 609 z "},"t":{"ha":507,"x_min":33,"x_max":473,"o":"m 132 502 l 43 502 q 33 544 33 502 q 35 559 33 555 q 157 632 111 597 q 205 671 178 647 q 252 711 232 694 q 273 730 271 728 q 296 725 283 730 q 308 715 308 720 l 308 582 l 454 582 q 465 568 465 582 q 452 502 465 529 l 308 502 l 308 180 q 381 77 308 77 q 418 82 401 77 q 445 92 435 87 q 456 98 454 98 q 467 84 461 98 q 473 64 473 71 q 418 19 473 47 q 313 -9 362 -9 q 185 37 239 -9 q 132 189 132 84 l 132 502 z "},"u":{"ha":812,"x_min":33,"x_max":779,"o":"m 694 444 l 694 178 q 708 92 694 107 q 730 82 715 85 q 760 79 745 79 l 773 79 q 779 68 779 76 q 770 28 779 28 q 718 23 750 27 q 652 14 685 19 q 591 5 620 9 q 543 -3 562 0 l 524 -7 q 515 18 515 -7 l 515 68 q 514 75 515 73 q 510 73 513 76 q 427 19 481 43 q 308 -5 372 -5 q 180 65 228 -5 q 132 236 132 136 l 132 368 q 107 469 132 444 q 79 487 98 480 q 46 496 60 494 q 33 500 33 499 q 39 548 33 548 q 157 566 65 548 q 288 597 250 585 l 294 600 q 302 601 301 601 q 316 592 309 601 q 323 578 323 583 q 308 442 308 458 l 308 297 q 335 149 308 191 q 426 106 362 106 q 495 127 472 106 q 518 174 518 148 l 518 368 q 494 469 518 444 q 465 487 484 480 q 433 496 446 494 q 419 500 419 499 q 426 548 419 548 q 544 566 452 548 q 674 597 636 585 q 682 600 675 597 l 689 601 q 703 592 696 601 q 709 578 709 583 q 694 444 694 458 z "},"v":{"ha":810,"x_min":34,"x_max":773,"o":"m 545 522 q 456 551 517 551 q 452 572 452 552 q 454 601 452 593 q 528 595 475 600 q 612 590 582 590 q 695 595 644 590 q 768 601 746 600 q 773 578 773 595 q 768 551 773 551 q 711 536 747 551 q 661 496 674 522 l 422 24 q 381 -15 401 -15 q 359 -4 365 -15 l 134 503 q 92 540 123 529 q 39 551 60 551 q 34 578 34 551 q 39 601 34 594 q 124 595 54 600 q 225 590 194 590 q 333 595 259 590 q 419 601 407 601 q 425 573 425 595 q 419 551 425 551 q 363 540 399 551 q 327 514 327 529 l 330 494 l 437 239 l 544 464 q 545 522 564 503 z "},"w":{"ha":1194,"x_min":33,"x_max":1157,"o":"m 935 492 q 899 536 935 522 q 829 549 864 549 l 823 549 q 817 572 818 549 q 821 601 815 595 q 904 594 840 600 q 1000 589 968 589 q 1080 594 1028 589 q 1153 601 1131 600 q 1157 574 1157 589 q 1152 551 1157 551 q 1092 530 1137 551 q 1036 484 1047 509 l 812 14 q 793 -5 808 4 q 762 -15 777 -15 q 742 0 749 -15 l 581 350 l 426 15 q 408 -5 422 5 q 374 -15 395 -15 q 353 0 361 -15 l 123 505 q 84 536 114 524 q 38 549 54 549 q 33 575 33 549 q 37 601 33 597 q 117 595 53 600 q 214 590 182 590 q 318 595 244 590 q 403 601 392 601 q 406 573 406 593 q 403 552 407 553 q 353 539 387 552 q 319 509 319 526 q 429 240 319 491 q 465 317 444 273 q 495 380 486 361 q 515 422 505 399 q 528 456 525 445 q 532 472 532 467 q 522 519 532 505 q 490 544 513 533 q 434 551 472 551 q 428 573 429 551 q 433 601 427 595 q 512 595 450 600 q 606 590 574 590 q 706 595 636 590 q 789 601 776 601 q 790 572 792 594 q 784 549 788 549 q 736 540 761 549 q 711 509 711 530 q 817 239 711 488 q 873 357 841 292 q 920 453 905 422 q 935 492 935 484 z "},"x":{"ha":821,"x_min":37,"x_max":776,"o":"m 37 576 q 41 601 37 593 q 227 591 209 591 q 410 601 241 591 q 414 576 414 594 q 407 551 414 551 q 367 541 388 551 q 346 518 346 532 q 353 502 346 510 l 437 397 q 473 444 448 412 q 511 495 498 476 q 524 522 524 514 q 439 551 524 551 q 434 575 434 551 q 439 601 434 594 q 612 591 598 591 q 772 601 627 591 q 776 576 776 593 q 772 551 776 551 q 651 513 675 540 l 496 343 q 492 332 492 336 q 498 319 492 324 l 661 114 q 770 42 707 54 q 776 14 776 42 q 770 -5 776 1 q 712 -1 746 -4 q 650 3 678 1 q 591 5 623 5 q 530 3 559 5 q 465 -1 500 1 q 404 -5 430 -4 q 401 11 401 8 q 407 45 401 45 q 447 59 425 46 q 469 88 469 72 q 467 96 469 91 l 374 203 l 297 106 q 288 80 288 95 q 294 68 288 73 q 311 58 300 62 q 332 52 321 54 q 355 48 342 50 q 374 45 368 46 q 377 20 377 45 q 372 -5 377 0 q 304 1 361 -4 q 212 5 248 5 q 157 3 183 5 q 98 -1 130 1 q 43 -5 66 -4 q 41 20 41 5 q 46 45 41 45 q 115 64 80 50 q 161 92 149 79 l 312 258 q 315 269 315 262 q 309 281 315 275 l 136 499 q 92 536 118 522 q 43 549 65 549 q 37 576 37 549 z "},"y":{"ha":738,"x_min":5,"x_max":738,"o":"m 201 590 q 297 595 231 590 q 378 601 363 600 q 382 572 382 589 q 377 551 382 551 q 326 540 359 551 q 293 515 293 529 l 294 503 q 400 239 297 481 q 500 458 492 438 q 509 499 509 477 q 501 518 509 507 q 471 540 494 529 q 412 551 448 551 q 407 575 407 551 q 410 601 407 593 q 490 595 426 600 q 587 590 555 590 q 663 595 616 590 q 732 601 711 600 q 738 578 738 590 q 732 551 738 551 q 672 537 712 551 q 618 496 632 524 l 366 -50 q 103 -296 254 -296 q 37 -274 62 -296 q 12 -224 12 -252 q 43 -160 12 -182 q 267 -54 216 -160 q 309 35 298 12 l 107 483 l 100 499 q 59 539 87 528 q 11 551 31 551 q 5 571 5 551 q 8 601 5 598 q 94 595 19 601 q 201 590 168 590 z "},"z":{"ha":583,"x_min":34,"x_max":548,"o":"m 250 83 q 266 73 250 73 l 350 73 q 496 176 457 73 q 533 189 500 189 q 548 183 543 189 l 525 0 l 61 0 q 34 31 34 16 q 35 37 34 35 l 312 500 l 229 502 q 144 471 179 503 q 96 407 110 438 q 62 399 92 399 q 46 401 46 399 q 56 475 46 408 q 68 583 65 543 q 197 575 148 575 l 362 575 q 537 586 448 575 q 541 553 541 579 l 259 102 q 250 83 250 88 z "},"{":{"ha":445,"x_min":30,"x_max":415,"o":"m 34 395 q 30 420 30 403 q 35 445 30 435 q 120 480 91 458 q 149 551 149 502 q 137 659 149 585 q 125 776 125 732 q 218 950 125 883 q 410 1017 311 1017 q 415 1001 415 1017 q 407 972 415 974 q 331 930 369 970 q 293 831 293 891 q 304 715 293 784 q 316 589 316 647 q 281 471 316 525 q 208 418 245 418 q 281 368 245 418 q 316 254 316 317 q 304 134 316 195 q 293 24 293 72 q 332 -79 293 -37 q 407 -125 370 -122 q 415 -155 415 -126 q 410 -170 415 -170 q 221 -95 315 -170 q 127 79 127 -20 q 138 191 127 119 q 149 297 149 263 q 146 324 149 312 q 136 345 144 336 q 122 360 127 354 q 102 372 117 366 q 83 380 88 378 q 58 388 77 382 q 34 395 38 393 z "},"|":{"ha":212,"x_min":47,"x_max":165,"o":"m 165 -144 q 115 -157 165 -149 q 57 -164 65 -164 q 47 -156 47 -164 l 47 1027 q 54 1038 46 1035 q 155 1047 87 1047 q 163 1045 160 1047 q 165 1042 165 1043 l 165 1039 l 165 -144 z "},"}":{"ha":445,"x_min":30,"x_max":415,"o":"m 411 395 q 390 389 406 393 q 368 382 374 384 q 350 375 362 380 q 332 366 338 370 q 317 355 326 362 q 305 340 309 347 q 298 321 301 332 q 296 297 296 311 q 307 191 296 263 q 317 79 317 119 q 224 -95 317 -20 q 35 -170 130 -170 q 30 -155 30 -170 q 38 -125 30 -126 q 113 -79 75 -122 q 152 24 152 -37 q 140 134 152 72 q 129 254 129 195 q 164 368 129 317 q 237 418 199 418 q 164 471 199 418 q 129 589 129 525 q 140 715 129 647 q 152 831 152 784 q 114 930 152 891 q 38 972 76 970 q 30 1001 30 974 q 35 1017 30 1017 q 227 950 134 1017 q 320 776 320 883 q 308 659 320 732 q 296 551 296 585 q 325 480 296 502 q 410 445 354 458 q 415 420 415 435 q 411 395 415 403 z "},"~":{"ha":773,"x_min":68,"x_max":699,"o":"m 80 345 q 68 381 68 350 q 100 434 68 412 q 244 487 178 487 q 404 451 308 487 q 564 415 500 415 q 583 416 574 415 q 600 420 593 418 q 616 427 606 422 q 630 433 625 431 q 645 443 635 435 q 658 452 655 450 q 672 463 661 454 q 686 475 684 472 q 699 438 699 469 q 667 385 699 408 q 525 332 600 332 q 365 368 461 332 q 203 404 269 404 q 155 393 179 404 q 120 376 130 382 q 80 345 110 369 z "},"":{"ha":283,"x_min":0,"x_max":0,"o":""},"":{"ha":264,"x_min":34,"x_max":233,"o":"m 138 -323 q 75 -298 100 -323 q 49 -232 49 -274 q 71 21 49 -183 q 104 298 92 225 q 121 328 110 328 q 165 286 159 328 q 201 -2 179 198 q 222 -231 222 -202 q 197 -298 222 -273 q 138 -323 172 -323 m 34 496 q 66 571 34 541 q 137 601 98 601 q 205 570 178 601 q 233 496 233 538 q 204 426 233 454 q 132 397 175 397 q 63 426 92 397 q 34 496 34 454 z "},"":{"ha":627,"x_min":35,"x_max":579,"o":"m 373 643 q 426 632 426 643 l 420 601 q 498 578 463 594 q 548 549 533 562 q 571 526 563 537 q 498 401 571 401 q 418 469 445 401 q 404 496 411 486 l 340 103 q 381 99 358 99 q 467 112 426 99 q 524 135 507 125 q 567 165 540 145 q 579 140 579 160 q 574 113 579 123 q 493 35 560 79 q 342 -9 426 -9 q 321 -9 332 -9 l 313 -61 q 260 -49 260 -61 l 269 -1 q 100 109 165 24 q 35 307 35 194 q 130 519 35 431 q 359 606 224 606 q 368 606 363 606 l 373 643 m 289 129 l 354 530 q 336 532 346 532 q 228 328 228 532 q 289 129 228 182 z "},"":{"ha":666,"x_min":62,"x_max":635,"o":"m 77 454 l 454 454 q 461 441 461 454 q 441 393 461 407 l 76 393 q 69 411 69 393 q 77 454 69 442 m 393 871 q 496 854 446 871 q 562 814 545 838 q 491 699 562 699 q 452 714 469 699 q 426 749 435 730 q 399 785 416 769 q 359 800 381 800 q 282 766 307 800 q 258 656 258 731 q 279 519 258 621 q 300 353 300 418 q 244 140 300 220 q 313 152 271 152 q 418 132 354 152 q 499 111 481 111 q 524 113 513 111 q 544 121 534 115 q 559 132 553 127 q 574 147 566 136 q 586 163 583 159 q 598 183 589 167 q 610 202 608 199 q 626 193 617 202 q 635 172 635 183 q 632 155 635 165 q 577 44 618 99 q 472 -11 536 -11 q 341 12 426 -11 q 225 35 256 35 q 176 27 198 35 q 131 5 153 19 q 107 -11 109 -9 q 74 6 85 -7 q 62 27 62 19 l 133 113 q 149 296 149 155 q 130 437 149 331 q 110 595 110 543 q 192 794 110 718 q 393 871 274 871 z "},"":{"ha":636,"x_min":31,"x_max":605,"o":"m 334 222 q 403 269 381 222 q 425 378 425 316 q 307 613 425 613 q 239 566 259 613 q 218 453 218 518 q 334 222 218 222 m 476 627 l 545 692 q 564 688 551 697 q 589 661 576 678 q 605 627 601 643 l 538 564 q 586 418 586 498 q 530 258 586 326 l 591 193 q 587 174 597 187 q 560 149 578 161 q 526 133 543 137 l 464 201 q 321 161 399 161 q 161 213 232 161 l 91 146 q 73 151 85 141 q 47 178 60 160 q 31 212 35 195 l 100 277 q 57 418 57 342 q 113 575 57 505 l 46 646 q 50 664 41 651 q 77 689 60 677 q 111 705 95 701 l 178 633 q 321 674 241 674 q 476 627 407 674 z "},"":{"ha":935,"x_min":27,"x_max":886,"o":"m 225 863 q 419 871 256 863 q 421 843 422 865 q 416 821 420 821 q 371 813 396 821 q 345 792 346 806 q 355 762 345 781 l 491 522 q 505 525 498 515 q 598 675 544 582 q 652 791 652 769 q 566 821 652 821 q 559 843 560 821 q 564 871 559 865 q 728 863 686 863 q 882 871 764 863 q 886 846 886 859 q 880 822 886 822 q 825 810 856 822 q 774 773 793 798 q 638 564 739 726 q 537 385 537 403 l 537 351 l 631 351 q 637 335 637 351 q 629 290 637 304 l 537 290 l 537 241 l 631 241 q 637 225 637 241 q 629 180 637 195 l 537 180 q 548 79 537 118 q 585 57 551 69 q 632 45 620 45 q 637 19 637 45 q 635 -5 637 3 q 553 0 625 -5 q 446 5 481 5 q 339 1 410 5 q 250 -5 269 -4 q 244 16 244 0 q 248 45 244 45 q 298 56 263 45 q 338 79 334 68 q 347 180 346 113 l 252 180 q 245 198 245 180 q 254 241 245 220 l 347 241 l 347 290 l 252 290 q 245 308 245 290 q 254 351 245 328 l 347 351 l 347 392 q 305 479 347 401 q 220 629 263 556 l 178 701 q 104 800 133 784 q 33 821 71 821 q 27 843 27 821 q 33 871 27 865 q 94 867 56 869 q 163 864 132 865 q 225 863 195 863 z "},"":{"ha":209,"x_min":46,"x_max":164,"o":"m 164 541 q 114 528 164 536 q 56 521 64 521 q 46 529 46 521 l 46 1021 q 53 1032 45 1029 q 153 1042 85 1042 q 161 1040 159 1042 q 164 1036 164 1038 l 164 1034 l 164 541 m 164 -144 q 114 -157 164 -149 q 56 -164 64 -164 q 46 -156 46 -164 l 46 336 q 53 347 45 345 q 153 357 85 357 q 161 355 159 357 q 164 350 164 353 l 164 349 l 164 -144 z "},"":{"ha":556,"x_min":34,"x_max":521,"o":"m 521 393 q 491 276 521 331 q 431 201 461 221 q 446 121 446 168 q 426 33 446 71 q 372 -22 406 -4 q 305 -47 338 -39 q 240 -56 273 -56 q 157 -39 194 -56 q 109 -5 121 -23 q 107 19 107 0 q 121 71 107 54 q 152 88 136 88 q 214 56 176 88 q 283 23 252 23 q 344 39 320 23 q 368 79 368 54 q 333 153 368 119 q 250 211 298 186 q 152 265 201 236 q 68 340 103 294 q 34 448 34 387 q 121 628 34 566 q 107 703 107 651 q 168 836 107 789 q 313 883 228 883 q 395 867 359 883 q 442 831 430 850 q 444 818 442 829 q 446 804 446 807 q 435 751 446 766 q 397 736 423 736 q 343 770 380 736 q 274 804 307 804 q 186 746 186 804 q 220 675 186 707 q 304 621 255 644 q 402 570 353 597 q 486 498 452 543 q 521 393 521 453 m 404 251 q 429 305 429 275 q 395 389 429 353 q 317 447 361 426 q 223 503 274 468 q 149 575 172 537 q 129 517 129 559 q 149 446 129 476 q 203 397 170 416 q 273 359 237 377 q 347 314 309 342 q 404 251 384 286 z "},"":{"ha":549,"x_min":26,"x_max":522,"o":"m 355 628 q 341 642 355 628 q 327 697 327 656 q 355 766 327 738 q 425 793 384 793 q 494 766 465 793 q 522 697 522 738 q 494 628 522 656 q 425 600 465 600 q 355 628 384 600 m 54 628 q 40 642 54 628 q 26 697 26 656 q 54 766 26 738 q 122 793 81 793 q 191 766 163 793 q 220 697 220 738 q 191 628 220 656 q 122 600 163 600 q 54 628 81 600 z "},"":{"ha":814,"x_min":37,"x_max":779,"o":"m 557 363 q 549 328 557 354 q 532 297 541 302 q 403 270 483 270 q 275 326 328 270 q 222 457 222 381 q 276 595 222 537 q 410 652 330 652 q 540 636 475 652 q 548 593 543 635 q 553 544 553 551 q 543 538 553 538 q 525 541 533 538 q 492 589 518 566 q 412 612 465 612 q 342 570 366 612 q 317 469 317 528 q 346 357 317 403 q 430 311 374 311 q 502 331 480 311 q 517 348 510 338 q 529 364 525 358 q 534 370 533 370 q 557 363 553 370 m 189 682 q 143 636 189 682 q 98 463 98 591 q 189 243 98 334 q 407 153 279 153 q 625 243 534 153 q 716 463 716 334 q 625 682 716 591 q 407 772 534 772 q 189 682 279 772 m 145 202 q 91 256 145 202 q 37 464 37 311 q 145 726 37 617 q 407 834 254 834 q 669 726 560 834 q 779 464 779 617 q 669 202 779 311 q 407 94 560 94 q 145 202 254 94 z "},"":{"ha":471,"x_min":37,"x_max":437,"o":"m 256 442 l 256 534 q 238 529 252 533 q 218 522 224 525 q 199 515 212 519 q 182 506 187 510 q 169 496 176 502 q 159 482 161 490 q 156 465 156 475 q 205 403 156 403 q 243 414 229 403 q 256 442 256 425 m 376 442 q 377 420 376 427 q 384 409 378 414 q 401 404 389 404 q 416 407 410 404 q 425 412 422 410 q 430 415 429 415 q 437 403 437 415 q 429 368 437 388 q 332 338 388 338 q 291 351 311 338 q 264 381 271 365 l 258 377 q 240 365 251 372 q 216 352 229 358 q 183 341 202 346 q 146 336 164 336 q 63 369 90 336 q 37 448 37 401 q 50 494 37 473 q 92 528 64 514 q 141 550 119 543 q 199 567 163 557 q 248 581 236 576 q 256 595 256 583 l 256 628 q 216 703 256 703 q 172 685 191 703 q 153 633 153 667 q 136 614 153 623 q 100 606 118 606 q 62 621 76 606 q 47 654 47 635 q 104 722 47 689 q 231 754 161 754 q 376 591 376 754 l 376 442 z "},"":{"ha":647,"x_min":35,"x_max":616,"o":"m 416 336 q 514 240 416 336 q 614 133 614 144 q 595 111 614 122 q 567 99 576 100 q 541 124 566 102 q 446 199 515 146 q 288 308 377 251 q 278 327 278 312 q 289 363 278 351 q 360 408 326 385 q 421 451 395 431 q 471 489 448 471 q 512 522 495 507 q 541 548 529 537 q 562 567 553 559 l 568 574 q 597 562 578 572 q 616 540 616 551 q 515 433 616 529 l 416 336 m 174 336 l 271 240 q 372 133 372 144 q 353 111 372 122 q 324 99 334 100 q 298 124 323 102 q 203 199 273 146 q 45 308 134 251 q 35 327 35 312 q 46 363 35 351 q 117 408 83 385 q 178 451 152 431 q 229 489 205 471 q 269 522 252 507 q 298 548 286 537 q 317 567 311 559 l 326 574 q 354 562 335 572 q 373 540 373 551 q 273 433 373 529 l 174 336 z "},"":{"ha":731,"x_min":38,"x_max":684,"o":"m 38 496 q 58 579 45 579 q 667 579 58 579 q 684 564 684 579 l 684 229 q 604 209 673 218 l 598 209 q 590 212 593 209 q 589 217 587 214 l 589 218 l 589 469 q 574 483 589 483 l 46 483 q 38 496 38 483 z "},"":{"ha":812,"x_min":37,"x_max":779,"o":"m 365 454 q 369 406 363 422 q 383 396 370 401 q 401 391 396 391 q 404 383 404 391 q 401 370 404 376 q 378 372 395 370 q 345 375 361 374 q 319 376 330 376 q 271 373 302 376 q 232 370 240 370 q 229 380 229 373 q 231 391 229 391 q 251 396 237 391 q 266 406 264 401 q 270 450 270 423 l 270 673 q 266 718 270 700 q 251 727 264 722 q 232 732 237 732 q 231 742 231 732 q 232 753 231 751 q 320 750 286 750 q 359 751 336 750 q 400 751 382 751 q 490 728 448 751 q 533 655 533 705 q 511 587 533 616 q 467 549 488 559 q 467 544 464 548 q 553 427 509 472 q 612 391 590 391 q 614 380 614 388 q 613 370 614 376 q 598 369 609 369 q 517 385 552 369 q 469 416 483 401 q 433 463 456 431 q 409 497 422 477 q 389 527 396 517 q 378 540 382 537 q 372 541 377 541 q 365 533 365 541 l 365 454 m 399 576 q 438 644 438 576 q 393 722 438 722 q 370 718 374 722 q 366 707 366 713 q 365 661 365 700 l 365 598 q 370 580 365 583 q 395 576 376 576 l 399 576 m 189 772 q 143 726 189 772 q 98 553 98 681 q 189 335 98 426 q 407 244 279 244 q 625 335 534 244 q 716 553 716 426 q 625 772 716 681 q 407 863 534 863 q 189 772 279 863 m 145 293 q 91 347 145 293 q 37 555 37 401 q 145 817 37 708 q 407 925 254 925 q 669 817 560 925 q 779 555 779 708 q 669 293 779 401 q 407 184 560 184 q 145 293 254 184 z "},"":{"ha":521,"x_min":77,"x_max":442,"o":"m 77 734 q 83 783 79 764 q 91 807 87 802 q 98 812 95 812 l 99 812 l 433 812 l 434 812 q 442 799 442 812 q 436 749 441 769 q 427 724 431 730 l 423 719 l 85 719 q 79 722 85 719 q 77 734 77 726 z "},"":{"ha":316,"x_min":24,"x_max":292,"o":"m 108 779 q 97 769 108 779 q 87 727 87 758 q 108 675 87 696 q 159 654 129 654 q 210 675 189 654 q 231 727 231 696 q 210 779 231 758 q 159 800 189 800 q 108 779 129 800 m 64 633 q 44 653 64 633 q 24 727 24 673 q 64 821 24 781 q 159 860 103 860 q 253 821 214 860 q 292 727 292 781 q 252 632 292 671 q 159 593 213 593 q 64 633 103 593 z "},"":{"ha":719,"x_min":37,"x_max":686,"o":"m 410 415 l 410 165 q 328 144 389 152 q 320 144 328 144 q 312 153 312 144 l 312 412 q 304 419 312 419 l 45 419 q 37 433 37 419 q 47 510 37 473 q 51 515 49 514 q 54 517 53 517 l 57 517 l 305 517 q 312 525 312 517 l 312 772 q 319 781 311 779 q 396 792 355 792 l 410 784 l 410 524 q 415 517 410 517 l 675 517 q 686 507 686 517 q 673 427 686 477 q 669 421 671 423 q 665 419 667 419 l 663 419 l 415 419 q 410 415 410 419 m 665 96 q 668 96 666 96 q 673 92 670 96 q 675 81 677 88 q 654 -1 665 9 l 46 -1 q 43 -1 45 -1 q 39 3 42 -1 q 38 16 37 8 q 49 90 47 87 q 52 95 50 94 q 57 96 54 96 l 58 96 l 665 96 z "},"":{"ha":437,"x_min":35,"x_max":404,"o":"m 164 795 q 113 779 137 795 q 74 748 88 764 q 58 732 60 732 q 43 745 52 732 q 35 765 35 758 q 37 776 35 769 l 37 779 q 98 840 52 807 q 205 873 145 873 q 311 832 270 873 q 353 724 353 791 q 286 569 353 647 q 137 437 220 491 q 136 431 134 434 q 140 429 137 429 l 294 429 q 320 431 309 429 q 338 443 331 434 q 349 456 346 452 q 359 475 353 461 q 368 494 365 490 q 377 499 369 499 q 404 492 397 499 q 383 409 399 468 q 366 343 368 350 l 227 345 q 53 343 60 343 q 35 378 35 361 q 37 391 35 387 q 235 716 235 589 q 216 770 235 745 q 164 795 198 795 z "},"":{"ha":404,"x_min":35,"x_max":370,"o":"m 216 875 q 290 850 254 875 q 327 779 327 826 q 295 696 327 734 q 229 640 263 658 q 320 610 270 640 q 370 518 370 581 q 300 382 370 430 q 138 334 229 334 q 39 361 72 334 q 35 385 35 366 q 50 415 35 403 q 81 427 65 427 q 121 405 98 427 q 167 382 145 382 q 231 411 208 382 q 255 495 255 439 q 229 574 255 551 q 149 597 202 597 l 118 597 q 110 618 110 609 q 113 637 110 629 q 216 751 216 661 q 200 793 216 779 q 167 808 184 808 q 111 783 141 808 q 79 758 81 758 q 58 770 69 758 q 52 787 47 781 q 121 848 73 821 q 216 875 168 875 z "},"":{"ha":317,"x_min":37,"x_max":271,"o":"m 271 892 q 174 783 271 859 q 60 708 77 708 q 45 717 53 708 q 37 732 37 726 q 57 770 37 736 q 109 848 77 803 q 163 920 140 892 q 209 932 175 932 q 256 918 240 932 q 271 892 271 905 z "},"":{"ha":726,"x_min":58,"x_max":718,"o":"m 283 -12 q 266 -10 274 -12 q 250 -3 258 -8 q 238 7 243 3 q 227 21 233 11 q 218 36 221 31 q 210 54 214 41 q 203 70 205 66 q 197 87 202 73 q 191 103 191 102 q 193 31 191 102 q 201 -125 195 -39 q 221 -281 208 -210 q 193 -298 216 -289 q 153 -308 171 -308 q 96 -289 133 -308 q 58 -258 58 -270 q 67 -14 58 -214 q 87 277 76 187 q 84 341 87 293 q 81 404 81 389 l 81 578 q 112 595 87 586 q 151 605 137 605 q 200 586 163 605 q 237 555 237 567 q 214 361 237 469 l 206 302 q 231 172 206 222 q 292 122 255 122 q 347 138 324 122 q 382 182 370 153 q 401 239 395 210 q 411 308 407 269 l 411 404 l 411 578 q 441 595 416 586 q 479 605 467 605 q 537 586 492 605 q 582 555 582 567 q 551 334 582 480 l 544 302 q 547 200 543 239 q 566 134 551 161 q 612 106 582 106 q 661 121 635 106 q 696 148 686 136 q 713 130 703 148 q 718 103 718 122 q 668 26 704 58 q 591 -5 632 -5 q 510 50 545 -4 q 465 174 475 103 q 387 36 427 84 q 283 -12 347 -12 z "},"":{"ha":635,"x_min":22,"x_max":601,"o":"m 378 354 l 381 77 q 406 60 381 60 q 425 79 425 60 q 430 366 430 140 q 425 372 430 372 q 389 366 411 372 q 378 354 378 365 m 279 884 q 355 882 320 884 q 430 879 391 879 l 594 887 q 597 863 600 882 q 589 844 594 844 q 545 837 571 844 q 514 819 518 830 q 510 678 510 806 q 511 553 510 629 q 511 472 511 477 q 518 465 511 465 l 576 477 q 581 452 581 469 q 553 412 581 429 q 519 399 537 404 q 513 393 513 396 q 522 71 513 106 q 553 50 526 60 q 595 41 581 41 q 601 24 601 41 q 595 -5 601 0 q 498 -1 570 -4 q 377 3 426 3 q 323 1 350 3 q 264 -2 296 0 q 216 -5 233 -4 q 214 19 213 0 q 218 38 214 38 q 257 48 229 38 q 288 68 285 58 q 294 248 294 96 l 294 347 q 267 357 294 357 q 87 433 153 357 q 22 624 22 509 q 46 746 22 693 q 110 828 71 799 q 192 871 149 857 q 279 884 235 884 m 381 806 q 378 450 378 589 q 389 442 378 442 q 420 450 404 442 q 430 461 430 456 q 427 808 430 773 q 420 817 427 812 q 404 822 414 822 q 381 806 381 822 z "},"":{"ha":278,"x_min":42,"x_max":241,"o":"m 73 287 q 57 303 73 287 q 42 359 42 319 q 71 429 42 400 q 142 458 100 458 q 212 429 183 458 q 241 359 241 400 q 214 286 241 317 q 145 255 186 255 q 73 287 103 255 z "},"":{"ha":601,"x_min":206,"x_max":406,"o":"m 307 -38 q 332 -37 323 -37 q 384 -58 362 -37 q 406 -106 406 -79 q 370 -183 406 -155 q 274 -212 335 -212 q 209 -190 231 -212 q 206 -167 206 -182 q 216 -148 206 -148 l 241 -157 q 283 -168 266 -168 q 323 -157 309 -168 q 336 -129 336 -145 q 304 -91 336 -91 q 263 -99 283 -91 q 252 -90 260 -99 q 244 -77 243 -81 q 264 -39 251 -66 q 282 -3 277 -11 l 326 -3 l 307 -38 z "},"":{"ha":376,"x_min":31,"x_max":340,"o":"m 52 736 q 39 747 46 738 q 31 764 31 755 l 31 776 q 247 879 243 879 l 248 879 q 261 867 252 879 q 271 852 270 856 q 254 736 254 787 l 254 449 q 267 400 254 415 q 300 387 275 392 q 335 381 324 381 q 340 361 340 381 q 336 342 340 346 q 272 345 327 342 q 197 349 217 349 q 113 345 176 349 q 43 342 49 342 q 41 363 41 345 q 43 381 41 381 q 80 388 54 381 q 113 403 106 395 q 127 448 127 423 l 127 718 q 110 760 127 760 q 52 736 102 760 z "},"":{"ha":502,"x_min":37,"x_max":467,"o":"m 239 701 q 184 663 201 701 q 167 571 167 624 q 260 385 167 385 q 317 423 300 385 q 335 511 335 461 q 239 701 335 701 m 99 690 q 130 721 99 690 q 251 751 161 751 q 404 690 340 751 q 467 543 467 629 q 404 395 467 456 q 251 335 342 335 q 99 395 161 335 q 37 543 37 456 q 99 690 37 629 z "},"":{"ha":650,"x_min":34,"x_max":614,"o":"m 233 336 q 134 433 233 336 q 34 540 34 529 q 53 562 34 551 q 81 574 72 572 q 90 567 81 574 q 109 548 96 559 q 138 522 121 537 q 178 489 155 507 q 229 451 202 471 q 290 408 255 431 q 361 363 324 385 q 372 327 372 351 q 362 308 372 312 q 203 199 273 251 q 109 124 134 146 q 83 99 84 102 q 54 111 73 100 q 35 133 35 122 q 136 240 35 144 l 233 336 m 476 336 l 377 433 q 277 540 277 529 q 296 562 277 551 q 324 574 315 572 l 331 567 q 351 548 339 559 q 380 522 363 537 q 421 489 397 507 q 471 451 445 471 q 532 408 498 431 q 604 363 567 385 q 614 327 614 351 q 605 308 614 312 q 446 199 515 251 q 352 124 377 146 q 326 99 327 102 q 297 111 316 100 q 278 133 278 122 q 378 240 278 144 l 476 336 z "},"":{"ha":948,"x_min":30,"x_max":917,"o":"m 50 736 q 37 747 45 738 q 30 764 30 755 l 30 776 q 245 879 241 879 l 247 879 q 260 867 251 879 q 270 852 269 856 q 252 736 252 787 l 252 449 q 266 400 252 415 q 298 387 274 392 q 334 381 323 381 q 339 361 339 381 q 335 342 339 346 q 271 345 326 342 q 195 349 216 349 q 111 345 175 349 q 42 342 47 342 q 39 363 39 345 q 42 381 39 381 q 79 388 53 381 q 111 403 104 395 q 126 448 126 423 l 126 718 q 109 760 126 760 q 50 736 100 760 m 807 -4 q 749 4 749 -4 l 749 132 q 741 136 747 136 l 529 136 q 518 167 518 142 l 819 526 q 846 540 830 540 q 869 530 869 540 l 869 214 q 878 209 869 212 l 903 209 q 917 141 917 209 q 915 136 917 138 q 911 133 913 134 l 909 133 l 875 133 q 869 126 869 133 l 869 3 q 807 -4 840 -4 m 749 217 l 749 354 q 747 362 749 362 l 743 361 l 628 222 l 628 220 q 633 212 628 212 l 741 212 q 749 217 749 216 m 783 837 l 311 -19 q 305 -22 311 -22 q 256 4 277 -22 l 254 16 l 722 873 q 730 878 724 878 q 779 852 754 878 q 783 845 781 849 q 784 838 784 841 l 783 837 z "},"":{"ha":1015,"x_min":30,"x_max":985,"o":"m 745 450 q 693 435 718 450 q 654 404 669 419 q 639 388 640 388 q 624 401 632 388 q 616 420 616 414 q 617 431 616 425 l 617 434 q 679 496 632 463 q 785 529 726 529 q 892 488 850 529 q 933 380 933 446 q 867 224 933 302 q 718 92 800 146 q 716 87 715 90 q 720 84 718 84 l 875 84 q 901 87 890 84 q 919 98 911 90 q 930 112 926 107 q 939 131 933 117 q 948 149 945 145 q 958 155 949 155 q 985 148 978 155 q 964 64 979 123 q 947 -1 948 5 l 807 0 q 633 -1 640 -1 q 617 46 612 20 q 815 372 815 244 q 797 425 815 400 q 745 450 779 450 m 50 736 q 37 747 45 738 q 30 764 30 755 l 30 776 q 245 879 241 879 l 247 879 q 260 867 251 879 q 270 852 269 856 q 252 736 252 787 l 252 449 q 266 400 252 415 q 298 387 274 392 q 334 381 323 381 q 339 361 339 381 q 335 342 339 346 q 271 345 326 342 q 195 349 216 349 q 111 345 175 349 q 42 342 47 342 q 39 363 39 345 q 42 381 39 381 q 79 388 53 381 q 111 403 104 395 q 126 448 126 423 l 126 718 q 109 760 126 760 q 50 736 100 760 m 783 837 l 311 -19 q 305 -22 311 -22 q 255 5 277 -22 q 252 11 252 8 q 252 15 252 14 l 254 16 l 722 873 q 730 878 724 878 q 779 852 754 878 q 783 845 781 849 q 784 838 784 841 l 783 837 z "},"":{"ha":940,"x_min":31,"x_max":909,"o":"m 212 875 q 286 850 250 875 q 323 779 323 826 q 291 696 323 734 q 225 640 259 658 q 316 610 266 640 q 366 518 366 581 q 296 382 366 430 q 134 334 225 334 q 35 361 68 334 q 31 385 31 366 q 46 415 31 403 q 77 427 61 427 q 117 405 94 427 q 163 382 141 382 q 227 411 203 382 q 251 495 251 439 q 224 574 251 551 q 144 597 198 597 l 114 597 q 106 618 106 609 q 109 637 106 629 q 212 751 212 661 q 197 793 212 779 q 163 808 182 808 q 108 783 137 808 q 76 758 79 758 q 56 770 66 758 q 49 787 45 781 q 117 848 71 821 q 212 875 164 875 m 799 -4 q 741 4 741 -4 l 741 132 q 732 136 739 136 l 521 136 q 510 167 510 142 l 811 526 q 838 540 822 540 q 861 530 861 540 l 861 214 q 869 209 861 212 l 895 209 q 909 141 909 209 q 907 136 909 138 q 903 133 905 134 l 901 133 l 867 133 q 861 126 861 133 l 861 3 q 799 -4 831 -4 m 739 362 l 735 361 l 620 222 l 620 220 q 625 212 620 212 l 732 212 q 741 217 741 216 l 741 354 q 739 362 741 362 m 774 837 l 302 -19 q 294 -22 300 -22 q 247 5 269 -22 q 244 11 244 8 q 244 15 244 14 l 245 16 l 713 873 q 720 878 715 878 q 770 852 746 878 q 774 845 773 849 q 776 838 776 841 l 774 837 z "},"":{"ha":473,"x_min":31,"x_max":444,"o":"m 433 505 q 404 434 433 463 q 335 406 374 406 q 262 434 292 406 q 233 505 233 463 q 261 578 233 547 q 330 609 289 609 q 401 579 369 609 q 433 505 433 549 m 301 294 q 315 324 301 312 q 346 336 330 336 q 356 327 351 336 q 362 307 361 317 q 375 131 381 189 q 323 54 369 73 q 180 -24 212 9 q 148 -98 148 -57 q 225 -165 148 -165 q 281 -156 248 -165 q 345 -146 315 -146 q 416 -175 388 -146 q 444 -239 444 -203 q 431 -297 444 -279 q 351 -315 396 -315 q 132 -248 232 -309 q 31 -75 31 -186 q 71 69 31 20 q 195 164 110 118 q 226 180 205 170 q 252 195 247 191 q 270 207 258 198 q 285 221 282 216 q 294 238 288 227 q 300 262 300 250 q 301 294 301 275 z "},"":{"ha":977,"x_min":15,"x_max":978,"o":"m 557 1015 q 551 998 557 1008 q 538 987 545 987 q 404 1041 514 987 q 294 1127 294 1095 q 320 1166 294 1153 q 370 1179 346 1179 q 395 1173 384 1179 q 498 1081 439 1139 q 557 1015 557 1023 m 574 45 q 635 58 604 45 q 666 92 666 71 q 632 183 666 95 l 591 282 q 582 288 586 288 q 452 289 556 289 q 315 288 362 289 q 305 281 309 288 q 260 178 305 281 q 233 95 233 117 q 258 61 233 73 q 300 47 282 49 q 332 45 319 45 q 336 23 336 43 q 334 -5 336 3 q 262 1 316 -4 q 175 5 209 5 q 94 1 141 5 q 20 -5 46 -4 q 15 15 15 0 q 18 43 15 43 q 72 58 34 43 q 119 87 110 72 q 142 127 130 103 q 160 165 153 151 l 167 182 l 467 871 q 517 906 481 906 q 549 888 537 906 l 827 201 q 872 90 853 138 q 917 56 880 68 q 972 45 954 45 q 978 22 978 45 q 975 -5 978 -1 q 892 0 970 -5 q 779 5 814 5 q 574 -5 769 5 q 568 22 568 0 q 574 45 568 45 m 351 374 q 452 370 392 370 q 548 373 506 370 l 552 380 l 454 623 l 349 380 q 351 374 349 374 z "},"":{"ha":977,"x_min":15,"x_max":978,"o":"m 430 1015 q 489 1081 430 1023 q 593 1173 548 1139 q 617 1179 604 1179 q 667 1166 642 1179 q 693 1127 693 1153 q 583 1041 693 1095 q 449 987 473 987 q 436 998 442 987 q 430 1015 430 1008 m 574 45 q 635 58 604 45 q 666 92 666 71 q 632 183 666 95 l 591 282 q 582 288 586 288 q 452 289 556 289 q 315 288 362 289 q 305 281 309 288 q 260 178 305 281 q 233 95 233 117 q 258 61 233 73 q 300 47 282 49 q 332 45 319 45 q 336 23 336 43 q 334 -5 336 3 q 262 1 316 -4 q 175 5 209 5 q 94 1 141 5 q 20 -5 46 -4 q 15 15 15 0 q 18 43 15 43 q 72 58 34 43 q 119 87 110 72 q 142 127 130 103 q 160 165 153 151 l 167 182 l 467 871 q 517 906 481 906 q 549 888 537 906 l 827 201 q 872 90 853 138 q 917 56 880 68 q 972 45 954 45 q 978 22 978 45 q 975 -5 978 -1 q 892 0 970 -5 q 779 5 814 5 q 574 -5 769 5 q 568 22 568 0 q 574 45 568 45 m 351 374 q 452 370 392 370 q 548 373 506 370 l 552 380 l 454 623 l 349 380 q 351 374 349 374 z "},"":{"ha":977,"x_min":15,"x_max":978,"o":"m 671 987 q 602 1018 661 987 q 509 1072 544 1048 q 415 1018 473 1048 q 346 987 357 987 q 332 1013 332 987 q 431 1101 370 1042 q 490 1166 460 1128 q 507 1179 500 1179 q 528 1166 515 1179 q 548 1143 530 1164 q 582 1107 566 1123 q 685 1013 647 1042 q 671 987 685 987 m 574 45 q 635 58 604 45 q 666 92 666 71 q 632 183 666 95 l 591 282 q 582 288 586 288 q 452 289 556 289 q 315 288 362 289 q 305 281 309 288 q 260 178 305 281 q 233 95 233 117 q 258 61 233 73 q 300 47 282 49 q 332 45 319 45 q 336 23 336 43 q 334 -5 336 3 q 262 1 316 -4 q 175 5 209 5 q 94 1 141 5 q 20 -5 46 -4 q 15 15 15 0 q 18 43 15 43 q 72 58 34 43 q 119 87 110 72 q 142 127 130 103 q 160 165 153 151 l 167 182 l 467 871 q 517 906 481 906 q 549 888 537 906 l 827 201 q 872 90 853 138 q 917 56 880 68 q 972 45 954 45 q 978 22 978 45 q 975 -5 978 -1 q 892 0 970 -5 q 779 5 814 5 q 574 -5 769 5 q 568 22 568 0 q 574 45 568 45 m 351 374 q 452 370 392 370 q 548 373 506 370 l 552 380 l 454 623 l 349 380 q 351 374 349 374 z "},"":{"ha":977,"x_min":15,"x_max":978,"o":"m 263 1002 q 252 1032 252 1002 q 277 1100 252 1065 q 396 1169 328 1169 q 526 1123 448 1169 q 656 1077 605 1077 q 715 1116 682 1077 q 754 1154 747 1154 q 765 1124 765 1154 q 741 1055 765 1090 q 624 987 693 987 q 494 1034 572 987 q 363 1080 415 1080 q 304 1041 339 1080 q 263 1002 269 1002 m 574 45 q 635 58 604 45 q 666 92 666 71 q 632 183 666 95 l 591 282 q 582 288 586 288 q 452 289 556 289 q 315 288 362 289 q 305 281 309 288 q 260 178 305 281 q 233 95 233 117 q 258 61 233 73 q 300 47 282 49 q 332 45 319 45 q 336 23 336 43 q 334 -5 336 3 q 262 1 316 -4 q 175 5 209 5 q 94 1 141 5 q 20 -5 46 -4 q 15 15 15 0 q 18 43 15 43 q 72 58 34 43 q 119 87 110 72 q 142 127 130 103 q 160 165 153 151 l 167 182 l 467 871 q 517 906 481 906 q 549 888 537 906 l 827 201 q 872 90 853 138 q 917 56 880 68 q 972 45 954 45 q 978 22 978 45 q 975 -5 978 -1 q 892 0 970 -5 q 779 5 814 5 q 574 -5 769 5 q 568 22 568 0 q 574 45 568 45 m 351 374 q 452 370 392 370 q 548 373 506 370 l 552 380 l 454 623 l 349 380 q 351 374 349 374 z "},"":{"ha":977,"x_min":15,"x_max":978,"o":"m 593 1017 q 579 1031 593 1017 q 564 1088 564 1046 q 593 1159 564 1130 q 665 1188 623 1188 q 736 1159 707 1188 q 765 1088 765 1130 q 736 1017 765 1046 q 665 987 707 987 q 593 1017 623 987 m 281 1017 q 267 1031 281 1017 q 252 1088 252 1046 q 281 1159 252 1130 q 353 1188 311 1188 q 424 1159 395 1188 q 453 1088 453 1130 q 424 1017 453 1046 q 353 987 395 987 q 281 1017 311 987 m 574 45 q 635 58 604 45 q 666 92 666 71 q 632 183 666 95 l 591 282 q 582 288 586 288 q 452 289 556 289 q 315 288 362 289 q 305 281 309 288 q 260 178 305 281 q 233 95 233 117 q 258 61 233 73 q 300 47 282 49 q 332 45 319 45 q 336 23 336 43 q 334 -5 336 3 q 262 1 316 -4 q 175 5 209 5 q 94 1 141 5 q 20 -5 46 -4 q 15 15 15 0 q 18 43 15 43 q 72 58 34 43 q 119 87 110 72 q 142 127 130 103 q 160 165 153 151 l 167 182 l 467 871 q 517 906 481 906 q 549 888 537 906 l 827 201 q 872 90 853 138 q 917 56 880 68 q 972 45 954 45 q 978 22 978 45 q 975 -5 978 -1 q 892 0 970 -5 q 779 5 814 5 q 574 -5 769 5 q 568 22 568 0 q 574 45 568 45 m 351 374 q 452 370 392 370 q 548 373 506 370 l 552 380 l 454 623 l 349 380 q 351 374 349 374 z "},"":{"ha":977,"x_min":15,"x_max":978,"o":"m 458 1082 q 447 1071 458 1082 q 437 1029 437 1061 q 458 977 437 998 q 509 956 479 956 q 559 977 538 956 q 581 1029 581 998 q 559 1082 581 1061 q 509 1103 538 1103 q 458 1082 479 1103 m 374 1029 q 414 1123 374 1084 q 509 1162 453 1162 q 603 1124 564 1162 q 642 1029 642 1085 q 602 935 642 974 q 509 895 563 895 q 414 935 453 895 q 374 1029 374 974 m 574 45 q 635 58 604 45 q 666 92 666 71 q 632 183 666 95 l 591 282 q 582 288 586 288 q 452 289 556 289 q 315 288 362 289 q 305 281 309 288 q 260 178 305 281 q 233 95 233 117 q 258 61 233 73 q 300 47 282 49 q 332 45 319 45 q 336 23 336 43 q 334 -5 336 3 q 262 1 316 -4 q 175 5 209 5 q 94 1 141 5 q 20 -5 46 -4 q 15 15 15 0 q 18 43 15 43 q 72 58 34 43 q 119 87 110 72 q 142 127 130 103 q 160 165 153 151 l 167 182 l 467 871 q 517 906 481 906 q 549 888 537 906 l 827 201 q 872 90 853 138 q 917 56 880 68 q 972 45 954 45 q 978 22 978 45 q 975 -5 978 -1 q 892 0 970 -5 q 779 5 814 5 q 574 -5 769 5 q 568 22 568 0 q 574 45 568 45 m 351 374 q 452 370 392 370 q 548 373 506 370 l 552 380 l 454 623 l 349 380 q 351 374 349 374 z "},"":{"ha":1263,"x_min":14,"x_max":1245,"o":"m 582 792 q 587 811 587 800 q 562 838 587 826 q 521 850 536 850 q 515 873 515 850 q 519 901 515 897 q 707 890 616 890 q 918 895 768 890 q 1145 901 1069 901 q 1184 700 1146 887 q 1153 693 1177 693 q 1134 703 1138 693 q 1053 791 1108 754 q 944 827 997 827 l 892 827 q 804 810 807 827 q 798 704 798 777 l 798 495 q 856 487 798 487 l 928 487 q 1020 492 1012 487 q 1031 532 1027 498 q 1039 571 1034 552 q 1059 581 1040 581 q 1089 574 1082 581 l 1089 317 q 1061 312 1084 312 q 1039 323 1043 312 q 1029 355 1034 342 q 1023 376 1025 369 q 1017 388 1020 382 q 1012 395 1013 393 q 1006 398 1010 396 q 1001 401 1002 400 q 895 412 983 412 q 798 400 798 412 l 798 191 q 808 95 798 126 q 901 73 815 73 l 936 73 q 1088 109 1020 73 q 1140 155 1111 121 q 1185 231 1169 189 q 1204 239 1188 239 q 1245 231 1237 239 q 1172 -3 1179 43 q 930 0 1095 -3 q 708 3 766 3 l 518 -5 q 513 18 513 0 q 518 45 513 45 q 564 56 533 45 q 600 76 595 66 q 608 183 608 107 l 608 271 q 595 285 608 285 q 502 286 560 286 q 377 285 425 286 q 366 278 369 285 l 302 175 q 258 91 262 114 q 271 60 254 69 q 353 45 304 45 q 353 24 357 45 q 345 -5 349 3 q 274 1 326 -4 q 189 5 222 5 q 96 1 153 5 q 16 -5 39 -4 q 14 11 14 -3 q 17 31 14 18 q 22 45 20 45 q 85 61 38 45 q 144 94 132 77 l 199 179 l 582 792 m 608 382 l 608 644 q 604 651 608 651 q 594 644 598 651 l 429 377 q 431 372 429 372 q 519 368 472 368 q 548 368 538 368 q 569 370 557 369 q 595 370 581 370 q 608 382 608 370 z "},"":{"ha":865,"x_min":34,"x_max":829,"o":"m 472 -43 q 502 -42 491 -42 q 562 -67 536 -42 q 589 -123 589 -92 q 547 -214 589 -180 q 434 -248 506 -248 q 357 -222 382 -248 q 354 -195 354 -212 q 365 -174 354 -174 q 395 -185 366 -174 q 445 -197 423 -197 q 492 -183 476 -197 q 507 -151 507 -170 q 468 -106 507 -106 q 420 -115 444 -106 q 408 -104 418 -115 q 399 -90 397 -94 q 424 -41 407 -76 q 444 -1 441 -7 l 494 -1 l 472 -43 m 829 244 q 808 138 829 225 q 773 46 787 52 q 468 -9 621 -9 q 161 123 289 -9 q 34 437 34 255 q 162 767 34 629 q 481 905 290 905 q 792 865 629 905 q 809 774 799 864 q 819 665 819 685 q 783 644 819 644 q 761 648 781 644 q 739 700 754 673 q 692 758 723 727 q 608 809 662 789 q 488 829 555 829 q 245 465 245 829 q 320 180 245 296 q 532 64 395 64 q 705 137 632 64 q 737 185 723 155 q 759 237 751 216 q 768 258 766 258 q 829 244 823 258 z "},"":{"ha":811,"x_min":35,"x_max":777,"o":"m 495 1015 q 489 998 495 1008 q 476 987 483 987 q 342 1041 452 987 q 232 1127 232 1095 q 258 1166 232 1153 q 308 1179 283 1179 q 332 1173 321 1179 q 436 1081 377 1139 q 495 1015 495 1023 m 239 894 q 449 897 298 894 q 677 901 600 901 q 716 700 678 887 q 685 693 709 693 q 666 703 670 693 q 585 791 640 754 q 476 827 529 827 l 425 827 q 336 810 339 827 q 330 704 330 777 l 330 495 q 388 487 330 487 l 460 487 q 552 492 544 487 q 563 532 559 498 q 571 571 566 552 q 591 581 572 581 q 621 574 614 581 l 621 317 q 593 312 616 312 q 571 323 575 312 q 562 355 566 342 q 555 376 557 369 q 549 388 552 382 q 544 395 545 393 q 538 398 543 396 q 533 401 534 400 q 427 412 515 412 q 330 400 330 412 l 330 191 q 340 95 330 126 q 433 73 347 73 l 468 73 q 620 109 552 73 q 672 155 643 121 q 718 231 701 189 q 736 239 719 239 q 777 231 769 239 q 704 -3 711 43 q 484 0 635 -3 q 240 3 334 3 l 42 -5 q 37 18 37 0 q 42 45 37 45 q 93 54 58 45 q 132 75 127 64 q 140 194 140 106 l 140 707 q 132 812 140 781 q 92 837 127 823 q 41 850 56 850 q 35 875 35 850 q 39 901 35 897 q 239 894 148 894 z "},"":{"ha":811,"x_min":35,"x_max":777,"o":"m 300 1015 q 359 1081 300 1023 q 463 1173 418 1139 q 487 1179 473 1179 q 537 1166 511 1179 q 563 1127 563 1153 q 453 1041 563 1095 q 319 987 343 987 q 306 998 312 987 q 300 1015 300 1008 m 239 894 q 449 897 298 894 q 677 901 600 901 q 716 700 678 887 q 685 693 709 693 q 666 703 670 693 q 585 791 640 754 q 476 827 529 827 l 425 827 q 336 810 339 827 q 330 704 330 777 l 330 495 q 388 487 330 487 l 460 487 q 552 492 544 487 q 563 532 559 498 q 571 571 566 552 q 591 581 572 581 q 621 574 614 581 l 621 317 q 593 312 616 312 q 571 323 575 312 q 562 355 566 342 q 555 376 557 369 q 549 388 552 382 q 544 395 545 393 q 538 398 543 396 q 533 401 534 400 q 427 412 515 412 q 330 400 330 412 l 330 191 q 340 95 330 126 q 433 73 347 73 l 468 73 q 620 109 552 73 q 672 155 643 121 q 718 231 701 189 q 736 239 719 239 q 777 231 769 239 q 704 -3 711 43 q 484 0 635 -3 q 240 3 334 3 l 42 -5 q 37 18 37 0 q 42 45 37 45 q 93 54 58 45 q 132 75 127 64 q 140 194 140 106 l 140 707 q 132 812 140 781 q 92 837 127 823 q 41 850 56 850 q 35 875 35 850 q 39 901 35 897 q 239 894 148 894 z "},"":{"ha":811,"x_min":35,"x_max":777,"o":"m 555 987 q 486 1018 544 987 q 392 1072 427 1048 q 298 1018 357 1048 q 229 987 240 987 q 216 1013 216 987 q 315 1101 254 1042 q 373 1166 343 1128 q 391 1179 384 1179 q 411 1166 399 1179 q 431 1143 414 1164 q 465 1107 449 1123 q 568 1013 530 1042 q 555 987 568 987 m 239 894 q 449 897 298 894 q 677 901 600 901 q 716 700 678 887 q 685 693 709 693 q 666 703 670 693 q 585 791 640 754 q 476 827 529 827 l 425 827 q 336 810 339 827 q 330 704 330 777 l 330 495 q 388 487 330 487 l 460 487 q 552 492 544 487 q 563 532 559 498 q 571 571 566 552 q 591 581 572 581 q 621 574 614 581 l 621 317 q 593 312 616 312 q 571 323 575 312 q 562 355 566 342 q 555 376 557 369 q 549 388 552 382 q 544 395 545 393 q 538 398 543 396 q 533 401 534 400 q 427 412 515 412 q 330 400 330 412 l 330 191 q 340 95 330 126 q 433 73 347 73 l 468 73 q 620 109 552 73 q 672 155 643 121 q 718 231 701 189 q 736 239 719 239 q 777 231 769 239 q 704 -3 711 43 q 484 0 635 -3 q 240 3 334 3 l 42 -5 q 37 18 37 0 q 42 45 37 45 q 93 54 58 45 q 132 75 127 64 q 140 194 140 106 l 140 707 q 132 812 140 781 q 92 837 127 823 q 41 850 56 850 q 35 875 35 850 q 39 901 35 897 q 239 894 148 894 z "},"":{"ha":811,"x_min":35,"x_max":777,"o":"m 477 1017 q 462 1031 477 1017 q 448 1088 448 1046 q 477 1159 448 1130 q 548 1188 506 1188 q 619 1159 590 1188 q 648 1088 648 1130 q 619 1017 648 1046 q 548 987 590 987 q 477 1017 506 987 m 165 1017 q 150 1031 165 1017 q 136 1088 136 1046 q 165 1159 136 1130 q 236 1188 194 1188 q 307 1159 278 1188 q 336 1088 336 1130 q 307 1017 336 1046 q 236 987 278 987 q 165 1017 194 987 m 239 894 q 449 897 298 894 q 677 901 600 901 q 716 700 678 887 q 685 693 709 693 q 666 703 670 693 q 585 791 640 754 q 476 827 529 827 l 425 827 q 336 810 339 827 q 330 704 330 777 l 330 495 q 388 487 330 487 l 460 487 q 552 492 544 487 q 563 532 559 498 q 571 571 566 552 q 591 581 572 581 q 621 574 614 581 l 621 317 q 593 312 616 312 q 571 323 575 312 q 562 355 566 342 q 555 376 557 369 q 549 388 552 382 q 544 395 545 393 q 538 398 543 396 q 533 401 534 400 q 427 412 515 412 q 330 400 330 412 l 330 191 q 340 95 330 126 q 433 73 347 73 l 468 73 q 620 109 552 73 q 672 155 643 121 q 718 231 701 189 q 736 239 719 239 q 777 231 769 239 q 704 -3 711 43 q 484 0 635 -3 q 240 3 334 3 l 42 -5 q 37 18 37 0 q 42 45 37 45 q 93 54 58 45 q 132 75 127 64 q 140 194 140 106 l 140 707 q 132 812 140 781 q 92 837 127 823 q 41 850 56 850 q 35 875 35 850 q 39 901 35 897 q 239 894 148 894 z "},"":{"ha":469,"x_min":35,"x_max":431,"o":"m 328 1015 q 322 998 328 1008 q 309 987 316 987 q 175 1041 285 987 q 65 1127 65 1095 q 91 1166 65 1153 q 141 1179 117 1179 q 165 1173 155 1179 q 269 1081 210 1139 q 328 1015 328 1023 m 138 708 q 127 814 138 795 q 90 836 121 825 q 43 848 58 848 q 38 871 38 848 q 41 898 38 895 q 106 893 61 897 q 173 889 151 890 q 237 890 195 888 q 427 898 264 890 q 431 873 431 886 q 426 848 431 848 q 377 836 414 848 q 338 815 340 825 q 331 770 334 799 q 328 720 328 741 l 328 700 l 328 198 q 339 79 328 121 q 376 57 342 69 q 423 45 411 45 q 429 19 429 45 q 426 -5 429 3 q 345 0 416 -5 q 237 5 273 5 q 130 1 201 5 q 41 -5 60 -4 q 35 16 35 0 q 39 45 35 45 q 90 56 54 45 q 129 79 125 68 q 138 187 138 115 l 138 708 z "},"":{"ha":469,"x_min":35,"x_max":431,"o":"m 136 1015 q 195 1081 136 1023 q 298 1173 254 1139 q 323 1179 309 1179 q 373 1166 347 1179 q 399 1127 399 1153 q 289 1041 399 1095 q 155 987 179 987 q 142 998 148 987 q 136 1015 136 1008 m 138 708 q 127 814 138 795 q 90 836 121 825 q 43 848 58 848 q 38 871 38 848 q 41 898 38 895 q 106 893 61 897 q 173 889 151 890 q 237 890 195 888 q 427 898 264 890 q 431 873 431 886 q 426 848 431 848 q 377 836 414 848 q 338 815 340 825 q 331 770 334 799 q 328 720 328 741 l 328 700 l 328 198 q 339 79 328 121 q 376 57 342 69 q 423 45 411 45 q 429 19 429 45 q 426 -5 429 3 q 345 0 416 -5 q 237 5 273 5 q 130 1 201 5 q 41 -5 60 -4 q 35 16 35 0 q 39 45 35 45 q 90 56 54 45 q 129 79 125 68 q 138 187 138 115 l 138 708 z "},"":{"ha":469,"x_min":35,"x_max":431,"o":"m 396 987 q 327 1018 385 987 q 233 1072 269 1048 q 140 1018 198 1048 q 71 987 81 987 q 57 1013 57 987 q 156 1101 95 1042 q 214 1166 184 1128 q 232 1179 225 1179 q 252 1166 240 1179 q 273 1143 255 1164 q 307 1107 290 1123 q 410 1013 372 1042 q 396 987 410 987 m 138 708 q 127 814 138 795 q 90 836 121 825 q 43 848 58 848 q 38 871 38 848 q 41 898 38 895 q 106 893 61 897 q 173 889 151 890 q 237 890 195 888 q 427 898 264 890 q 431 873 431 886 q 426 848 431 848 q 377 836 414 848 q 338 815 340 825 q 331 770 334 799 q 328 720 328 741 l 328 700 l 328 198 q 339 79 328 121 q 376 57 342 69 q 423 45 411 45 q 429 19 429 45 q 426 -5 429 3 q 345 0 416 -5 q 237 5 273 5 q 130 1 201 5 q 41 -5 60 -4 q 35 16 35 0 q 39 45 35 45 q 90 56 54 45 q 129 79 125 68 q 138 187 138 115 l 138 708 z "},"":{"ha":469,"x_min":-22,"x_max":491,"o":"m 319 1017 q 305 1031 319 1017 q 290 1088 290 1046 q 319 1159 290 1130 q 391 1188 349 1188 q 462 1159 433 1188 q 491 1088 491 1130 q 462 1017 491 1046 q 391 987 433 987 q 319 1017 349 987 m 7 1017 q -7 1031 7 1017 q -22 1088 -22 1046 q 7 1159 -22 1130 q 79 1188 37 1188 q 150 1159 121 1188 q 179 1088 179 1130 q 150 1017 179 1046 q 79 987 121 987 q 7 1017 37 987 m 138 708 q 127 814 138 795 q 90 836 121 825 q 43 848 58 848 q 38 871 38 848 q 41 898 38 895 q 106 893 61 897 q 173 889 151 890 q 237 890 195 888 q 427 898 264 890 q 431 873 431 886 q 426 848 431 848 q 377 836 414 848 q 338 815 340 825 q 331 770 334 799 q 328 720 328 741 l 328 700 l 328 198 q 339 79 328 121 q 376 57 342 69 q 423 45 411 45 q 429 19 429 45 q 426 -5 429 3 q 345 0 416 -5 q 237 5 273 5 q 130 1 201 5 q 41 -5 60 -4 q 35 16 35 0 q 39 45 35 45 q 90 56 54 45 q 129 79 125 68 q 138 187 138 115 l 138 708 z "},"":{"ha":958,"x_min":15,"x_max":922,"o":"m 52 479 l 519 479 q 528 460 528 479 q 519 416 528 434 l 50 416 q 43 437 43 416 q 52 479 43 467 m 218 894 l 454 894 q 713 829 604 894 q 872 666 822 764 q 922 456 922 568 q 798 127 922 259 q 453 -4 673 -4 q 348 -1 427 -4 q 220 3 269 3 l 22 -5 q 16 18 16 0 q 22 45 16 45 q 73 54 38 45 q 111 75 107 64 q 119 194 119 106 l 119 707 q 111 812 119 781 q 71 837 107 823 q 20 850 35 850 q 15 875 15 850 q 19 901 15 897 q 218 894 129 894 m 309 711 l 309 184 q 321 90 309 96 q 475 72 351 72 q 653 170 590 72 q 716 461 716 267 q 649 714 716 610 q 465 818 582 818 l 458 818 q 327 796 343 818 q 309 711 309 772 z "},"":{"ha":1054,"x_min":38,"x_max":1019,"o":"m 281 1002 q 270 1032 270 1002 q 294 1100 270 1065 q 414 1169 346 1169 q 544 1123 465 1169 q 674 1077 623 1077 q 732 1116 700 1077 q 772 1154 765 1154 q 783 1124 783 1154 q 758 1055 783 1090 q 642 987 711 987 q 511 1034 590 987 q 381 1080 433 1080 q 321 1041 357 1080 q 281 1002 286 1002 m 793 711 q 776 808 793 788 q 725 836 764 823 q 670 848 686 848 q 663 870 665 848 q 666 898 662 892 q 845 887 791 887 q 938 892 879 887 q 1013 898 997 897 q 1019 873 1019 887 q 1012 848 1019 848 q 899 803 937 848 q 880 704 880 780 l 880 189 q 886 -1 880 140 q 852 -7 880 -7 q 810 24 836 -7 l 258 711 l 258 191 q 269 95 258 117 q 326 59 281 72 q 391 46 370 46 q 395 23 395 46 q 393 -5 396 0 q 313 0 381 -5 q 210 5 245 5 q 121 1 175 5 q 42 -5 66 -4 q 38 19 38 -1 q 42 45 38 45 q 73 47 56 45 q 118 63 91 50 q 157 96 145 76 q 171 195 171 118 l 171 728 q 151 825 171 799 q 103 841 144 834 q 43 848 62 848 q 37 870 38 848 q 41 898 35 892 q 127 892 62 897 q 227 887 191 887 q 359 898 273 887 q 450 764 382 852 q 623 548 517 677 q 791 336 728 419 q 793 392 793 346 l 793 711 z "},"":{"ha":943,"x_min":34,"x_max":906,"o":"m 488 1015 q 482 998 488 1008 q 469 987 476 987 q 335 1041 445 987 q 225 1127 225 1095 q 251 1166 225 1153 q 301 1179 277 1179 q 326 1173 315 1179 q 429 1081 370 1139 q 488 1015 488 1023 m 449 829 q 330 777 377 829 q 264 648 282 724 q 245 475 245 572 q 258 338 245 406 q 298 207 271 271 q 374 102 324 142 q 491 62 425 62 q 644 165 593 62 q 694 419 694 269 q 683 561 694 494 q 646 691 671 628 q 570 791 620 754 q 449 829 519 829 m 162 121 q 98 188 162 121 q 34 445 34 255 q 162 770 34 635 q 469 905 290 905 q 777 770 648 905 q 906 445 906 635 q 777 121 906 255 q 469 -14 648 -14 q 162 121 290 -14 z "},"":{"ha":943,"x_min":34,"x_max":906,"o":"m 450 1015 q 509 1081 450 1023 q 613 1173 568 1139 q 637 1179 624 1179 q 688 1166 662 1179 q 713 1127 713 1153 q 604 1041 713 1095 q 469 987 494 987 q 456 998 463 987 q 450 1015 450 1008 m 449 829 q 330 777 377 829 q 264 648 282 724 q 245 475 245 572 q 258 338 245 406 q 298 207 271 271 q 374 102 324 142 q 491 62 425 62 q 644 165 593 62 q 694 419 694 269 q 683 561 694 494 q 646 691 671 628 q 570 791 620 754 q 449 829 519 829 m 162 121 q 98 188 162 121 q 34 445 34 255 q 162 770 34 635 q 469 905 290 905 q 777 770 648 905 q 906 445 906 635 q 777 121 906 255 q 469 -14 648 -14 q 162 121 290 -14 z "},"":{"ha":943,"x_min":34,"x_max":906,"o":"m 632 987 q 563 1018 621 987 q 469 1072 505 1048 q 376 1018 434 1048 q 307 987 317 987 q 293 1013 293 987 q 392 1101 331 1042 q 450 1166 420 1128 q 468 1179 461 1179 q 488 1166 476 1179 q 509 1143 491 1164 q 543 1107 526 1123 q 646 1013 608 1042 q 632 987 646 987 m 449 829 q 330 777 377 829 q 264 648 282 724 q 245 475 245 572 q 258 338 245 406 q 298 207 271 271 q 374 102 324 142 q 491 62 425 62 q 644 165 593 62 q 694 419 694 269 q 683 561 694 494 q 646 691 671 628 q 570 791 620 754 q 449 829 519 829 m 162 121 q 98 188 162 121 q 34 445 34 255 q 162 770 34 635 q 469 905 290 905 q 777 770 648 905 q 906 445 906 635 q 777 121 906 255 q 469 -14 648 -14 q 162 121 290 -14 z "},"":{"ha":943,"x_min":34,"x_max":906,"o":"m 224 1002 q 213 1032 213 1002 q 237 1100 213 1065 q 357 1169 289 1169 q 487 1123 408 1169 q 617 1077 566 1077 q 675 1116 643 1077 q 715 1154 708 1154 q 726 1124 726 1154 q 701 1055 726 1090 q 585 987 654 987 q 454 1034 533 987 q 324 1080 376 1080 q 264 1041 300 1080 q 224 1002 229 1002 m 449 829 q 330 777 377 829 q 264 648 282 724 q 245 475 245 572 q 258 338 245 406 q 298 207 271 271 q 374 102 324 142 q 491 62 425 62 q 644 165 593 62 q 694 419 694 269 q 683 561 694 494 q 646 691 671 628 q 570 791 620 754 q 449 829 519 829 m 162 121 q 98 188 162 121 q 34 445 34 255 q 162 770 34 635 q 469 905 290 905 q 777 770 648 905 q 906 445 906 635 q 777 121 906 255 q 469 -14 648 -14 q 162 121 290 -14 z "},"":{"ha":943,"x_min":34,"x_max":906,"o":"m 554 1017 q 539 1031 554 1017 q 525 1088 525 1046 q 554 1159 525 1130 q 625 1188 583 1188 q 696 1159 667 1188 q 726 1088 726 1130 q 696 1017 726 1046 q 625 987 667 987 q 554 1017 583 987 m 242 1017 q 228 1031 242 1017 q 213 1088 213 1046 q 242 1159 213 1130 q 313 1188 271 1188 q 385 1159 355 1188 q 414 1088 414 1130 q 385 1017 414 1046 q 313 987 355 987 q 242 1017 271 987 m 449 829 q 330 777 377 829 q 264 648 282 724 q 245 475 245 572 q 258 338 245 406 q 298 207 271 271 q 374 102 324 142 q 491 62 425 62 q 644 165 593 62 q 694 419 694 269 q 683 561 694 494 q 646 691 671 628 q 570 791 620 754 q 449 829 519 829 m 162 121 q 98 188 162 121 q 34 445 34 255 q 162 770 34 635 q 469 905 290 905 q 777 770 648 905 q 906 445 906 635 q 777 121 906 255 q 469 -14 648 -14 q 162 121 290 -14 z "},"":{"ha":576,"x_min":35,"x_max":541,"o":"m 217 332 q 216 339 220 335 l 41 514 q 38 532 33 522 q 87 593 53 559 q 103 590 94 600 l 285 408 q 294 410 289 404 l 477 593 q 494 590 484 600 q 540 528 521 563 q 541 521 541 524 q 540 517 541 518 l 538 515 l 363 340 q 362 331 358 335 l 538 155 l 540 155 q 541 151 540 153 q 540 144 543 148 q 494 81 521 109 q 486 76 490 77 q 480 76 481 75 l 477 77 l 294 260 q 283 262 288 266 l 96 75 q 90 73 95 73 q 68 85 79 73 q 35 151 23 138 l 217 332 z "},"":{"ha":949,"x_min":34,"x_max":906,"o":"m 449 829 q 330 777 377 829 q 264 648 282 724 q 245 475 245 572 q 258 338 245 406 q 298 207 271 271 q 374 102 324 142 q 491 62 425 62 q 644 165 593 62 q 694 419 694 269 q 683 561 694 494 q 646 691 671 628 q 570 791 620 754 q 449 829 519 829 m 686 917 q 738 888 741 897 l 227 -24 q 175 5 172 -4 l 686 917 m 162 770 q 226 837 162 770 q 469 905 290 905 q 777 770 648 905 q 906 445 906 635 q 777 121 906 255 q 469 -14 648 -14 q 162 121 290 -14 q 34 445 34 255 q 162 770 34 635 z "},"":{"ha":1021,"x_min":33,"x_max":986,"o":"m 583 1015 q 577 998 583 1008 q 564 987 571 987 q 430 1041 540 987 q 320 1127 320 1095 q 346 1166 320 1153 q 396 1179 372 1179 q 420 1173 410 1179 q 524 1081 465 1139 q 583 1015 583 1023 m 232 890 q 422 898 259 890 q 426 873 426 886 q 420 848 426 848 q 372 836 408 848 q 332 815 335 825 q 323 700 323 779 l 323 378 q 379 178 323 254 q 532 102 435 102 q 696 168 632 102 q 761 388 761 233 l 761 711 q 743 808 761 788 q 692 836 731 823 q 637 848 654 848 q 631 870 632 848 q 633 898 629 892 q 812 887 758 887 q 905 892 846 887 q 981 898 964 897 q 986 873 986 887 q 979 848 986 848 q 867 803 905 848 q 848 704 848 780 l 848 395 q 751 95 848 197 q 499 -7 654 -7 q 233 96 334 -7 q 133 422 133 199 l 133 708 q 122 814 133 795 q 84 836 115 825 q 38 848 53 848 q 33 871 33 848 q 35 898 33 895 q 232 890 222 890 z "},"":{"ha":1021,"x_min":33,"x_max":986,"o":"m 426 1015 q 485 1081 426 1023 q 589 1173 544 1139 q 613 1179 600 1179 q 663 1166 637 1179 q 689 1127 689 1153 q 579 1041 689 1095 q 445 987 469 987 q 432 998 438 987 q 426 1015 426 1008 m 232 890 q 422 898 259 890 q 426 873 426 886 q 420 848 426 848 q 372 836 408 848 q 332 815 335 825 q 323 700 323 779 l 323 378 q 379 178 323 254 q 532 102 435 102 q 696 168 632 102 q 761 388 761 233 l 761 711 q 743 808 761 788 q 692 836 731 823 q 637 848 654 848 q 631 870 632 848 q 633 898 629 892 q 812 887 758 887 q 905 892 846 887 q 981 898 964 897 q 986 873 986 887 q 979 848 986 848 q 867 803 905 848 q 848 704 848 780 l 848 395 q 751 95 848 197 q 499 -7 654 -7 q 233 96 334 -7 q 133 422 133 199 l 133 708 q 122 814 133 795 q 84 836 115 825 q 38 848 53 848 q 33 871 33 848 q 35 898 33 895 q 232 890 222 890 z "},"":{"ha":1021,"x_min":33,"x_max":986,"o":"m 678 987 q 609 1018 667 987 q 515 1072 551 1048 q 422 1018 480 1048 q 353 987 363 987 q 339 1013 339 987 q 438 1101 377 1042 q 496 1166 467 1128 q 514 1179 507 1179 q 534 1166 522 1179 q 555 1143 537 1164 q 589 1107 572 1123 q 692 1013 654 1042 q 678 987 692 987 m 232 890 q 422 898 259 890 q 426 873 426 886 q 420 848 426 848 q 372 836 408 848 q 332 815 335 825 q 323 700 323 779 l 323 378 q 379 178 323 254 q 532 102 435 102 q 696 168 632 102 q 761 388 761 233 l 761 711 q 743 808 761 788 q 692 836 731 823 q 637 848 654 848 q 631 870 632 848 q 633 898 629 892 q 812 887 758 887 q 905 892 846 887 q 981 898 964 897 q 986 873 986 887 q 979 848 986 848 q 867 803 905 848 q 848 704 848 780 l 848 395 q 751 95 848 197 q 499 -7 654 -7 q 233 96 334 -7 q 133 422 133 199 l 133 708 q 122 814 133 795 q 84 836 115 825 q 38 848 53 848 q 33 871 33 848 q 35 898 33 895 q 232 890 222 890 z "},"":{"ha":1021,"x_min":33,"x_max":986,"o":"m 591 1017 q 576 1031 591 1017 q 562 1088 562 1046 q 591 1159 562 1130 q 662 1188 620 1188 q 733 1159 704 1188 q 762 1088 762 1130 q 733 1017 762 1046 q 662 987 704 987 q 591 1017 620 987 m 279 1017 q 264 1031 279 1017 q 250 1088 250 1046 q 279 1159 250 1130 q 350 1188 308 1188 q 421 1159 392 1188 q 450 1088 450 1130 q 421 1017 450 1046 q 350 987 392 987 q 279 1017 308 987 m 232 890 q 422 898 259 890 q 426 873 426 886 q 420 848 426 848 q 372 836 408 848 q 332 815 335 825 q 323 700 323 779 l 323 378 q 379 178 323 254 q 532 102 435 102 q 696 168 632 102 q 761 388 761 233 l 761 711 q 743 808 761 788 q 692 836 731 823 q 637 848 654 848 q 631 870 632 848 q 633 898 629 892 q 812 887 758 887 q 905 892 846 887 q 981 898 964 897 q 986 873 986 887 q 979 848 986 848 q 867 803 905 848 q 848 704 848 780 l 848 395 q 751 95 848 197 q 499 -7 654 -7 q 233 96 334 -7 q 133 422 133 199 l 133 708 q 122 814 133 795 q 84 836 115 825 q 38 848 53 848 q 33 871 33 848 q 35 898 33 895 q 232 890 222 890 z "},"":{"ha":907,"x_min":47,"x_max":901,"o":"m 437 1015 q 496 1081 437 1023 q 600 1173 555 1139 q 624 1179 610 1179 q 674 1166 648 1179 q 700 1127 700 1153 q 590 1041 700 1095 q 456 987 480 987 q 443 998 449 987 q 437 1015 437 1008 m 240 890 q 434 898 271 890 q 436 870 437 892 q 431 848 435 848 q 386 840 411 848 q 359 819 361 833 q 370 789 359 808 l 506 549 q 519 552 513 543 q 613 703 559 609 q 667 818 667 796 q 581 848 667 848 q 574 870 575 848 q 579 898 574 892 q 743 890 701 890 q 897 898 779 890 q 901 873 901 886 q 895 849 901 849 q 840 837 871 849 q 789 800 808 825 q 653 591 754 753 q 552 412 552 430 l 552 197 q 563 79 552 121 q 600 57 566 69 q 647 45 635 45 q 652 19 652 45 q 650 -5 652 3 q 568 0 640 -5 q 461 5 496 5 q 354 1 425 5 q 264 -5 283 -4 q 259 16 259 0 q 263 45 259 45 q 313 56 278 45 q 353 79 349 68 q 362 189 362 115 l 362 419 q 319 506 362 429 q 235 656 277 583 l 193 728 q 119 827 148 811 q 47 848 85 848 q 42 870 42 848 q 47 898 42 892 q 109 895 71 897 q 178 891 146 892 q 240 890 210 890 z "},"":{"ha":776,"x_min":8,"x_max":711,"o":"m 210 890 q 400 898 237 890 q 404 873 404 886 q 399 848 404 848 q 350 836 387 848 q 311 815 313 825 q 301 707 301 779 l 301 700 q 307 694 301 694 l 320 697 q 358 703 335 700 q 401 705 381 705 q 498 692 448 705 q 597 653 548 680 q 679 576 647 627 q 711 460 711 525 q 626 270 711 350 q 420 190 541 190 q 377 197 399 190 q 345 210 355 203 q 331 220 334 216 q 324 250 326 228 q 330 271 323 271 q 391 260 347 260 q 505 445 505 260 q 380 631 505 631 q 317 624 328 631 q 309 616 311 620 q 304 581 307 612 q 301 487 301 551 l 301 191 q 312 79 301 121 q 349 57 315 69 q 396 45 384 45 q 401 19 401 45 q 399 -5 401 3 q 317 0 389 -5 q 210 5 245 5 q 103 1 174 5 q 14 -5 33 -4 q 8 16 8 0 q 12 45 8 45 q 62 56 27 45 q 102 79 98 68 q 111 187 111 115 l 111 708 q 100 814 111 795 q 62 836 94 825 q 16 848 31 848 q 11 871 11 848 q 14 898 11 895 q 210 890 201 890 z "},"":{"ha":825,"x_min":39,"x_max":792,"o":"m 703 766 q 674 667 703 705 q 612 614 646 628 q 551 574 579 600 q 522 514 522 549 q 642 368 522 433 q 745 286 699 338 q 792 176 792 233 q 737 43 792 96 q 604 -9 682 -9 q 490 18 548 -9 q 419 66 431 45 q 433 134 419 104 q 472 163 446 163 q 522 148 503 163 q 548 114 541 133 q 568 80 555 95 q 602 65 582 65 q 625 84 617 65 q 632 122 632 103 l 632 141 q 607 208 632 179 q 546 258 582 236 q 473 302 510 279 q 412 363 437 326 q 387 453 387 401 q 402 518 387 490 q 439 566 418 547 q 484 607 461 586 q 522 663 506 628 q 537 745 537 697 q 407 871 537 871 q 353 852 374 871 q 323 798 332 834 q 312 728 315 761 q 309 644 309 696 l 309 189 q 320 73 309 122 q 353 52 321 64 q 396 41 385 41 q 401 20 400 41 q 399 -5 401 0 q 318 1 384 -4 q 221 5 252 5 q 124 1 189 5 q 43 -5 60 -4 q 39 16 39 -1 q 45 33 39 33 q 88 43 60 33 q 119 62 117 53 q 132 183 132 110 q 133 490 133 370 q 126 500 133 500 l 54 500 q 50 509 50 500 q 58 550 50 522 q 71 578 65 578 l 126 578 q 133 586 133 578 l 133 613 q 227 861 133 777 q 453 944 320 944 q 627 895 551 944 q 703 766 703 846 z "},"":{"ha":659,"x_min":38,"x_max":625,"o":"m 157 876 q 173 902 157 888 q 220 916 189 916 q 266 903 254 916 q 320 831 289 876 q 372 753 351 787 q 392 716 392 720 q 384 701 392 709 q 369 692 376 692 q 254 767 351 692 q 157 876 157 842 m 286 88 q 341 105 321 88 q 361 146 361 122 l 361 283 q 334 275 358 282 q 304 264 311 267 q 278 254 297 262 q 252 241 259 247 q 233 225 244 235 q 218 205 222 216 q 214 180 214 194 q 235 110 214 132 q 286 88 256 88 m 340 609 q 486 557 435 609 q 537 368 537 505 l 537 148 q 570 102 537 102 q 616 119 593 102 q 625 99 625 114 q 616 49 625 65 q 554 12 597 31 q 473 -8 511 -8 q 411 12 441 -8 q 372 57 381 31 q 361 50 370 57 q 336 33 351 42 q 302 14 321 23 q 255 -3 282 4 q 201 -9 228 -9 q 82 32 126 -9 q 38 136 38 73 q 55 203 38 172 q 94 253 72 233 q 155 290 117 273 q 220 315 193 307 q 290 336 247 324 q 349 353 332 347 q 361 373 361 357 l 361 422 q 293 533 361 533 q 214 442 214 533 q 190 398 214 412 q 136 384 165 384 q 50 425 73 384 q 142 551 50 494 q 340 609 233 609 z "},"":{"ha":659,"x_min":38,"x_max":625,"o":"m 393 916 q 440 902 425 916 q 456 876 456 888 q 359 767 456 842 q 244 692 262 692 q 229 701 237 692 q 221 716 221 709 q 241 753 221 720 q 293 831 262 787 q 347 903 324 876 q 393 916 359 916 m 286 88 q 341 105 321 88 q 361 146 361 122 l 361 283 q 334 275 358 282 q 304 264 311 267 q 278 254 297 262 q 252 241 259 247 q 233 225 244 235 q 218 205 222 216 q 214 180 214 194 q 235 110 214 132 q 286 88 256 88 m 340 609 q 486 557 435 609 q 537 368 537 505 l 537 148 q 570 102 537 102 q 616 119 593 102 q 625 99 625 114 q 616 49 625 65 q 554 12 597 31 q 473 -8 511 -8 q 411 12 441 -8 q 372 57 381 31 q 361 50 370 57 q 336 33 351 42 q 302 14 321 23 q 255 -3 282 4 q 201 -9 228 -9 q 82 32 126 -9 q 38 136 38 73 q 55 203 38 172 q 94 253 72 233 q 155 290 117 273 q 220 315 193 307 q 290 336 247 324 q 349 353 332 347 q 361 373 361 357 l 361 422 q 293 533 361 533 q 214 442 214 533 q 190 398 214 412 q 136 384 165 384 q 50 425 73 384 q 142 551 50 494 q 340 609 233 609 z "},"":{"ha":659,"x_min":38,"x_max":625,"o":"m 457 692 q 393 728 446 692 q 309 792 340 765 q 225 728 278 765 q 161 692 172 692 q 149 723 149 692 q 239 829 182 755 q 292 906 267 865 q 309 920 300 920 q 326 906 315 920 q 345 877 330 901 q 376 836 361 853 q 469 723 435 757 q 457 692 469 692 m 286 88 q 341 105 321 88 q 361 146 361 122 l 361 283 q 334 275 358 282 q 304 264 311 267 q 278 254 297 262 q 252 241 259 247 q 233 225 244 235 q 218 205 222 216 q 214 180 214 194 q 235 110 214 132 q 286 88 256 88 m 340 609 q 486 557 435 609 q 537 368 537 505 l 537 148 q 570 102 537 102 q 616 119 593 102 q 625 99 625 114 q 616 49 625 65 q 554 12 597 31 q 473 -8 511 -8 q 411 12 441 -8 q 372 57 381 31 q 361 50 370 57 q 336 33 351 42 q 302 14 321 23 q 255 -3 282 4 q 201 -9 228 -9 q 82 32 126 -9 q 38 136 38 73 q 55 203 38 172 q 94 253 72 233 q 155 290 117 273 q 220 315 193 307 q 290 336 247 324 q 349 353 332 347 q 361 373 361 357 l 361 422 q 293 533 361 533 q 214 442 214 533 q 190 398 214 412 q 136 384 165 384 q 50 425 73 384 q 142 551 50 494 q 340 609 233 609 z "},"":{"ha":659,"x_min":38,"x_max":625,"o":"m 92 704 q 83 731 83 704 q 104 791 83 754 q 201 853 148 853 q 308 812 243 853 q 415 770 373 770 q 464 805 437 770 q 496 840 491 840 q 505 812 505 840 q 484 751 505 787 q 389 692 445 692 q 282 732 347 692 q 174 773 217 773 q 126 739 155 773 q 92 704 98 704 m 286 88 q 341 105 321 88 q 361 146 361 122 l 361 283 q 334 275 358 282 q 304 264 311 267 q 278 254 297 262 q 252 241 259 247 q 233 225 244 235 q 218 205 222 216 q 214 180 214 194 q 235 110 214 132 q 286 88 256 88 m 340 609 q 486 557 435 609 q 537 368 537 505 l 537 148 q 570 102 537 102 q 616 119 593 102 q 625 99 625 114 q 616 49 625 65 q 554 12 597 31 q 473 -8 511 -8 q 411 12 441 -8 q 372 57 381 31 q 361 50 370 57 q 336 33 351 42 q 302 14 321 23 q 255 -3 282 4 q 201 -9 228 -9 q 82 32 126 -9 q 38 136 38 73 q 55 203 38 172 q 94 253 72 233 q 155 290 117 273 q 220 315 193 307 q 290 336 247 324 q 349 353 332 347 q 361 373 361 357 l 361 422 q 293 533 361 533 q 214 442 214 533 q 190 398 214 412 q 136 384 165 384 q 50 425 73 384 q 142 551 50 494 q 340 609 233 609 z "},"":{"ha":659,"x_min":38,"x_max":625,"o":"m 374 720 q 360 734 374 720 q 346 789 346 749 q 374 858 346 830 q 444 886 403 886 q 513 858 484 886 q 541 789 541 830 q 513 720 541 749 q 444 692 484 692 q 374 720 403 692 m 73 720 q 59 734 73 720 q 45 789 45 749 q 73 858 45 830 q 141 886 100 886 q 210 858 182 886 q 239 789 239 830 q 210 720 239 749 q 141 692 182 692 q 73 720 100 692 m 286 88 q 341 105 321 88 q 361 146 361 122 l 361 283 q 334 275 358 282 q 304 264 311 267 q 278 254 297 262 q 252 241 259 247 q 233 225 244 235 q 218 205 222 216 q 214 180 214 194 q 235 110 214 132 q 286 88 256 88 m 340 609 q 486 557 435 609 q 537 368 537 505 l 537 148 q 570 102 537 102 q 616 119 593 102 q 625 99 625 114 q 616 49 625 65 q 554 12 597 31 q 473 -8 511 -8 q 411 12 441 -8 q 372 57 381 31 q 361 50 370 57 q 336 33 351 42 q 302 14 321 23 q 255 -3 282 4 q 201 -9 228 -9 q 82 32 126 -9 q 38 136 38 73 q 55 203 38 172 q 94 253 72 233 q 155 290 117 273 q 220 315 193 307 q 290 336 247 324 q 349 353 332 347 q 361 373 361 357 l 361 422 q 293 533 361 533 q 214 442 214 533 q 190 398 214 412 q 136 384 165 384 q 50 425 73 384 q 142 551 50 494 q 340 609 233 609 z "},"":{"ha":659,"x_min":38,"x_max":625,"o":"m 257 878 q 247 868 257 878 q 236 826 236 857 q 257 774 236 795 q 308 753 278 753 q 359 774 338 753 q 380 826 380 795 q 359 878 380 857 q 308 899 338 899 q 257 878 278 899 m 213 732 q 193 752 213 732 q 174 826 174 772 q 213 920 174 880 q 308 959 252 959 q 402 920 363 959 q 441 826 441 880 q 401 731 441 770 q 308 692 362 692 q 213 732 252 692 m 286 88 q 341 105 321 88 q 361 146 361 122 l 361 283 q 334 275 358 282 q 304 264 311 267 q 278 254 297 262 q 252 241 259 247 q 233 225 244 235 q 218 205 222 216 q 214 180 214 194 q 235 110 214 132 q 286 88 256 88 m 340 609 q 486 557 435 609 q 537 368 537 505 l 537 148 q 570 102 537 102 q 616 119 593 102 q 625 99 625 114 q 616 49 625 65 q 554 12 597 31 q 473 -8 511 -8 q 411 12 441 -8 q 372 57 381 31 q 361 50 370 57 q 336 33 351 42 q 302 14 321 23 q 255 -3 282 4 q 201 -9 228 -9 q 82 32 126 -9 q 38 136 38 73 q 55 203 38 172 q 94 253 72 233 q 155 290 117 273 q 220 315 193 307 q 290 336 247 324 q 349 353 332 347 q 361 373 361 357 l 361 422 q 293 533 361 533 q 214 442 214 533 q 190 398 214 412 q 136 384 165 384 q 50 425 73 384 q 142 551 50 494 q 340 609 233 609 z "},"":{"ha":921,"x_min":26,"x_max":892,"o":"m 342 146 l 342 262 q 293 254 309 258 q 251 242 277 251 q 214 218 225 233 q 202 180 202 203 q 223 110 202 132 q 274 88 244 88 q 324 105 307 88 q 342 146 342 122 m 624 532 q 549 479 572 532 q 525 366 525 427 q 534 358 525 358 q 713 382 703 380 q 722 396 722 385 q 694 490 722 449 q 624 532 667 532 m 328 609 q 469 548 414 609 q 639 609 555 609 q 751 583 701 609 q 830 515 802 556 q 874 433 859 475 q 892 355 890 392 q 882 331 894 340 q 838 316 871 321 q 532 275 774 307 q 525 266 525 274 q 532 227 525 251 q 556 172 540 202 q 606 120 572 141 q 686 99 640 99 q 771 113 731 99 q 826 136 811 126 q 869 165 841 145 q 882 141 882 156 q 875 110 882 126 q 792 33 861 77 q 639 -11 723 -11 q 422 83 511 -11 q 321 13 372 35 q 189 -9 271 -9 q 70 32 114 -9 q 26 136 26 73 q 35 188 26 164 q 58 229 45 212 q 95 262 72 247 q 138 287 118 278 q 189 306 157 296 q 237 320 220 316 q 287 332 255 324 q 330 342 319 339 q 342 361 342 345 l 342 422 q 325 503 342 472 q 281 533 308 533 q 202 442 202 533 q 178 398 202 412 q 123 384 153 384 q 38 425 61 384 q 130 551 38 494 q 328 609 221 609 z "},"":{"ha":627,"x_min":35,"x_max":579,"o":"m 336 -38 q 362 -37 353 -37 q 414 -58 392 -37 q 435 -106 435 -79 q 400 -183 435 -155 q 304 -212 365 -212 q 239 -190 260 -212 q 236 -167 236 -182 q 245 -148 236 -148 l 271 -157 q 313 -168 296 -168 q 353 -157 339 -168 q 366 -129 366 -145 q 334 -91 366 -91 q 293 -99 313 -91 q 281 -90 290 -99 q 274 -77 273 -81 q 294 -39 281 -66 q 312 -3 307 -11 l 355 -3 l 336 -38 m 359 606 q 469 589 418 606 q 540 555 519 571 q 571 526 560 540 q 498 401 571 401 q 418 469 445 401 q 387 516 406 500 q 336 532 369 532 q 228 328 228 532 q 381 99 228 99 q 467 112 426 99 q 524 135 507 125 q 567 165 540 145 q 579 140 579 160 q 574 113 579 123 q 493 35 560 79 q 342 -9 426 -9 q 123 82 212 -9 q 35 307 35 174 q 130 519 35 431 q 359 606 224 606 z "},"":{"ha":627,"x_min":35,"x_max":600,"o":"m 167 876 q 182 902 167 888 q 229 916 198 916 q 275 903 263 916 q 330 831 298 876 q 381 753 361 787 q 401 716 401 720 q 393 701 401 709 q 378 692 385 692 q 264 767 361 692 q 167 876 167 842 m 323 532 q 245 481 270 532 q 221 381 221 430 q 231 373 221 373 l 403 373 q 422 399 422 373 q 394 491 422 450 q 323 532 366 532 m 330 606 q 526 522 452 606 q 600 349 600 437 q 587 308 600 317 q 536 298 574 298 l 229 298 q 221 289 221 298 q 262 157 221 216 q 381 99 304 99 q 467 112 426 99 q 524 135 507 125 q 567 165 540 145 q 579 140 579 160 q 574 113 579 123 q 492 35 560 80 q 340 -9 425 -9 q 125 81 216 -9 q 35 300 35 172 q 117 518 35 430 q 330 606 198 606 z "},"":{"ha":627,"x_min":35,"x_max":600,"o":"m 422 916 q 469 902 453 916 q 484 876 484 888 q 387 767 484 842 q 273 692 290 692 q 258 701 266 692 q 250 716 250 709 q 270 753 250 720 q 321 831 290 787 q 376 903 353 876 q 422 916 388 916 m 323 532 q 245 481 270 532 q 221 381 221 430 q 231 373 221 373 l 403 373 q 422 399 422 373 q 394 491 422 450 q 323 532 366 532 m 330 606 q 526 522 452 606 q 600 349 600 437 q 587 308 600 317 q 536 298 574 298 l 229 298 q 221 289 221 298 q 262 157 221 216 q 381 99 304 99 q 467 112 426 99 q 524 135 507 125 q 567 165 540 145 q 579 140 579 160 q 574 113 579 123 q 492 35 560 80 q 340 -9 425 -9 q 125 81 216 -9 q 35 300 35 172 q 117 518 35 430 q 330 606 198 606 z "},"":{"ha":627,"x_min":35,"x_max":600,"o":"m 461 692 q 397 728 450 692 q 313 792 345 765 q 229 728 282 765 q 165 692 176 692 q 153 723 153 692 q 243 829 186 755 q 296 906 271 865 q 313 920 304 920 q 330 906 319 920 q 349 877 334 901 q 380 836 365 853 q 473 723 439 757 q 461 692 473 692 m 323 532 q 245 481 270 532 q 221 381 221 430 q 231 373 221 373 l 403 373 q 422 399 422 373 q 394 491 422 450 q 323 532 366 532 m 330 606 q 526 522 452 606 q 600 349 600 437 q 587 308 600 317 q 536 298 574 298 l 229 298 q 221 289 221 298 q 262 157 221 216 q 381 99 304 99 q 467 112 426 99 q 524 135 507 125 q 567 165 540 145 q 579 140 579 160 q 574 113 579 123 q 492 35 560 80 q 340 -9 425 -9 q 125 81 216 -9 q 35 300 35 172 q 117 518 35 430 q 330 606 198 606 z "},"":{"ha":627,"x_min":35,"x_max":600,"o":"m 395 720 q 380 734 395 720 q 366 789 366 749 q 395 858 366 830 q 464 886 423 886 q 533 858 505 886 q 562 789 562 830 q 533 720 562 749 q 464 692 505 692 q 395 720 423 692 m 93 720 q 79 734 93 720 q 65 789 65 749 q 93 858 65 830 q 161 886 121 886 q 231 858 202 886 q 259 789 259 830 q 231 720 259 749 q 161 692 202 692 q 93 720 121 692 m 323 532 q 245 481 270 532 q 221 381 221 430 q 231 373 221 373 l 403 373 q 422 399 422 373 q 394 491 422 450 q 323 532 366 532 m 330 606 q 526 522 452 606 q 600 349 600 437 q 587 308 600 317 q 536 298 574 298 l 229 298 q 221 289 221 298 q 262 157 221 216 q 381 99 304 99 q 467 112 426 99 q 524 135 507 125 q 567 165 540 145 q 579 140 579 160 q 574 113 579 123 q 492 35 560 80 q 340 -9 425 -9 q 125 81 216 -9 q 35 300 35 172 q 117 518 35 430 q 330 606 198 606 z "},"":{"ha":444,"x_min":34,"x_max":399,"o":"m 75 876 q 90 902 75 888 q 137 916 106 916 q 183 903 171 916 q 237 831 206 876 q 289 753 269 787 q 309 716 309 720 q 301 701 309 709 q 286 692 293 692 q 172 767 269 692 q 75 876 75 842 m 309 198 q 320 75 309 118 q 354 53 323 65 q 396 41 385 41 q 401 20 400 41 q 399 -5 401 0 q 317 1 382 -4 q 221 5 252 5 q 125 1 189 5 q 43 -5 61 -4 q 38 20 38 0 q 43 41 38 41 q 90 52 58 41 q 123 75 121 64 q 133 178 133 115 l 133 376 q 109 477 133 452 q 80 495 99 488 q 47 505 61 502 q 34 509 34 507 q 41 548 34 548 q 159 566 66 548 q 289 597 251 585 q 297 600 290 597 l 304 601 q 317 592 311 601 q 324 578 324 583 q 309 442 309 458 l 309 198 z "},"":{"ha":444,"x_min":34,"x_max":399,"o":"m 297 916 q 344 902 328 916 q 359 876 359 888 q 262 767 359 842 q 148 692 165 692 q 133 701 141 692 q 125 716 125 709 q 145 753 125 720 q 197 831 165 787 q 251 903 228 876 q 297 916 263 916 m 309 198 q 320 75 309 118 q 354 53 323 65 q 396 41 385 41 q 401 20 400 41 q 399 -5 401 0 q 317 1 382 -4 q 221 5 252 5 q 125 1 189 5 q 43 -5 61 -4 q 38 20 38 0 q 43 41 38 41 q 90 52 58 41 q 123 75 121 64 q 133 178 133 115 l 133 376 q 109 477 133 452 q 80 495 99 488 q 47 505 61 502 q 34 509 34 507 q 41 548 34 548 q 159 566 66 548 q 289 597 251 585 q 297 600 290 597 l 304 601 q 317 592 311 601 q 324 578 324 583 q 309 442 309 458 l 309 198 z "},"":{"ha":444,"x_min":34,"x_max":399,"o":"m 358 692 q 294 728 347 692 q 210 792 241 765 q 126 728 179 765 q 62 692 73 692 q 50 723 50 692 q 140 829 83 755 q 193 906 168 865 q 210 920 201 920 q 227 906 216 920 q 246 877 231 901 q 277 836 262 853 q 370 723 336 757 q 358 692 370 692 m 309 198 q 320 75 309 118 q 354 53 323 65 q 396 41 385 41 q 401 20 400 41 q 399 -5 401 0 q 317 1 382 -4 q 221 5 252 5 q 125 1 189 5 q 43 -5 61 -4 q 38 20 38 0 q 43 41 38 41 q 90 52 58 41 q 123 75 121 64 q 133 178 133 115 l 133 376 q 109 477 133 452 q 80 495 99 488 q 47 505 61 502 q 34 509 34 507 q 41 548 34 548 q 159 566 66 548 q 289 597 251 585 q 297 600 290 597 l 304 601 q 317 592 311 601 q 324 578 324 583 q 309 442 309 458 l 309 198 z "},"":{"ha":444,"x_min":-19,"x_max":444,"o":"m 349 882 q 416 854 388 882 q 444 788 444 826 q 415 722 444 750 q 349 693 387 693 q 283 721 311 693 q 255 788 255 749 q 283 854 255 826 q 349 882 311 882 m 9 854 q 23 868 9 854 q 76 882 37 882 q 143 854 115 882 q 171 788 171 826 q 143 722 171 750 q 76 693 115 693 q 9 722 37 693 q -19 788 -19 750 q 9 854 -19 826 m 309 198 q 320 75 309 118 q 354 53 323 65 q 396 41 385 41 q 401 20 400 41 q 399 -5 401 0 q 317 1 382 -4 q 221 5 252 5 q 125 1 189 5 q 43 -5 61 -4 q 38 20 38 0 q 43 41 38 41 q 90 52 58 41 q 123 75 121 64 q 133 178 133 115 l 133 376 q 109 477 133 452 q 80 495 99 488 q 47 505 61 502 q 34 509 34 507 q 41 548 34 548 q 159 566 66 548 q 289 597 251 585 q 297 600 290 597 l 304 601 q 317 592 311 601 q 324 578 324 583 q 309 442 309 458 l 309 198 z "},"":{"ha":707,"x_min":38,"x_max":666,"o":"m 541 945 q 567 898 575 905 l 195 667 q 171 716 161 708 l 541 945 m 339 606 q 427 601 410 606 q 307 791 389 715 q 111 898 225 867 q 125 943 111 943 q 263 921 191 943 q 408 852 335 899 q 537 740 480 806 q 630 577 594 674 q 666 368 666 480 q 639 186 666 263 q 564 69 612 110 q 464 10 517 28 q 351 -8 411 -8 q 134 78 231 -8 q 38 294 38 164 q 125 508 38 410 q 339 606 212 606 m 342 532 q 231 332 231 532 q 262 142 231 218 q 366 65 294 65 q 473 275 473 65 q 461 431 471 389 q 414 505 450 479 q 342 532 378 532 z "},"":{"ha":844,"x_min":41,"x_max":800,"o":"m 216 704 q 206 731 206 704 q 228 791 206 754 q 324 853 271 853 q 431 812 366 853 q 538 770 496 770 q 587 805 560 770 q 620 840 614 840 q 628 812 628 840 q 608 751 628 787 q 513 692 568 692 q 406 732 471 692 q 297 773 340 773 q 250 739 278 773 q 216 704 221 704 m 525 605 q 653 538 604 605 q 703 336 703 472 l 703 202 q 712 79 703 115 q 750 57 715 69 q 798 45 785 45 q 802 22 802 45 q 800 -5 803 0 q 715 1 785 -4 q 614 5 646 5 q 516 1 582 5 q 434 -5 450 -4 q 429 22 429 0 q 434 45 429 45 q 481 57 449 45 q 517 79 514 69 q 526 182 526 119 l 526 304 q 498 447 526 404 q 410 490 471 490 q 342 474 368 490 q 316 430 316 458 l 316 202 q 326 79 316 115 q 361 57 328 69 q 406 45 395 45 q 410 22 410 45 q 408 -5 411 0 q 326 1 392 -4 q 228 5 259 5 q 126 1 195 5 q 42 -5 57 -4 q 37 22 37 0 q 42 45 37 45 q 92 57 57 45 q 130 79 127 69 q 140 182 140 119 l 140 368 q 115 469 140 444 q 87 487 106 480 q 54 496 68 494 q 41 500 41 499 q 47 548 41 548 q 102 555 64 548 q 201 576 140 563 q 296 597 262 590 q 302 598 298 597 q 308 600 305 600 l 311 601 q 324 592 317 601 q 331 578 331 583 q 326 536 326 540 q 327 528 326 529 q 336 534 330 528 q 525 605 412 605 z "},"":{"ha":709,"x_min":35,"x_max":673,"o":"m 189 876 q 204 902 189 888 q 251 916 220 916 q 297 903 285 916 q 351 831 320 876 q 403 753 382 787 q 423 716 423 720 q 415 701 423 709 q 400 692 407 692 q 286 767 382 692 q 189 876 189 842 m 335 532 q 270 500 296 532 q 236 429 244 469 q 228 340 228 389 q 368 65 228 65 q 451 121 425 65 q 477 251 477 176 q 335 532 477 532 m 128 517 q 175 562 128 517 q 354 606 221 606 q 580 517 487 606 q 673 298 673 427 q 581 80 673 170 q 354 -9 488 -9 q 128 80 221 -9 q 35 298 35 170 q 128 517 35 427 z "},"":{"ha":709,"x_min":35,"x_max":673,"o":"m 465 916 q 512 902 496 916 q 528 876 528 888 q 431 767 528 842 q 316 692 334 692 q 301 701 309 692 q 293 716 293 709 q 313 753 293 720 q 365 831 334 787 q 419 903 396 876 q 465 916 431 916 m 335 532 q 270 500 296 532 q 236 429 244 469 q 228 340 228 389 q 368 65 228 65 q 451 121 425 65 q 477 251 477 176 q 335 532 477 532 m 128 517 q 175 562 128 517 q 354 606 221 606 q 580 517 487 606 q 673 298 673 427 q 581 80 673 170 q 354 -9 488 -9 q 128 80 221 -9 q 35 298 35 170 q 128 517 35 427 z "},"":{"ha":709,"x_min":35,"x_max":673,"o":"m 502 692 q 438 728 491 692 q 354 792 385 765 q 270 728 323 765 q 206 692 217 692 q 194 723 194 692 q 283 829 227 755 q 336 906 312 865 q 354 920 345 920 q 370 906 359 920 q 390 877 374 901 q 420 836 406 853 q 514 723 480 757 q 502 692 514 692 m 335 532 q 270 500 296 532 q 236 429 244 469 q 228 340 228 389 q 368 65 228 65 q 451 121 425 65 q 477 251 477 176 q 335 532 477 532 m 128 517 q 175 562 128 517 q 354 606 221 606 q 580 517 487 606 q 673 298 673 427 q 581 80 673 170 q 354 -9 488 -9 q 128 80 221 -9 q 35 298 35 170 q 128 517 35 427 z "},"":{"ha":709,"x_min":35,"x_max":673,"o":"m 152 704 q 142 731 142 704 q 164 791 142 754 q 260 853 208 853 q 368 812 302 853 q 475 770 433 770 q 524 805 496 770 q 556 840 551 840 q 564 812 564 840 q 544 751 564 787 q 449 692 505 692 q 342 732 407 692 q 233 773 277 773 q 186 739 214 773 q 152 704 157 704 m 335 532 q 270 500 296 532 q 236 429 244 469 q 228 340 228 389 q 368 65 228 65 q 451 121 425 65 q 477 251 477 176 q 335 532 477 532 m 128 517 q 175 562 128 517 q 354 606 221 606 q 580 517 487 606 q 673 298 673 427 q 581 80 673 170 q 354 -9 488 -9 q 128 80 221 -9 q 35 298 35 170 q 128 517 35 427 z "},"":{"ha":709,"x_min":35,"x_max":673,"o":"m 427 720 q 413 734 427 720 q 399 789 399 749 q 427 858 399 830 q 496 886 456 886 q 566 858 537 886 q 594 789 594 830 q 566 720 594 749 q 496 692 537 692 q 427 720 456 692 m 125 720 q 112 734 125 720 q 98 789 98 749 q 125 858 98 830 q 194 886 153 886 q 263 858 235 886 q 292 789 292 830 q 263 720 292 749 q 194 692 235 692 q 125 720 153 692 m 335 532 q 270 500 296 532 q 236 429 244 469 q 228 340 228 389 q 368 65 228 65 q 451 121 425 65 q 477 251 477 176 q 335 532 477 532 m 128 517 q 175 562 128 517 q 354 606 221 606 q 580 517 487 606 q 673 298 673 427 q 581 80 673 170 q 354 -9 488 -9 q 128 80 221 -9 q 35 298 35 170 q 128 517 35 427 z "},"":{"ha":708,"x_min":34,"x_max":671,"o":"m 351 513 q 295 534 317 513 q 269 589 273 555 l 269 594 q 294 650 269 625 q 351 675 319 675 q 408 655 385 675 q 434 601 430 635 l 434 593 q 409 537 434 562 q 351 513 384 513 m 409 18 q 396 5 409 18 q 351 -8 384 -8 q 296 14 319 -8 q 269 71 273 37 l 269 77 q 294 134 269 109 q 351 160 319 160 q 407 136 384 160 q 434 79 430 113 l 434 76 q 409 18 434 45 m 34 298 q 39 349 34 313 q 53 384 43 384 l 662 384 q 671 370 671 382 q 661 296 671 339 q 656 290 659 292 q 651 288 654 288 l 650 286 l 42 286 q 37 289 42 286 q 34 298 34 293 z "},"":{"ha":627,"x_min":35,"x_max":673,"o":"m 506 617 q 552 589 556 598 l 209 -24 q 191 -17 201 -22 q 171 -5 180 -12 q 163 5 161 1 l 506 617 m 335 532 q 270 500 296 532 q 236 429 244 469 q 228 340 228 389 q 368 65 228 65 q 451 121 425 65 q 477 251 477 176 q 335 532 477 532 m 128 517 q 175 562 128 517 q 354 606 221 606 q 580 517 487 606 q 673 298 673 427 q 581 80 673 170 q 354 -9 488 -9 q 128 80 221 -9 q 35 298 35 170 q 128 517 35 427 z "},"":{"ha":812,"x_min":33,"x_max":779,"o":"m 214 876 q 230 902 214 888 q 277 916 245 916 q 323 903 311 916 q 377 831 346 876 q 429 753 408 787 q 449 716 449 720 q 441 701 449 709 q 426 692 433 692 q 311 767 408 692 q 214 876 214 842 m 694 444 l 694 178 q 708 92 694 107 q 730 82 715 85 q 760 79 745 79 l 773 79 q 779 68 779 76 q 770 28 779 28 q 718 23 750 27 q 652 14 685 19 q 591 5 620 9 q 543 -3 562 0 l 524 -7 q 515 18 515 -7 l 515 68 q 514 75 515 73 q 510 73 513 76 q 427 19 481 43 q 308 -5 372 -5 q 180 65 228 -5 q 132 236 132 136 l 132 368 q 107 469 132 444 q 79 487 98 480 q 46 496 60 494 q 33 500 33 499 q 39 548 33 548 q 157 566 65 548 q 288 597 250 585 l 294 600 q 302 601 301 601 q 316 592 309 601 q 323 578 323 583 q 308 442 308 458 l 308 297 q 335 149 308 191 q 426 106 362 106 q 495 127 472 106 q 518 174 518 148 l 518 368 q 494 469 518 444 q 465 487 484 480 q 433 496 446 494 q 419 500 419 499 q 426 548 419 548 q 544 566 452 548 q 674 597 636 585 q 682 600 675 597 l 689 601 q 703 592 696 601 q 709 578 709 583 q 694 444 694 458 z "},"":{"ha":812,"x_min":33,"x_max":779,"o":"m 543 916 q 589 902 574 916 q 605 876 605 888 q 508 767 605 842 q 393 692 411 692 q 378 701 387 692 q 370 716 370 709 q 391 753 370 720 q 442 831 411 787 q 496 903 473 876 q 543 916 509 916 m 694 444 l 694 178 q 708 92 694 107 q 730 82 715 85 q 760 79 745 79 l 773 79 q 779 68 779 76 q 770 28 779 28 q 718 23 750 27 q 652 14 685 19 q 591 5 620 9 q 543 -3 562 0 l 524 -7 q 515 18 515 -7 l 515 68 q 514 75 515 73 q 510 73 513 76 q 427 19 481 43 q 308 -5 372 -5 q 180 65 228 -5 q 132 236 132 136 l 132 368 q 107 469 132 444 q 79 487 98 480 q 46 496 60 494 q 33 500 33 499 q 39 548 33 548 q 157 566 65 548 q 288 597 250 585 l 294 600 q 302 601 301 601 q 316 592 309 601 q 323 578 323 583 q 308 442 308 458 l 308 297 q 335 149 308 191 q 426 106 362 106 q 495 127 472 106 q 518 174 518 148 l 518 368 q 494 469 518 444 q 465 487 484 480 q 433 496 446 494 q 419 500 419 499 q 426 548 419 548 q 544 566 452 548 q 674 597 636 585 q 682 600 675 597 l 689 601 q 703 592 696 601 q 709 578 709 583 q 694 444 694 458 z "},"":{"ha":812,"x_min":33,"x_max":779,"o":"m 549 692 q 486 728 538 692 q 401 792 433 765 q 317 728 370 765 q 254 692 264 692 q 241 723 241 692 q 331 829 274 755 q 384 906 359 865 q 401 920 392 920 q 418 906 407 920 q 437 877 422 901 q 468 836 453 853 q 562 723 528 757 q 549 692 562 692 m 694 444 l 694 178 q 708 92 694 107 q 730 82 715 85 q 760 79 745 79 l 773 79 q 779 68 779 76 q 770 28 779 28 q 718 23 750 27 q 652 14 685 19 q 591 5 620 9 q 543 -3 562 0 l 524 -7 q 515 18 515 -7 l 515 68 q 514 75 515 73 q 510 73 513 76 q 427 19 481 43 q 308 -5 372 -5 q 180 65 228 -5 q 132 236 132 136 l 132 368 q 107 469 132 444 q 79 487 98 480 q 46 496 60 494 q 33 500 33 499 q 39 548 33 548 q 157 566 65 548 q 288 597 250 585 l 294 600 q 302 601 301 601 q 316 592 309 601 q 323 578 323 583 q 308 442 308 458 l 308 297 q 335 149 308 191 q 426 106 362 106 q 495 127 472 106 q 518 174 518 148 l 518 368 q 494 469 518 444 q 465 487 484 480 q 433 496 446 494 q 419 500 419 499 q 426 548 419 548 q 544 566 452 548 q 674 597 636 585 q 682 600 675 597 l 689 601 q 703 592 696 601 q 709 578 709 583 q 694 444 694 458 z "},"":{"ha":812,"x_min":33,"x_max":779,"o":"m 483 720 q 469 734 483 720 q 454 789 454 749 q 483 858 454 830 q 552 886 511 886 q 621 858 593 886 q 650 789 650 830 q 621 720 650 749 q 552 692 593 692 q 483 720 511 692 m 181 720 q 167 734 181 720 q 153 789 153 749 q 181 858 153 830 q 250 886 209 886 q 319 858 290 886 q 347 789 347 830 q 319 720 347 749 q 250 692 290 692 q 181 720 209 692 m 694 444 l 694 178 q 708 92 694 107 q 730 82 715 85 q 760 79 745 79 l 773 79 q 779 68 779 76 q 770 28 779 28 q 718 23 750 27 q 652 14 685 19 q 591 5 620 9 q 543 -3 562 0 l 524 -7 q 515 18 515 -7 l 515 68 q 514 75 515 73 q 510 73 513 76 q 427 19 481 43 q 308 -5 372 -5 q 180 65 228 -5 q 132 236 132 136 l 132 368 q 107 469 132 444 q 79 487 98 480 q 46 496 60 494 q 33 500 33 499 q 39 548 33 548 q 157 566 65 548 q 288 597 250 585 l 294 600 q 302 601 301 601 q 316 592 309 601 q 323 578 323 583 q 308 442 308 458 l 308 297 q 335 149 308 191 q 426 106 362 106 q 495 127 472 106 q 518 174 518 148 l 518 368 q 494 469 518 444 q 465 487 484 480 q 433 496 446 494 q 419 500 419 499 q 426 548 419 548 q 544 566 452 548 q 674 597 636 585 q 682 600 675 597 l 689 601 q 703 592 696 601 q 709 578 709 583 q 694 444 694 458 z "},"":{"ha":738,"x_min":5,"x_max":738,"o":"m 530 916 q 577 902 562 916 q 593 876 593 888 q 496 767 593 842 q 381 692 399 692 q 366 701 374 692 q 358 716 358 709 q 378 753 358 720 q 430 831 399 787 q 484 903 461 876 q 530 916 496 916 m 201 590 q 297 595 231 590 q 378 601 363 600 q 382 572 382 589 q 377 551 382 551 q 326 540 359 551 q 293 515 293 529 l 294 503 q 400 239 297 481 q 500 458 492 438 q 509 499 509 477 q 501 518 509 507 q 471 540 494 529 q 412 551 448 551 q 407 575 407 551 q 410 601 407 593 q 490 595 426 600 q 587 590 555 590 q 663 595 616 590 q 732 601 711 600 q 738 578 738 590 q 732 551 738 551 q 672 537 712 551 q 618 496 632 524 l 366 -50 q 103 -296 254 -296 q 37 -274 62 -296 q 12 -224 12 -252 q 43 -160 12 -182 q 267 -54 216 -160 q 309 35 298 12 l 107 483 l 100 499 q 59 539 87 528 q 11 551 31 551 q 5 571 5 551 q 8 601 5 598 q 94 595 19 601 q 201 590 168 590 z "},"":{"ha":769,"x_min":23,"x_max":726,"o":"m 427 605 q 641 515 556 605 q 726 308 726 426 q 629 73 726 157 q 387 -11 533 -11 q 352 -8 370 -11 q 321 -2 334 -5 q 308 1 309 1 q 302 -20 302 1 l 302 -88 q 312 -212 302 -175 q 350 -233 315 -221 q 397 -245 385 -245 q 402 -268 401 -245 q 400 -296 403 -290 q 315 -290 385 -294 q 214 -285 245 -285 q 113 -290 182 -285 q 28 -296 43 -294 q 23 -268 23 -290 q 28 -245 23 -245 q 79 -233 43 -245 q 117 -212 114 -221 q 126 -109 126 -171 l 126 716 q 119 818 126 784 q 49 840 113 840 l 37 840 q 28 867 28 840 q 37 890 28 890 q 121 901 79 894 q 194 914 164 907 q 248 928 224 921 q 285 939 271 935 l 298 943 l 301 943 q 312 935 307 943 q 319 920 317 926 q 302 783 302 859 l 302 567 q 305 559 302 559 q 427 605 365 605 m 407 526 q 331 498 359 526 q 302 426 302 469 l 302 170 q 336 90 302 118 q 408 62 370 62 q 530 263 530 62 q 407 526 530 526 z "},"":{"ha":738,"x_min":5,"x_max":738,"o":"m 471 720 q 456 734 471 720 q 442 789 442 749 q 471 858 442 830 q 540 886 499 886 q 609 858 581 886 q 637 789 637 830 q 609 720 637 749 q 540 692 581 692 q 471 720 499 692 m 169 720 q 155 734 169 720 q 141 789 141 749 q 169 858 141 830 q 237 886 197 886 q 307 858 278 886 q 335 789 335 830 q 307 720 335 749 q 237 692 278 692 q 169 720 197 692 m 201 590 q 297 595 231 590 q 378 601 363 600 q 382 572 382 589 q 377 551 382 551 q 326 540 359 551 q 293 515 293 529 l 294 503 q 400 239 297 481 q 500 458 492 438 q 509 499 509 477 q 501 518 509 507 q 471 540 494 529 q 412 551 448 551 q 407 575 407 551 q 410 601 407 593 q 490 595 426 600 q 587 590 555 590 q 663 595 616 590 q 732 601 711 600 q 738 578 738 590 q 732 551 738 551 q 672 537 712 551 q 618 496 632 524 l 366 -50 q 103 -296 254 -296 q 37 -274 62 -296 q 12 -224 12 -252 q 43 -160 12 -182 q 267 -54 216 -160 q 309 35 298 12 l 107 483 l 100 499 q 59 539 87 528 q 11 551 31 551 q 5 571 5 551 q 8 601 5 598 q 94 595 19 601 q 201 590 168 590 z "},"":{"ha":977,"x_min":15,"x_max":978,"o":"m 300 1002 q 305 1051 301 1032 q 313 1076 309 1070 q 320 1081 317 1081 l 709 1081 q 718 1067 718 1081 q 711 1018 716 1038 q 703 993 707 998 l 699 987 l 308 987 q 301 990 308 987 q 300 1002 300 994 m 574 45 q 635 58 604 45 q 666 92 666 71 q 632 183 666 95 l 591 282 q 582 288 586 288 q 452 289 556 289 q 315 288 362 289 q 305 281 309 288 q 260 178 305 281 q 233 95 233 117 q 258 61 233 73 q 300 47 282 49 q 332 45 319 45 q 336 23 336 43 q 334 -5 336 3 q 262 1 316 -4 q 175 5 209 5 q 94 1 141 5 q 20 -5 46 -4 q 15 15 15 0 q 18 43 15 43 q 72 58 34 43 q 119 87 110 72 q 142 127 130 103 q 160 165 153 151 l 167 182 l 467 871 q 517 906 481 906 q 549 888 537 906 l 827 201 q 872 90 853 138 q 917 56 880 68 q 972 45 954 45 q 978 22 978 45 q 975 -5 978 -1 q 892 0 970 -5 q 779 5 814 5 q 574 -5 769 5 q 568 22 568 0 q 574 45 568 45 m 351 374 q 452 370 392 370 q 548 373 506 370 l 552 380 l 454 623 l 349 380 q 351 374 349 374 z "},"":{"ha":659,"x_min":38,"x_max":625,"o":"m 114 707 q 119 755 115 736 q 127 780 123 774 q 134 785 132 785 l 471 785 q 479 772 479 785 q 467 703 477 723 l 460 692 l 122 692 q 115 694 122 692 q 114 707 114 699 m 286 88 q 341 105 321 88 q 361 146 361 122 l 361 283 q 334 275 358 282 q 304 264 311 267 q 278 254 297 262 q 252 241 259 247 q 233 225 244 235 q 218 205 222 216 q 214 180 214 194 q 235 110 214 132 q 286 88 256 88 m 340 609 q 486 557 435 609 q 537 368 537 505 l 537 148 q 570 102 537 102 q 616 119 593 102 q 625 99 625 114 q 616 49 625 65 q 554 12 597 31 q 473 -8 511 -8 q 411 12 441 -8 q 372 57 381 31 q 361 50 370 57 q 336 33 351 42 q 302 14 321 23 q 255 -3 282 4 q 201 -9 228 -9 q 82 32 126 -9 q 38 136 38 73 q 55 203 38 172 q 94 253 72 233 q 155 290 117 273 q 220 315 193 307 q 290 336 247 324 q 349 353 332 347 q 361 373 361 357 l 361 422 q 293 533 361 533 q 214 442 214 533 q 190 398 214 412 q 136 384 165 384 q 50 425 73 384 q 142 551 50 494 q 340 609 233 609 z "},"":{"ha":977,"x_min":15,"x_max":978,"o":"m 447 1088 q 464 1079 447 1088 q 509 1069 480 1069 q 570 1088 537 1069 q 621 1131 604 1108 q 627 1134 624 1135 q 646 1116 633 1131 q 658 1095 659 1101 q 656 1090 656 1093 q 655 1085 656 1086 q 509 987 597 987 q 362 1085 420 987 q 361 1090 361 1086 q 359 1095 361 1093 q 371 1116 358 1101 q 391 1134 384 1131 q 396 1131 393 1135 q 447 1088 414 1108 m 574 45 q 635 58 604 45 q 666 92 666 71 q 632 183 666 95 l 591 282 q 582 288 586 288 q 452 289 556 289 q 315 288 362 289 q 305 281 309 288 q 260 178 305 281 q 233 95 233 117 q 258 61 233 73 q 300 47 282 49 q 332 45 319 45 q 336 23 336 43 q 334 -5 336 3 q 262 1 316 -4 q 175 5 209 5 q 94 1 141 5 q 20 -5 46 -4 q 15 15 15 0 q 18 43 15 43 q 72 58 34 43 q 119 87 110 72 q 142 127 130 103 q 160 165 153 151 l 167 182 l 467 871 q 517 906 481 906 q 549 888 537 906 l 827 201 q 872 90 853 138 q 917 56 880 68 q 972 45 954 45 q 978 22 978 45 q 975 -5 978 -1 q 892 0 970 -5 q 779 5 814 5 q 574 -5 769 5 q 568 22 568 0 q 574 45 568 45 m 351 374 q 452 370 392 370 q 548 373 506 370 l 552 380 l 454 623 l 349 380 q 351 374 349 374 z "},"":{"ha":659,"x_min":38,"x_max":625,"o":"m 307 773 q 368 794 339 773 q 408 852 397 815 q 414 856 411 856 q 437 844 420 856 q 454 826 454 833 q 453 817 454 819 q 398 726 437 761 q 307 692 359 692 q 208 727 252 692 q 149 817 164 762 q 148 826 148 819 q 165 844 148 833 q 189 856 182 856 q 194 852 191 856 q 239 794 205 815 q 307 773 273 773 m 286 88 q 341 105 321 88 q 361 146 361 122 l 361 283 q 334 275 358 282 q 304 264 311 267 q 278 254 297 262 q 252 241 259 247 q 233 225 244 235 q 218 205 222 216 q 214 180 214 194 q 235 110 214 132 q 286 88 256 88 m 340 609 q 486 557 435 609 q 537 368 537 505 l 537 148 q 570 102 537 102 q 616 119 593 102 q 625 99 625 114 q 616 49 625 65 q 554 12 597 31 q 473 -8 511 -8 q 411 12 441 -8 q 372 57 381 31 q 361 50 370 57 q 336 33 351 42 q 302 14 321 23 q 255 -3 282 4 q 201 -9 228 -9 q 82 32 126 -9 q 38 136 38 73 q 55 203 38 172 q 94 253 72 233 q 155 290 117 273 q 220 315 193 307 q 290 336 247 324 q 349 353 332 347 q 361 373 361 357 l 361 422 q 293 533 361 533 q 214 442 214 533 q 190 398 214 412 q 136 384 165 384 q 50 425 73 384 q 142 551 50 494 q 340 609 233 609 z "},"":{"ha":978,"x_min":8,"x_max":971,"o":"m 464 621 l 358 380 q 361 374 358 374 q 460 370 401 370 q 557 373 515 370 q 562 380 557 373 l 464 621 m 434 795 q 444 818 435 798 q 458 848 453 838 q 473 874 464 859 q 490 897 481 890 q 507 905 499 905 q 528 894 521 905 l 827 191 q 869 90 848 140 q 913 56 879 68 q 966 45 948 45 q 971 22 971 45 q 968 -5 971 -1 q 903 -1 948 -4 q 845 3 857 1 q 718 -149 718 -73 q 734 -181 718 -170 q 773 -193 750 -193 q 832 -177 799 -193 q 882 -148 865 -161 q 888 -172 888 -148 q 880 -202 888 -191 q 810 -264 857 -232 q 713 -296 764 -296 q 639 -267 674 -296 q 604 -190 604 -239 q 663 -75 604 -136 q 785 4 722 -15 q 582 -5 753 4 q 576 22 576 0 q 582 45 576 45 q 630 55 597 45 q 670 75 663 65 q 674 90 674 81 q 642 182 674 98 l 602 282 q 593 288 597 288 q 460 289 567 289 q 323 288 370 289 q 313 281 317 288 l 269 178 q 241 95 241 117 q 259 66 241 76 q 306 52 273 60 q 349 45 339 45 q 353 23 353 43 q 350 -5 353 3 q 273 1 336 -4 q 174 5 209 5 q 88 1 138 5 q 14 -5 38 -4 q 8 15 8 0 q 11 43 8 43 q 72 62 27 43 q 126 96 117 80 l 165 182 l 434 795 z "},"":{"ha":659,"x_min":28,"x_max":616,"o":"m 277 88 q 332 105 312 88 q 351 146 351 122 l 351 283 q 325 275 349 282 q 294 264 301 267 q 269 254 288 262 q 242 241 250 247 q 224 225 235 235 q 209 205 213 216 q 205 180 205 194 q 226 110 205 132 q 277 88 247 88 m 528 148 q 560 102 528 102 q 579 105 570 102 q 594 113 589 109 l 601 117 q 610 111 604 117 q 616 103 616 106 q 606 49 616 65 l 544 14 q 437 -64 488 -18 q 387 -149 387 -110 q 403 -181 387 -170 q 442 -193 419 -193 q 501 -177 468 -193 q 551 -148 534 -161 q 557 -172 557 -148 q 549 -202 557 -191 q 479 -264 526 -232 q 382 -296 433 -296 q 308 -267 343 -296 q 273 -190 273 -239 q 324 -83 273 -142 q 427 0 376 -24 q 362 57 374 14 q 351 50 361 57 q 327 33 342 42 q 292 14 312 23 q 245 -3 273 4 q 191 -9 218 -9 q 73 32 117 -9 q 28 136 28 73 q 45 203 28 172 q 85 253 62 233 q 145 290 107 273 q 210 315 183 307 q 280 336 237 324 q 339 353 323 347 q 351 373 351 357 l 351 422 q 283 533 351 533 q 205 442 205 533 q 180 398 205 412 q 126 384 156 384 q 41 425 64 384 q 132 551 41 494 q 331 609 224 609 q 477 557 426 609 q 528 368 528 505 l 528 148 z "},"":{"ha":865,"x_min":34,"x_max":829,"o":"m 427 1015 q 486 1081 427 1023 q 590 1173 545 1139 q 614 1179 601 1179 q 665 1166 639 1179 q 690 1127 690 1153 q 581 1041 690 1095 q 446 987 471 987 q 433 998 439 987 q 427 1015 427 1008 m 829 244 q 808 138 829 225 q 773 46 787 52 q 468 -9 621 -9 q 161 123 289 -9 q 34 437 34 255 q 162 767 34 629 q 481 905 290 905 q 792 865 629 905 q 809 774 799 864 q 819 665 819 685 q 783 644 819 644 q 761 648 781 644 q 739 700 754 673 q 692 758 723 727 q 608 809 662 789 q 488 829 555 829 q 245 465 245 829 q 320 180 245 296 q 532 64 395 64 q 705 137 632 64 q 737 185 723 155 q 759 237 751 216 q 768 258 766 258 q 829 244 823 258 z "},"":{"ha":627,"x_min":35,"x_max":579,"o":"m 445 916 q 492 902 476 916 q 507 876 507 888 q 410 767 507 842 q 296 692 313 692 q 281 701 289 692 q 273 716 273 709 q 293 753 273 720 q 345 831 313 787 q 399 903 376 876 q 445 916 411 916 m 359 606 q 469 589 418 606 q 540 555 519 571 q 571 526 560 540 q 498 401 571 401 q 418 469 445 401 q 387 516 406 500 q 336 532 369 532 q 228 328 228 532 q 381 99 228 99 q 467 112 426 99 q 524 135 507 125 q 567 165 540 145 q 579 140 579 160 q 574 113 579 123 q 493 35 560 79 q 342 -9 426 -9 q 123 82 212 -9 q 35 307 35 174 q 130 519 35 431 q 359 606 224 606 z "},"":{"ha":865,"x_min":34,"x_max":829,"o":"m 644 987 q 575 1018 633 987 q 481 1072 517 1048 q 388 1018 446 1048 q 319 987 330 987 q 305 1013 305 987 q 404 1101 343 1042 q 463 1166 433 1128 q 480 1179 473 1179 q 500 1166 488 1179 q 521 1143 503 1164 q 555 1107 538 1123 q 658 1013 620 1042 q 644 987 658 987 m 829 244 q 808 138 829 225 q 773 46 787 52 q 468 -9 621 -9 q 161 123 289 -9 q 34 437 34 255 q 162 767 34 629 q 481 905 290 905 q 792 865 629 905 q 809 774 799 864 q 819 665 819 685 q 783 644 819 644 q 761 648 781 644 q 739 700 754 673 q 692 758 723 727 q 608 809 662 789 q 488 829 555 829 q 245 465 245 829 q 320 180 245 296 q 532 64 395 64 q 705 137 632 64 q 737 185 723 155 q 759 237 751 216 q 768 258 766 258 q 829 244 823 258 z "},"":{"ha":627,"x_min":35,"x_max":579,"o":"m 471 692 q 407 728 460 692 q 323 792 354 765 q 239 728 292 765 q 175 692 186 692 q 163 723 163 692 q 252 829 195 755 q 305 906 281 865 q 323 920 313 920 q 339 906 328 920 q 359 877 343 901 q 389 836 374 853 q 483 723 449 757 q 471 692 483 692 m 359 606 q 469 589 418 606 q 540 555 519 571 q 571 526 560 540 q 498 401 571 401 q 418 469 445 401 q 387 516 406 500 q 336 532 369 532 q 228 328 228 532 q 381 99 228 99 q 467 112 426 99 q 524 135 507 125 q 567 165 540 145 q 579 140 579 160 q 574 113 579 123 q 493 35 560 79 q 342 -9 426 -9 q 123 82 212 -9 q 35 307 35 174 q 130 519 35 431 q 359 606 224 606 z "},"":{"ha":865,"x_min":34,"x_max":829,"o":"m 409 1017 q 394 1031 409 1017 q 380 1088 380 1046 q 409 1159 380 1130 q 480 1188 438 1188 q 551 1159 522 1188 q 581 1088 581 1130 q 551 1017 581 1046 q 480 987 522 987 q 409 1017 438 987 m 829 244 q 808 138 829 225 q 773 46 787 52 q 468 -9 621 -9 q 161 123 289 -9 q 34 437 34 255 q 162 767 34 629 q 481 905 290 905 q 792 865 629 905 q 809 774 799 864 q 819 665 819 685 q 783 644 819 644 q 761 648 781 644 q 739 700 754 673 q 692 758 723 727 q 608 809 662 789 q 488 829 555 829 q 245 465 245 829 q 320 180 245 296 q 532 64 395 64 q 705 137 632 64 q 737 185 723 155 q 759 237 751 216 q 768 258 766 258 q 829 244 823 258 z "},"":{"ha":627,"x_min":35,"x_max":579,"o":"m 262 764 q 248 779 262 764 q 233 836 233 793 q 262 907 233 878 q 334 936 292 936 q 405 907 376 936 q 434 836 434 878 q 405 764 434 793 q 334 735 376 735 q 262 764 292 735 m 359 606 q 469 589 418 606 q 540 555 519 571 q 571 526 560 540 q 498 401 571 401 q 418 469 445 401 q 387 516 406 500 q 336 532 369 532 q 228 328 228 532 q 381 99 228 99 q 467 112 426 99 q 524 135 507 125 q 567 165 540 145 q 579 140 579 160 q 574 113 579 123 q 493 35 560 79 q 342 -9 426 -9 q 123 82 212 -9 q 35 307 35 174 q 130 519 35 431 q 359 606 224 606 z "},"":{"ha":865,"x_min":34,"x_max":829,"o":"m 481 1095 q 575 1148 517 1118 q 644 1179 633 1179 q 658 1153 658 1179 q 555 1058 625 1128 q 500 1000 549 1053 q 480 987 488 987 q 463 1000 473 987 q 404 1063 438 1029 q 305 1153 338 1128 q 319 1179 305 1179 q 388 1148 330 1179 q 481 1095 446 1118 m 829 244 q 808 138 829 225 q 773 46 787 52 q 468 -9 621 -9 q 161 123 289 -9 q 34 437 34 255 q 162 767 34 629 q 481 905 290 905 q 792 865 629 905 q 809 774 799 864 q 819 665 819 685 q 783 644 819 644 q 761 648 781 644 q 739 700 754 673 q 692 758 723 727 q 608 809 662 789 q 488 829 555 829 q 245 465 245 829 q 320 180 245 296 q 532 64 395 64 q 705 137 632 64 q 737 185 723 155 q 759 237 751 216 q 768 258 766 258 q 829 244 823 258 z "},"":{"ha":627,"x_min":35,"x_max":579,"o":"m 326 819 q 410 883 357 846 q 473 920 463 920 q 486 888 486 920 q 392 776 452 854 q 361 734 377 758 q 342 705 346 711 q 326 692 331 692 q 308 705 316 692 q 255 783 283 746 q 165 888 198 856 q 178 920 165 920 q 241 883 189 920 q 326 819 294 846 m 359 606 q 469 589 418 606 q 540 555 519 571 q 571 526 560 540 q 498 401 571 401 q 418 469 445 401 q 387 516 406 500 q 336 532 369 532 q 228 328 228 532 q 381 99 228 99 q 467 112 426 99 q 524 135 507 125 q 567 165 540 145 q 579 140 579 160 q 574 113 579 123 q 493 35 560 79 q 342 -9 426 -9 q 123 82 212 -9 q 35 307 35 174 q 130 519 35 431 q 359 606 224 606 z "},"":{"ha":982,"x_min":35,"x_max":945,"o":"m 444 1095 q 537 1148 479 1118 q 606 1179 595 1179 q 620 1153 620 1179 q 517 1058 587 1128 q 463 1000 511 1053 q 442 987 450 987 q 425 1000 435 987 q 366 1063 400 1029 q 267 1153 300 1128 q 281 1179 267 1179 q 350 1148 292 1179 q 444 1095 408 1118 m 239 894 q 475 894 239 894 q 821 763 696 894 q 945 456 945 632 q 819 128 945 260 q 473 -4 693 -4 q 368 -1 448 -4 q 240 3 288 3 l 42 -5 q 37 18 37 0 q 42 45 37 45 q 93 54 58 45 q 132 75 127 64 q 140 194 140 106 l 140 707 q 132 812 140 781 q 92 837 127 823 q 41 850 56 850 q 35 875 35 850 q 39 901 35 897 q 239 894 148 894 m 330 711 l 330 184 q 342 90 330 96 q 495 72 372 72 q 671 170 609 72 q 734 461 734 267 q 668 714 734 610 q 486 818 602 818 l 479 818 q 347 796 363 818 q 330 711 330 772 z "},"":{"ha":751,"x_min":24,"x_max":822,"o":"m 682 876 q 693 914 682 899 q 725 935 704 929 q 762 943 746 941 q 803 944 779 944 q 822 848 822 910 q 784 725 822 787 q 703 636 746 663 l 700 636 q 680 649 693 636 q 667 667 667 662 q 684 684 667 669 q 715 724 700 700 q 731 769 731 747 q 707 814 731 787 q 682 876 682 842 m 342 533 q 249 482 278 533 q 220 320 220 431 q 342 75 220 75 q 418 101 388 75 q 449 165 449 127 l 449 412 q 446 444 449 429 q 434 481 444 458 q 401 519 425 505 q 342 533 377 533 m 350 606 q 445 594 406 606 q 449 613 449 594 l 449 720 q 441 818 449 777 q 370 840 434 840 l 358 840 q 350 867 350 840 q 358 890 350 890 q 443 901 400 894 q 515 914 486 907 q 569 928 545 921 q 606 939 593 935 l 620 943 l 623 943 q 633 935 628 943 q 640 920 639 926 q 625 783 625 859 l 625 199 q 633 102 625 141 q 648 87 636 92 q 674 80 661 81 q 700 79 688 79 l 713 77 q 718 61 718 76 q 709 27 718 27 q 656 22 689 26 q 589 13 623 18 q 526 3 556 8 q 477 -5 496 -1 l 457 -8 q 449 15 449 -8 l 449 43 q 448 50 449 49 q 444 49 446 52 q 307 -8 387 -8 q 111 74 197 -8 q 24 288 24 156 q 117 515 24 423 q 350 606 210 606 z "},"":{"ha":958,"x_min":15,"x_max":922,"o":"m 52 479 l 519 479 q 528 460 528 479 q 519 416 528 434 l 50 416 q 43 437 43 416 q 52 479 43 467 m 218 894 l 454 894 q 713 829 604 894 q 872 666 822 764 q 922 456 922 568 q 798 127 922 259 q 453 -4 673 -4 q 348 -1 427 -4 q 220 3 269 3 l 22 -5 q 16 18 16 0 q 22 45 16 45 q 73 54 38 45 q 111 75 107 64 q 119 194 119 106 l 119 707 q 111 812 119 781 q 71 837 107 823 q 20 850 35 850 q 15 875 15 850 q 19 901 15 897 q 218 894 129 894 m 309 711 l 309 184 q 321 90 309 96 q 475 72 351 72 q 653 170 590 72 q 716 461 716 267 q 649 714 716 610 q 465 818 582 818 l 458 818 q 327 796 343 818 q 309 711 309 772 z "},"":{"ha":779,"x_min":64,"x_max":747,"o":"m 369 537 q 296 479 335 537 q 256 331 256 422 q 290 156 256 222 q 377 90 323 90 q 479 195 479 90 l 479 438 q 460 496 479 473 q 369 537 427 537 m 366 612 q 473 587 425 613 q 479 613 479 587 l 479 684 q 473 689 479 689 l 274 689 q 266 703 266 689 q 277 774 266 738 q 280 780 278 779 q 285 781 282 781 l 286 781 l 471 781 q 475 787 475 781 q 471 818 475 798 q 400 840 464 840 l 388 840 q 380 867 380 840 q 388 890 380 890 q 473 901 430 894 q 545 914 515 907 q 599 928 575 921 q 636 939 623 935 l 650 943 l 652 943 q 663 935 658 943 q 670 920 669 926 q 655 814 658 880 l 655 788 q 662 781 655 781 l 736 781 q 747 772 747 781 q 734 697 747 747 q 730 691 732 693 q 727 689 728 689 l 724 689 l 662 689 q 655 682 655 689 l 655 199 q 663 102 655 141 q 678 87 666 92 q 704 80 690 81 q 730 79 718 79 l 743 77 q 747 61 747 76 q 739 27 747 27 q 686 22 719 26 q 619 13 652 18 q 556 3 586 8 q 507 -5 526 -1 l 487 -8 q 479 15 479 -8 l 479 49 q 477 56 479 54 q 473 54 476 57 q 444 26 453 34 q 404 5 435 18 q 336 -8 373 -8 q 145 69 227 -8 q 64 278 64 146 q 150 513 64 415 q 366 612 236 610 z "},"":{"ha":811,"x_min":35,"x_max":777,"o":"m 172 1002 q 178 1051 174 1032 q 186 1076 182 1070 q 193 1081 190 1081 l 582 1081 q 590 1067 590 1081 q 584 1018 589 1038 q 575 993 579 998 l 571 987 l 180 987 q 174 990 180 987 q 172 1002 172 994 m 239 894 q 449 897 298 894 q 677 901 600 901 q 716 700 678 887 q 685 693 709 693 q 666 703 670 693 q 585 791 640 754 q 476 827 529 827 l 425 827 q 336 810 339 827 q 330 704 330 777 l 330 495 q 388 487 330 487 l 460 487 q 552 492 544 487 q 563 532 559 498 q 571 571 566 552 q 591 581 572 581 q 621 574 614 581 l 621 317 q 593 312 616 312 q 571 323 575 312 q 562 355 566 342 q 555 376 557 369 q 549 388 552 382 q 544 395 545 393 q 538 398 543 396 q 533 401 534 400 q 427 412 515 412 q 330 400 330 412 l 330 191 q 340 95 330 126 q 433 73 347 73 l 468 73 q 620 109 552 73 q 672 155 643 121 q 718 231 701 189 q 736 239 719 239 q 777 231 769 239 q 704 -3 711 43 q 484 0 635 -3 q 240 3 334 3 l 42 -5 q 37 18 37 0 q 42 45 37 45 q 93 54 58 45 q 132 75 127 64 q 140 194 140 106 l 140 707 q 132 812 140 781 q 92 837 127 823 q 41 850 56 850 q 35 875 35 850 q 39 901 35 897 q 239 894 148 894 z "},"":{"ha":627,"x_min":35,"x_max":600,"o":"m 142 707 q 148 755 144 736 q 156 780 152 774 q 163 785 160 785 l 499 785 q 507 772 507 785 q 495 703 506 723 l 488 692 l 151 692 q 144 694 151 692 q 142 707 142 699 m 323 532 q 245 481 270 532 q 221 381 221 430 q 231 373 221 373 l 403 373 q 422 399 422 373 q 394 491 422 450 q 323 532 366 532 m 330 606 q 526 522 452 606 q 600 349 600 437 q 587 308 600 317 q 536 298 574 298 l 229 298 q 221 289 221 298 q 262 157 221 216 q 381 99 304 99 q 467 112 426 99 q 524 135 507 125 q 567 165 540 145 q 579 140 579 160 q 574 113 579 123 q 492 35 560 80 q 340 -9 425 -9 q 125 81 216 -9 q 35 300 35 172 q 117 518 35 430 q 330 606 198 606 z "},"":{"ha":811,"x_min":35,"x_max":777,"o":"m 328 1088 q 344 1079 328 1088 q 389 1069 361 1069 q 451 1088 418 1069 q 502 1131 484 1108 q 507 1134 505 1135 q 527 1116 514 1131 q 538 1095 540 1101 q 537 1090 537 1093 q 536 1085 537 1086 q 389 987 477 987 q 243 1085 301 987 q 241 1090 241 1086 q 240 1095 241 1093 q 252 1116 239 1101 q 271 1134 264 1131 q 277 1131 274 1135 q 328 1088 294 1108 m 239 894 q 449 897 298 894 q 677 901 600 901 q 716 700 678 887 q 685 693 709 693 q 666 703 670 693 q 585 791 640 754 q 476 827 529 827 l 425 827 q 336 810 339 827 q 330 704 330 777 l 330 495 q 388 487 330 487 l 460 487 q 552 492 544 487 q 563 532 559 498 q 571 571 566 552 q 591 581 572 581 q 621 574 614 581 l 621 317 q 593 312 616 312 q 571 323 575 312 q 562 355 566 342 q 555 376 557 369 q 549 388 552 382 q 544 395 545 393 q 538 398 543 396 q 533 401 534 400 q 427 412 515 412 q 330 400 330 412 l 330 191 q 340 95 330 126 q 433 73 347 73 l 468 73 q 620 109 552 73 q 672 155 643 121 q 718 231 701 189 q 736 239 719 239 q 777 231 769 239 q 704 -3 711 43 q 484 0 635 -3 q 240 3 334 3 l 42 -5 q 37 18 37 0 q 42 45 37 45 q 93 54 58 45 q 132 75 127 64 q 140 194 140 106 l 140 707 q 132 812 140 781 q 92 837 127 823 q 41 850 56 850 q 35 875 35 850 q 39 901 35 897 q 239 894 148 894 z "},"":{"ha":627,"x_min":35,"x_max":600,"o":"m 324 773 q 386 794 357 773 q 426 852 415 815 q 431 856 429 856 q 455 844 438 856 q 472 826 472 833 q 471 817 472 819 q 416 726 454 761 q 324 692 377 692 q 226 727 270 692 q 167 817 182 762 q 165 826 165 819 q 182 844 165 833 q 206 856 199 856 q 212 852 209 856 q 256 794 222 815 q 324 773 290 773 m 323 532 q 245 481 270 532 q 221 381 221 430 q 231 373 221 373 l 403 373 q 422 399 422 373 q 394 491 422 450 q 323 532 366 532 m 330 606 q 526 522 452 606 q 600 349 600 437 q 587 308 600 317 q 536 298 574 298 l 229 298 q 221 289 221 298 q 262 157 221 216 q 381 99 304 99 q 467 112 426 99 q 524 135 507 125 q 567 165 540 145 q 579 140 579 160 q 574 113 579 123 q 492 35 560 80 q 340 -9 425 -9 q 125 81 216 -9 q 35 300 35 172 q 117 518 35 430 q 330 606 198 606 z "},"":{"ha":811,"x_min":35,"x_max":777,"o":"m 309 1017 q 294 1031 309 1017 q 279 1088 279 1046 q 309 1159 279 1130 q 380 1188 338 1188 q 451 1159 422 1188 q 480 1088 480 1130 q 451 1017 480 1046 q 380 987 422 987 q 309 1017 338 987 m 239 894 q 449 897 298 894 q 677 901 600 901 q 716 700 678 887 q 685 693 709 693 q 666 703 670 693 q 585 791 640 754 q 476 827 529 827 l 425 827 q 336 810 339 827 q 330 704 330 777 l 330 495 q 388 487 330 487 l 460 487 q 552 492 544 487 q 563 532 559 498 q 571 571 566 552 q 591 581 572 581 q 621 574 614 581 l 621 317 q 593 312 616 312 q 571 323 575 312 q 562 355 566 342 q 555 376 557 369 q 549 388 552 382 q 544 395 545 393 q 538 398 543 396 q 533 401 534 400 q 427 412 515 412 q 330 400 330 412 l 330 191 q 340 95 330 126 q 433 73 347 73 l 468 73 q 620 109 552 73 q 672 155 643 121 q 718 231 701 189 q 736 239 719 239 q 777 231 769 239 q 704 -3 711 43 q 484 0 635 -3 q 240 3 334 3 l 42 -5 q 37 18 37 0 q 42 45 37 45 q 93 54 58 45 q 132 75 127 64 q 140 194 140 106 l 140 707 q 132 812 140 781 q 92 837 127 823 q 41 850 56 850 q 35 875 35 850 q 39 901 35 897 q 239 894 148 894 z "},"":{"ha":627,"x_min":35,"x_max":600,"o":"m 252 764 q 237 779 252 764 q 222 836 222 793 q 252 907 222 878 q 323 936 281 936 q 394 907 365 936 q 423 836 423 878 q 394 764 423 793 q 323 735 365 735 q 252 764 281 735 m 323 532 q 245 481 270 532 q 221 381 221 430 q 231 373 221 373 l 403 373 q 422 399 422 373 q 394 491 422 450 q 323 532 366 532 m 330 606 q 526 522 452 606 q 600 349 600 437 q 587 308 600 317 q 536 298 574 298 l 229 298 q 221 289 221 298 q 262 157 221 216 q 381 99 304 99 q 467 112 426 99 q 524 135 507 125 q 567 165 540 145 q 579 140 579 160 q 574 113 579 123 q 492 35 560 80 q 340 -9 425 -9 q 125 81 216 -9 q 35 300 35 172 q 117 518 35 430 q 330 606 198 606 z "},"":{"ha":822,"x_min":15,"x_max":757,"o":"m 218 894 q 430 897 279 894 q 656 901 581 901 q 696 700 658 887 q 665 693 689 693 q 646 703 650 693 q 564 791 620 754 q 456 827 509 827 l 404 827 q 316 810 319 827 q 309 704 309 777 l 309 495 q 368 487 309 487 l 439 487 q 532 492 524 487 q 543 532 538 498 q 551 571 545 552 q 571 581 552 581 q 601 574 594 581 l 601 317 q 572 312 595 312 q 551 323 555 312 q 541 355 545 342 q 534 376 537 369 q 528 388 532 382 q 524 395 525 393 q 518 398 522 396 q 513 401 514 400 q 407 412 495 412 q 309 400 309 412 l 309 191 q 320 95 309 126 q 412 73 327 73 l 448 73 q 600 109 532 73 q 652 155 623 121 q 697 231 681 189 q 716 239 700 239 q 757 231 749 239 q 684 -3 690 43 q 566 -58 632 -14 q 499 -149 499 -103 q 515 -181 499 -170 q 555 -193 532 -193 q 614 -177 581 -193 q 663 -148 647 -161 q 670 -172 670 -148 q 662 -202 670 -191 q 592 -264 639 -232 q 495 -296 545 -296 q 420 -267 456 -296 q 385 -190 385 -239 q 439 -79 385 -136 q 560 -1 494 -22 q 220 3 247 3 l 22 -5 q 16 18 16 0 q 22 45 16 45 q 73 54 38 45 q 111 75 107 64 q 119 194 119 106 l 119 707 q 111 812 119 781 q 71 837 107 823 q 20 850 35 850 q 15 875 15 850 q 19 901 15 897 q 218 894 127 894 z "},"":{"ha":585,"x_min":15,"x_max":570,"o":"m 300 533 q 229 483 250 533 q 208 381 208 433 q 217 373 208 373 l 368 373 q 387 399 387 373 q 364 492 387 452 q 300 533 342 533 m 331 609 q 442 583 393 609 q 517 516 491 557 q 557 432 544 475 q 570 349 570 389 q 555 311 570 319 q 498 302 540 304 q 217 298 347 298 q 209 289 209 298 q 210 264 209 274 q 253 149 218 199 q 361 99 288 99 q 446 112 406 99 q 503 135 487 125 q 547 165 519 145 q 559 140 559 160 q 553 113 559 123 q 495 53 540 90 q 379 -60 416 -14 q 342 -149 342 -107 q 358 -181 342 -170 q 397 -193 374 -193 q 456 -177 423 -193 q 506 -148 490 -161 q 513 -172 513 -148 q 505 -202 513 -191 q 435 -264 481 -232 q 338 -296 388 -296 q 263 -267 298 -296 q 228 -190 228 -239 q 274 -88 228 -144 q 366 -5 320 -33 q 313 -11 345 -11 q 98 79 182 -11 q 15 300 15 170 q 106 519 15 429 q 331 609 198 609 z "},"":{"ha":811,"x_min":35,"x_max":777,"o":"m 381 1095 q 475 1148 416 1118 q 544 1179 533 1179 q 557 1153 557 1179 q 454 1058 525 1128 q 400 1000 449 1053 q 380 987 388 987 q 362 1000 373 987 q 304 1063 338 1029 q 205 1153 237 1128 q 218 1179 205 1179 q 288 1148 229 1179 q 381 1095 346 1118 m 239 894 q 449 897 298 894 q 677 901 600 901 q 716 700 678 887 q 685 693 709 693 q 666 703 670 693 q 585 791 640 754 q 476 827 529 827 l 425 827 q 336 810 339 827 q 330 704 330 777 l 330 495 q 388 487 330 487 l 460 487 q 552 492 544 487 q 563 532 559 498 q 571 571 566 552 q 591 581 572 581 q 621 574 614 581 l 621 317 q 593 312 616 312 q 571 323 575 312 q 562 355 566 342 q 555 376 557 369 q 549 388 552 382 q 544 395 545 393 q 538 398 543 396 q 533 401 534 400 q 427 412 515 412 q 330 400 330 412 l 330 191 q 340 95 330 126 q 433 73 347 73 l 468 73 q 620 109 552 73 q 672 155 643 121 q 718 231 701 189 q 736 239 719 239 q 777 231 769 239 q 704 -3 711 43 q 484 0 635 -3 q 240 3 334 3 l 42 -5 q 37 18 37 0 q 42 45 37 45 q 93 54 58 45 q 132 75 127 64 q 140 194 140 106 l 140 707 q 132 812 140 781 q 92 837 127 823 q 41 850 56 850 q 35 875 35 850 q 39 901 35 897 q 239 894 148 894 z "},"":{"ha":627,"x_min":35,"x_max":600,"o":"m 327 819 q 411 883 358 846 q 475 920 464 920 q 487 888 487 920 q 393 776 453 854 q 363 734 378 758 q 343 705 347 711 q 327 692 332 692 q 309 705 317 692 q 256 783 285 746 q 167 888 199 856 q 179 920 167 920 q 243 883 190 920 q 327 819 296 846 m 323 532 q 245 481 270 532 q 221 381 221 430 q 231 373 221 373 l 403 373 q 422 399 422 373 q 394 491 422 450 q 323 532 366 532 m 330 606 q 526 522 452 606 q 600 349 600 437 q 587 308 600 317 q 536 298 574 298 l 229 298 q 221 289 221 298 q 262 157 221 216 q 381 99 304 99 q 467 112 426 99 q 524 135 507 125 q 567 165 540 145 q 579 140 579 160 q 574 113 579 123 q 492 35 560 80 q 340 -9 425 -9 q 125 81 216 -9 q 35 300 35 172 q 117 518 35 430 q 330 606 198 606 z "},"":{"ha":956,"x_min":34,"x_max":921,"o":"m 643 987 q 574 1018 632 987 q 480 1072 515 1048 q 387 1018 445 1048 q 317 987 328 987 q 304 1013 304 987 q 403 1101 342 1042 q 461 1166 431 1128 q 479 1179 472 1179 q 499 1166 487 1179 q 519 1143 502 1164 q 553 1107 537 1123 q 656 1013 618 1042 q 643 987 656 987 m 34 437 q 164 766 34 628 q 480 905 294 905 q 791 865 628 905 q 810 763 798 864 q 822 643 822 662 q 798 632 822 632 q 755 639 769 632 q 734 692 749 665 q 689 753 719 719 q 606 808 659 787 q 487 829 553 829 q 243 468 243 829 q 269 279 243 366 q 363 127 296 191 q 530 64 430 64 q 617 85 590 64 q 632 126 632 98 l 632 212 l 632 221 q 623 326 632 290 q 533 362 612 362 q 527 385 528 362 q 532 412 526 407 q 596 409 556 411 q 669 406 636 407 q 734 404 703 404 q 917 412 754 404 q 921 385 921 400 q 916 361 921 361 q 844 340 884 361 q 822 233 822 330 l 822 155 q 826 118 822 130 q 830 103 830 106 q 802 65 830 80 q 724 28 751 39 q 625 2 696 16 q 465 -12 553 -12 q 160 121 286 -12 q 34 437 34 255 z "},"":{"ha":658,"x_min":31,"x_max":623,"o":"m 445 692 q 381 728 434 692 q 297 792 328 765 q 213 728 266 765 q 149 692 160 692 q 137 723 137 692 q 227 829 170 755 q 279 906 255 865 q 297 920 288 920 q 313 906 302 920 q 333 877 317 901 q 363 836 349 853 q 457 723 423 757 q 445 692 457 692 m 457 -110 q 229 -49 457 -49 q 224 -50 225 -50 q 170 -80 179 -65 q 160 -117 160 -92 q 203 -185 160 -157 q 298 -213 245 -213 q 413 -187 369 -213 q 457 -110 457 -161 m 224 399 q 227 338 224 363 q 236 287 229 313 q 259 247 243 260 q 301 233 275 233 q 342 243 327 233 q 364 275 358 254 q 372 315 370 297 q 374 363 374 334 q 358 494 374 450 q 293 537 342 537 q 253 525 269 537 q 232 488 237 513 q 225 448 227 464 q 224 406 224 433 q 224 399 224 401 m 302 609 q 417 591 351 609 q 522 574 483 574 l 597 574 q 612 549 601 572 q 623 517 623 526 q 614 498 623 498 l 534 498 q 529 494 529 496 q 539 456 529 492 q 549 389 549 420 q 480 233 549 304 q 307 163 411 163 q 214 170 252 163 q 190 151 198 164 q 182 129 182 138 q 195 113 182 119 q 237 104 209 107 q 286 98 264 100 q 346 95 307 96 q 396 94 385 94 q 614 -49 613 83 q 507 -222 616 -148 q 275 -296 399 -296 q 102 -255 172 -296 q 31 -146 31 -214 q 63 -83 31 -117 q 142 -34 95 -49 q 79 14 107 -19 q 50 87 50 47 q 60 121 50 104 q 90 153 69 137 q 120 174 111 168 q 153 193 129 179 q 81 269 114 214 q 49 382 49 324 q 123 551 49 494 q 302 609 197 609 z "},"":{"ha":956,"x_min":34,"x_max":921,"o":"m 418 1088 q 435 1079 418 1088 q 480 1069 452 1069 q 542 1088 509 1069 q 593 1131 575 1108 q 598 1134 595 1135 q 618 1116 605 1131 q 629 1095 631 1101 q 628 1090 628 1093 q 627 1085 628 1086 q 480 987 568 987 q 334 1085 392 987 q 332 1090 332 1086 q 331 1095 332 1093 q 342 1116 330 1101 q 362 1134 355 1131 q 368 1131 365 1135 q 418 1088 385 1108 m 34 437 q 164 766 34 628 q 480 905 294 905 q 791 865 628 905 q 810 763 798 864 q 822 643 822 662 q 798 632 822 632 q 755 639 769 632 q 734 692 749 665 q 689 753 719 719 q 606 808 659 787 q 487 829 553 829 q 243 468 243 829 q 269 279 243 366 q 363 127 296 191 q 530 64 430 64 q 617 85 590 64 q 632 126 632 98 l 632 212 l 632 221 q 623 326 632 290 q 533 362 612 362 q 527 385 528 362 q 532 412 526 407 q 596 409 556 411 q 669 406 636 407 q 734 404 703 404 q 917 412 754 404 q 921 385 921 400 q 916 361 921 361 q 844 340 884 361 q 822 233 822 330 l 822 155 q 826 118 822 130 q 830 103 830 106 q 802 65 830 80 q 724 28 751 39 q 625 2 696 16 q 465 -12 553 -12 q 160 121 286 -12 q 34 437 34 255 z "},"":{"ha":658,"x_min":31,"x_max":623,"o":"m 302 773 q 364 794 335 773 q 404 852 393 815 q 410 856 407 856 q 433 844 416 856 q 450 826 450 833 q 449 817 450 819 q 394 726 433 761 q 302 692 355 692 q 204 727 248 692 q 145 817 160 762 q 144 826 144 819 q 161 844 144 833 q 184 856 178 856 q 190 852 187 856 q 235 794 201 815 q 302 773 269 773 m 457 -110 q 229 -49 457 -49 q 224 -50 225 -50 q 170 -80 179 -65 q 160 -117 160 -92 q 203 -185 160 -157 q 298 -213 245 -213 q 413 -187 369 -213 q 457 -110 457 -161 m 224 399 q 227 338 224 363 q 236 287 229 313 q 259 247 243 260 q 301 233 275 233 q 342 243 327 233 q 364 275 358 254 q 372 315 370 297 q 374 363 374 334 q 358 494 374 450 q 293 537 342 537 q 253 525 269 537 q 232 488 237 513 q 225 448 227 464 q 224 406 224 433 q 224 399 224 401 m 302 609 q 417 591 351 609 q 522 574 483 574 l 597 574 q 612 549 601 572 q 623 517 623 526 q 614 498 623 498 l 534 498 q 529 494 529 496 q 539 456 529 492 q 549 389 549 420 q 480 233 549 304 q 307 163 411 163 q 214 170 252 163 q 190 151 198 164 q 182 129 182 138 q 195 113 182 119 q 237 104 209 107 q 286 98 264 100 q 346 95 307 96 q 396 94 385 94 q 614 -49 613 83 q 507 -222 616 -148 q 275 -296 399 -296 q 102 -255 172 -296 q 31 -146 31 -214 q 63 -83 31 -117 q 142 -34 95 -49 q 79 14 107 -19 q 50 87 50 47 q 60 121 50 104 q 90 153 69 137 q 120 174 111 168 q 153 193 129 179 q 81 269 114 214 q 49 382 49 324 q 123 551 49 494 q 302 609 197 609 z "},"":{"ha":956,"x_min":34,"x_max":921,"o":"m 409 1017 q 394 1031 409 1017 q 380 1088 380 1046 q 409 1159 380 1130 q 480 1188 438 1188 q 551 1159 522 1188 q 581 1088 581 1130 q 551 1017 581 1046 q 480 987 522 987 q 409 1017 438 987 m 34 437 q 164 766 34 628 q 480 905 294 905 q 791 865 628 905 q 810 763 798 864 q 822 643 822 662 q 798 632 822 632 q 755 639 769 632 q 734 692 749 665 q 689 753 719 719 q 606 808 659 787 q 487 829 553 829 q 243 468 243 829 q 269 279 243 366 q 363 127 296 191 q 530 64 430 64 q 617 85 590 64 q 632 126 632 98 l 632 212 l 632 221 q 623 326 632 290 q 533 362 612 362 q 527 385 528 362 q 532 412 526 407 q 596 409 556 411 q 669 406 636 407 q 734 404 703 404 q 917 412 754 404 q 921 385 921 400 q 916 361 921 361 q 844 340 884 361 q 822 233 822 330 l 822 155 q 826 118 822 130 q 830 103 830 106 q 802 65 830 80 q 724 28 751 39 q 625 2 696 16 q 465 -12 553 -12 q 160 121 286 -12 q 34 437 34 255 z "},"":{"ha":658,"x_min":31,"x_max":623,"o":"m 224 764 q 210 779 224 764 q 195 836 195 793 q 224 907 195 878 q 296 936 254 936 q 367 907 338 936 q 396 836 396 878 q 367 764 396 793 q 296 735 338 735 q 224 764 254 735 m 457 -110 q 229 -49 457 -49 q 224 -50 225 -50 q 170 -80 179 -65 q 160 -117 160 -92 q 203 -185 160 -157 q 298 -213 245 -213 q 413 -187 369 -213 q 457 -110 457 -161 m 224 399 q 227 338 224 363 q 236 287 229 313 q 259 247 243 260 q 301 233 275 233 q 342 243 327 233 q 364 275 358 254 q 372 315 370 297 q 374 363 374 334 q 358 494 374 450 q 293 537 342 537 q 253 525 269 537 q 232 488 237 513 q 225 448 227 464 q 224 406 224 433 q 224 399 224 401 m 302 609 q 417 591 351 609 q 522 574 483 574 l 597 574 q 612 549 601 572 q 623 517 623 526 q 614 498 623 498 l 534 498 q 529 494 529 496 q 539 456 529 492 q 549 389 549 420 q 480 233 549 304 q 307 163 411 163 q 214 170 252 163 q 190 151 198 164 q 182 129 182 138 q 195 113 182 119 q 237 104 209 107 q 286 98 264 100 q 346 95 307 96 q 396 94 385 94 q 614 -49 613 83 q 507 -222 616 -148 q 275 -296 399 -296 q 102 -255 172 -296 q 31 -146 31 -214 q 63 -83 31 -117 q 142 -34 95 -49 q 79 14 107 -19 q 50 87 50 47 q 60 121 50 104 q 90 153 69 137 q 120 174 111 168 q 153 193 129 179 q 81 269 114 214 q 49 382 49 324 q 123 551 49 494 q 302 609 197 609 z "},"":{"ha":956,"x_min":34,"x_max":921,"o":"m 397 -126 q 440 -75 397 -92 q 537 -58 483 -58 q 567 -142 567 -85 q 528 -234 567 -191 q 442 -296 488 -277 l 438 -296 q 417 -288 431 -296 q 403 -274 403 -279 q 417 -264 403 -273 q 445 -240 431 -255 q 458 -212 458 -225 q 428 -170 458 -187 q 397 -126 397 -152 m 34 437 q 164 766 34 628 q 480 905 294 905 q 791 865 628 905 q 810 763 798 864 q 822 643 822 662 q 798 632 822 632 q 755 639 769 632 q 734 692 749 665 q 689 753 719 719 q 606 808 659 787 q 487 829 553 829 q 243 468 243 829 q 269 279 243 366 q 363 127 296 191 q 530 64 430 64 q 617 85 590 64 q 632 126 632 98 l 632 212 l 632 221 q 623 326 632 290 q 533 362 612 362 q 527 385 528 362 q 532 412 526 407 q 596 409 556 411 q 669 406 636 407 q 734 404 703 404 q 917 412 754 404 q 921 385 921 400 q 916 361 921 361 q 844 340 884 361 q 822 233 822 330 l 822 155 q 826 118 822 130 q 830 103 830 106 q 802 65 830 80 q 724 28 751 39 q 625 2 696 16 q 465 -12 553 -12 q 160 121 286 -12 q 34 437 34 255 z "},"":{"ha":658,"x_min":31,"x_max":623,"o":"m 404 773 q 361 722 404 739 q 264 705 319 705 q 235 789 235 732 q 274 881 235 838 q 359 943 313 924 l 363 943 q 385 935 370 943 q 399 921 399 926 q 385 911 399 920 q 357 887 372 902 q 343 859 343 872 q 374 817 343 834 q 404 773 404 799 m 457 -110 q 229 -49 457 -49 q 224 -50 225 -50 q 170 -80 179 -65 q 160 -117 160 -92 q 203 -185 160 -157 q 298 -213 245 -213 q 413 -187 369 -213 q 457 -110 457 -161 m 224 399 q 227 338 224 363 q 236 287 229 313 q 259 247 243 260 q 301 233 275 233 q 342 243 327 233 q 364 275 358 254 q 372 315 370 297 q 374 363 374 334 q 358 494 374 450 q 293 537 342 537 q 253 525 269 537 q 232 488 237 513 q 225 448 227 464 q 224 406 224 433 q 224 399 224 401 m 302 609 q 417 591 351 609 q 522 574 483 574 l 597 574 q 612 549 601 572 q 623 517 623 526 q 614 498 623 498 l 534 498 q 529 494 529 496 q 539 456 529 492 q 549 389 549 420 q 480 233 549 304 q 307 163 411 163 q 214 170 252 163 q 190 151 198 164 q 182 129 182 138 q 195 113 182 119 q 237 104 209 107 q 286 98 264 100 q 346 95 307 96 q 396 94 385 94 q 614 -49 613 83 q 507 -222 616 -148 q 275 -296 399 -296 q 102 -255 172 -296 q 31 -146 31 -214 q 63 -83 31 -117 q 142 -34 95 -49 q 79 14 107 -19 q 50 87 50 47 q 60 121 50 104 q 90 153 69 137 q 120 174 111 168 q 153 193 129 179 q 81 269 114 214 q 49 382 49 324 q 123 551 49 494 q 302 609 197 609 z "},"":{"ha":986,"x_min":35,"x_max":948,"o":"m 655 987 q 586 1018 644 987 q 492 1072 528 1048 q 399 1018 457 1048 q 330 987 340 987 q 316 1013 316 987 q 415 1101 354 1042 q 473 1166 444 1128 q 491 1179 484 1179 q 511 1166 499 1179 q 532 1143 514 1164 q 566 1107 549 1123 q 669 1013 631 1042 q 655 987 669 987 m 655 187 l 655 414 q 652 419 655 414 q 494 422 525 422 q 326 418 326 420 l 328 415 l 328 193 q 339 79 328 121 q 376 57 342 69 q 423 45 411 45 q 429 24 429 45 q 426 -5 430 4 q 342 0 419 -5 q 231 5 266 5 q 128 1 195 5 q 41 -5 61 -4 q 35 18 35 0 q 38 45 35 45 q 90 56 54 45 q 129 77 125 66 q 138 187 138 114 l 138 705 q 129 811 138 788 q 91 837 122 826 q 43 848 60 848 q 38 875 38 848 q 41 898 38 895 q 229 890 228 890 q 427 898 264 890 q 431 869 431 891 q 426 848 431 848 q 378 836 414 848 q 339 815 343 825 q 328 700 328 787 l 328 507 l 331 503 q 494 500 464 500 q 652 503 530 500 q 655 509 655 506 l 655 705 q 646 812 655 776 q 608 836 642 823 q 560 848 575 848 q 554 870 555 848 q 559 898 553 892 q 761 890 746 890 q 944 898 781 890 q 948 873 948 886 q 941 848 948 848 q 894 836 929 848 q 856 815 859 825 q 845 700 845 774 l 845 193 q 856 77 845 119 q 893 57 859 68 q 940 46 928 46 q 945 18 945 46 q 941 -5 945 7 q 861 0 929 -5 q 758 5 793 5 q 648 1 722 5 q 556 -5 574 -4 q 551 22 551 0 q 557 45 552 45 q 608 57 572 45 q 647 80 643 69 q 655 187 655 111 z "},"":{"ha":844,"x_min":37,"x_max":799,"o":"m 376 987 q 307 1018 365 987 q 213 1072 248 1048 q 119 1018 178 1048 q 50 987 61 987 q 37 1013 37 987 q 136 1101 75 1042 q 194 1166 164 1128 q 212 1179 205 1179 q 232 1166 220 1179 q 252 1143 235 1164 q 286 1107 270 1123 q 389 1013 351 1042 q 376 987 389 987 m 524 605 q 652 538 602 605 q 701 336 701 472 l 701 202 q 711 79 701 115 q 749 57 713 69 q 796 45 784 45 q 801 22 800 45 q 799 -5 802 0 q 714 1 784 -4 q 613 5 644 5 q 515 1 581 5 q 433 -5 449 -4 q 427 22 427 0 q 433 45 427 45 q 480 57 448 45 q 515 79 513 69 q 525 182 525 119 l 525 304 q 498 447 525 404 q 410 490 471 490 q 315 430 315 490 l 315 202 q 324 79 315 115 q 360 57 327 69 q 404 45 393 45 q 409 22 408 45 q 407 -5 410 0 q 324 1 391 -4 q 227 5 258 5 q 125 1 194 5 q 41 -5 56 -4 q 35 22 35 0 q 41 45 35 45 q 91 57 56 45 q 129 79 126 69 q 138 182 138 119 l 138 720 q 132 818 138 784 q 61 840 125 840 l 49 840 q 41 867 41 840 q 49 890 41 890 q 134 901 91 894 q 206 914 176 907 q 260 928 236 921 q 297 939 283 935 l 311 943 l 313 943 q 324 935 319 943 q 331 920 330 926 q 315 783 315 859 l 315 530 q 320 521 315 521 q 327 526 321 521 q 411 583 357 560 q 524 605 465 605 z "},"":{"ha":986,"x_min":35,"x_max":948,"o":"m 229 890 q 427 898 264 890 q 431 869 431 891 q 426 848 431 848 q 378 836 414 848 q 339 815 343 825 q 330 726 332 798 q 491 724 427 724 l 655 726 q 646 812 654 783 q 608 836 642 823 q 560 848 575 848 q 554 870 555 848 q 559 898 553 892 q 761 890 746 890 q 944 898 781 890 q 948 873 948 886 q 941 848 948 848 q 894 836 929 848 q 856 815 859 825 q 845 726 846 779 l 929 726 q 937 707 937 726 q 929 663 937 681 l 845 663 l 845 193 q 856 77 845 119 q 893 57 859 68 q 940 46 928 46 q 945 18 945 46 q 941 -5 945 7 q 861 0 929 -5 q 758 5 793 5 q 648 1 722 5 q 556 -5 574 -4 q 551 22 551 0 q 557 45 552 45 q 608 57 572 45 q 647 80 643 69 q 655 187 655 111 l 655 414 l 652 419 q 494 422 525 422 q 326 418 326 420 l 328 415 l 328 193 q 339 79 328 121 q 376 57 342 69 q 423 45 411 45 q 429 24 429 45 q 426 -5 430 4 q 342 0 419 -5 q 231 5 266 5 q 128 1 195 5 q 41 -5 61 -4 q 35 18 35 0 q 38 45 35 45 q 90 56 54 45 q 129 77 125 66 q 138 187 138 114 l 138 663 l 57 663 q 50 684 50 663 q 58 726 50 713 l 138 726 q 129 811 136 795 q 91 837 122 826 q 43 848 60 848 q 38 875 38 848 q 41 898 38 895 q 229 890 228 890 m 492 665 l 328 663 l 328 507 l 331 503 q 494 500 464 500 q 652 503 530 500 q 655 509 655 506 l 655 663 q 492 665 556 665 z "},"":{"ha":800,"x_min":35,"x_max":802,"o":"m 66 768 l 499 768 q 507 749 507 768 q 499 705 507 724 l 65 705 q 58 726 58 705 q 66 768 58 755 m 524 605 q 652 538 602 605 q 701 336 701 472 l 701 202 q 711 79 701 115 q 749 57 713 69 q 796 45 784 45 q 801 22 800 45 q 799 -5 802 0 q 714 1 784 -4 q 613 5 644 5 q 515 1 581 5 q 433 -5 449 -4 q 427 22 427 0 q 433 45 427 45 q 480 57 448 45 q 515 79 513 69 q 525 182 525 119 l 525 304 q 498 447 525 404 q 410 490 471 490 q 315 430 315 490 l 315 202 q 324 79 315 115 q 360 57 327 69 q 404 45 393 45 q 409 22 408 45 q 407 -5 410 0 q 324 1 391 -4 q 227 5 258 5 q 125 1 194 5 q 41 -5 56 -4 q 35 22 35 0 q 41 45 35 45 q 91 57 56 45 q 129 79 126 69 q 138 182 138 119 l 138 720 q 132 818 138 784 q 61 840 125 840 l 49 840 q 41 867 41 840 q 49 890 41 890 q 134 901 91 894 q 206 914 176 907 q 260 928 236 921 q 297 939 283 935 l 311 943 l 313 943 q 324 935 319 943 q 331 920 330 926 q 315 783 315 859 l 315 530 q 320 521 315 521 q 327 526 321 521 q 411 583 357 560 q 524 605 465 605 z "},"":{"ha":469,"x_min":-22,"x_max":491,"o":"m -11 1002 q -22 1032 -22 1002 q 3 1100 -22 1065 q 122 1169 54 1169 q 252 1123 174 1169 q 382 1077 331 1077 q 441 1116 408 1077 q 480 1154 473 1154 q 491 1124 491 1154 q 467 1055 491 1090 q 350 987 419 987 q 220 1034 298 987 q 90 1080 141 1080 q 30 1041 65 1080 q -11 1002 -5 1002 m 138 708 q 127 814 138 795 q 90 836 121 825 q 43 848 58 848 q 38 871 38 848 q 41 898 38 895 q 106 893 61 897 q 173 889 151 890 q 237 890 195 888 q 427 898 264 890 q 431 873 431 886 q 426 848 431 848 q 377 836 414 848 q 338 815 340 825 q 331 770 334 799 q 328 720 328 741 l 328 700 l 328 198 q 339 79 328 121 q 376 57 342 69 q 423 45 411 45 q 429 19 429 45 q 426 -5 429 3 q 345 0 416 -5 q 237 5 273 5 q 130 1 201 5 q 41 -5 60 -4 q 35 16 35 0 q 39 45 35 45 q 90 56 54 45 q 129 79 125 68 q 138 187 138 115 l 138 708 z "},"":{"ha":444,"x_min":4,"x_max":426,"o":"m 14 704 q 4 731 4 704 q 26 791 4 754 q 122 853 69 853 q 229 812 164 853 q 336 770 294 770 q 385 805 358 770 q 418 840 412 840 q 426 812 426 840 q 406 751 426 787 q 311 692 366 692 q 203 732 269 692 q 95 773 138 773 q 47 739 76 773 q 14 704 19 704 m 309 198 q 320 75 309 118 q 354 53 323 65 q 396 41 385 41 q 401 20 400 41 q 399 -5 401 0 q 317 1 382 -4 q 221 5 252 5 q 125 1 189 5 q 43 -5 61 -4 q 38 20 38 0 q 43 41 38 41 q 90 52 58 41 q 123 75 121 64 q 133 178 133 115 l 133 376 q 109 477 133 452 q 80 495 99 488 q 47 505 61 502 q 34 509 34 507 q 41 548 34 548 q 159 566 66 548 q 289 597 251 585 q 297 600 290 597 l 304 601 q 317 592 311 601 q 324 578 324 583 q 309 442 309 458 l 309 198 z "},"":{"ha":469,"x_min":26,"x_max":444,"o":"m 26 1002 q 31 1051 27 1032 q 39 1076 35 1070 q 46 1081 43 1081 l 435 1081 q 444 1067 444 1081 q 437 1018 442 1038 q 429 993 433 998 l 425 987 l 34 987 q 27 990 34 987 q 26 1002 26 994 m 138 708 q 127 814 138 795 q 90 836 121 825 q 43 848 58 848 q 38 871 38 848 q 41 898 38 895 q 106 893 61 897 q 173 889 151 890 q 237 890 195 888 q 427 898 264 890 q 431 873 431 886 q 426 848 431 848 q 377 836 414 848 q 338 815 340 825 q 331 770 334 799 q 328 720 328 741 l 328 700 l 328 198 q 339 79 328 121 q 376 57 342 69 q 423 45 411 45 q 429 19 429 45 q 426 -5 429 3 q 345 0 416 -5 q 237 5 273 5 q 130 1 201 5 q 41 -5 60 -4 q 35 16 35 0 q 39 45 35 45 q 90 56 54 45 q 129 79 125 68 q 138 187 138 115 l 138 708 z "},"":{"ha":444,"x_min":34,"x_max":404,"o":"m 39 707 q 45 755 41 736 q 53 780 49 774 q 60 785 57 785 l 396 785 q 404 772 404 785 q 392 703 403 723 l 385 692 l 47 692 q 41 694 47 692 q 39 707 39 699 m 309 198 q 320 75 309 118 q 354 53 323 65 q 396 41 385 41 q 401 20 400 41 q 399 -5 401 0 q 317 1 382 -4 q 221 5 252 5 q 125 1 189 5 q 43 -5 61 -4 q 38 20 38 0 q 43 41 38 41 q 90 52 58 41 q 123 75 121 64 q 133 178 133 115 l 133 376 q 109 477 133 452 q 80 495 99 488 q 47 505 61 502 q 34 509 34 507 q 41 548 34 548 q 159 566 66 548 q 289 597 251 585 q 297 600 290 597 l 304 601 q 317 592 311 601 q 324 578 324 583 q 309 442 309 458 l 309 198 z "},"":{"ha":469,"x_min":35,"x_max":431,"o":"m 181 1088 q 198 1079 181 1088 q 243 1069 214 1069 q 304 1088 271 1069 q 355 1131 338 1108 q 361 1134 358 1135 q 380 1116 368 1131 q 392 1095 393 1101 q 391 1090 391 1093 q 389 1085 391 1086 q 243 987 331 987 q 96 1085 155 987 q 95 1090 95 1086 q 94 1095 95 1093 q 105 1116 92 1101 q 125 1134 118 1131 q 130 1131 127 1135 q 181 1088 148 1108 m 138 708 q 127 814 138 795 q 90 836 121 825 q 43 848 58 848 q 38 871 38 848 q 41 898 38 895 q 106 893 61 897 q 173 889 151 890 q 237 890 195 888 q 427 898 264 890 q 431 873 431 886 q 426 848 431 848 q 377 836 414 848 q 338 815 340 825 q 331 770 334 799 q 328 720 328 741 l 328 700 l 328 198 q 339 79 328 121 q 376 57 342 69 q 423 45 411 45 q 429 19 429 45 q 426 -5 429 3 q 345 0 416 -5 q 237 5 273 5 q 130 1 201 5 q 41 -5 60 -4 q 35 16 35 0 q 39 45 35 45 q 90 56 54 45 q 129 79 125 68 q 138 187 138 115 l 138 708 z "},"":{"ha":444,"x_min":34,"x_max":399,"o":"m 227 773 q 288 794 259 773 q 328 852 317 815 q 334 856 331 856 q 357 844 340 856 q 374 826 374 833 q 373 817 374 819 q 318 726 357 761 q 227 692 279 692 q 128 727 172 692 q 69 817 84 762 q 68 826 68 819 q 85 844 68 833 q 109 856 102 856 q 114 852 111 856 q 159 794 125 815 q 227 773 193 773 m 309 198 q 320 75 309 118 q 354 53 323 65 q 396 41 385 41 q 401 20 400 41 q 399 -5 401 0 q 317 1 382 -4 q 221 5 252 5 q 125 1 189 5 q 43 -5 61 -4 q 38 20 38 0 q 43 41 38 41 q 90 52 58 41 q 123 75 121 64 q 133 178 133 115 l 133 376 q 109 477 133 452 q 80 495 99 488 q 47 505 61 502 q 34 509 34 507 q 41 548 34 548 q 159 566 66 548 q 289 597 251 585 q 297 600 290 597 l 304 601 q 317 592 311 601 q 324 578 324 583 q 309 442 309 458 l 309 198 z "},"":{"ha":384,"x_min":-5,"x_max":391,"o":"m 197 890 q 387 898 224 890 q 391 873 391 886 q 385 848 391 848 q 336 836 373 848 q 297 815 300 825 q 290 770 293 799 q 288 720 288 741 l 288 700 l 288 198 q 298 79 288 121 q 336 57 301 69 q 382 45 370 45 q 388 19 388 45 q 385 -5 388 3 q 308 0 332 -3 q 184 -149 184 -75 q 201 -181 184 -170 q 240 -193 217 -193 q 299 -177 266 -193 q 349 -148 332 -161 q 355 -172 355 -148 q 347 -202 355 -191 q 277 -264 324 -232 q 180 -296 231 -296 q 106 -267 141 -296 q 71 -190 71 -239 q 129 -75 71 -136 q 251 4 187 -15 q 197 5 232 5 q 90 1 160 5 q 0 -5 19 -4 q -5 16 -5 0 q -1 45 -5 45 q 49 56 14 45 q 88 79 84 68 q 98 187 98 115 l 98 708 q 87 814 98 795 q 49 836 80 825 q 3 848 18 848 q -3 871 -3 848 q 0 898 -3 895 q 197 890 187 890 z "},"":{"ha":420,"x_min":27,"x_max":407,"o":"m 38 548 q 156 566 64 548 q 286 597 248 585 q 294 600 288 597 l 301 601 q 315 592 308 601 q 321 578 321 583 q 307 442 307 458 l 307 202 q 316 79 307 115 q 354 57 319 69 q 401 45 389 45 q 406 22 406 45 q 404 -5 407 0 q 340 -1 378 -4 q 220 -149 220 -75 q 236 -181 220 -170 q 275 -193 252 -193 q 334 -177 301 -193 q 384 -148 368 -161 q 391 -172 391 -148 q 382 -202 391 -191 q 313 -264 359 -232 q 216 -296 266 -296 q 141 -267 176 -296 q 106 -190 106 -239 q 163 -77 106 -137 q 283 3 221 -18 q 218 5 237 5 q 117 1 186 5 q 33 -5 47 -4 q 27 22 27 0 q 33 45 27 45 q 83 57 47 45 q 121 79 118 69 q 130 182 130 119 l 130 368 q 106 469 130 444 q 77 487 96 480 q 45 496 58 494 q 31 500 31 499 q 38 548 31 548 m 135 907 q 150 921 135 907 q 206 936 164 936 q 277 907 248 936 q 307 836 307 878 q 277 764 307 793 q 206 735 248 735 q 135 764 164 735 q 106 836 106 793 q 135 907 106 878 z "},"":{"ha":469,"x_min":35,"x_max":431,"o":"m 162 1017 q 148 1031 162 1017 q 133 1088 133 1046 q 162 1159 133 1130 q 233 1188 191 1188 q 304 1159 275 1188 q 334 1088 334 1130 q 304 1017 334 1046 q 233 987 275 987 q 162 1017 191 987 m 138 708 q 127 814 138 795 q 90 836 121 825 q 43 848 58 848 q 38 871 38 848 q 41 898 38 895 q 106 893 61 897 q 173 889 151 890 q 237 890 195 888 q 427 898 264 890 q 431 873 431 886 q 426 848 431 848 q 377 836 414 848 q 338 815 340 825 q 331 770 334 799 q 328 720 328 741 l 328 700 l 328 198 q 339 79 328 121 q 376 57 342 69 q 423 45 411 45 q 429 19 429 45 q 426 -5 429 3 q 345 0 416 -5 q 237 5 273 5 q 130 1 201 5 q 41 -5 60 -4 q 35 16 35 0 q 39 45 35 45 q 90 56 54 45 q 129 79 125 68 q 138 187 138 115 l 138 708 z "},"":{"ha":444,"x_min":34,"x_max":401,"o":"m 309 198 q 320 75 309 118 q 354 53 323 65 q 396 41 385 41 q 401 20 400 41 q 399 -5 401 0 q 317 1 382 -4 q 221 5 252 5 q 125 1 189 5 q 43 -5 61 -4 q 38 20 38 0 q 43 41 38 41 q 90 52 58 41 q 123 75 121 64 q 133 178 133 115 l 133 376 q 109 477 133 452 q 80 495 99 488 q 47 505 61 502 q 34 509 34 507 q 41 548 34 548 q 159 566 66 548 q 289 597 251 585 q 297 600 290 597 l 304 601 q 317 592 311 601 q 324 578 324 583 q 309 442 309 458 l 309 198 z "},"":{"ha":909,"x_min":60,"x_max":935,"o":"m 741 890 q 930 898 768 890 q 935 873 935 886 q 929 848 935 848 q 880 836 917 848 q 841 815 844 825 q 831 700 831 779 l 831 194 q 724 -166 831 -37 q 430 -296 616 -296 q 353 -271 384 -296 q 332 -201 332 -239 q 358 -142 332 -167 q 418 -118 384 -118 q 488 -159 450 -118 q 544 -201 525 -201 q 623 -106 604 -201 q 642 183 642 -11 l 642 708 q 631 814 642 795 q 593 836 624 825 q 547 848 562 848 q 541 871 541 848 q 544 898 541 895 q 741 890 731 890 m 163 708 q 152 814 163 795 q 114 836 145 825 q 68 848 83 848 q 62 871 62 848 q 65 898 62 895 q 130 893 85 897 q 197 889 175 890 q 262 890 220 888 q 452 898 289 890 q 456 873 456 886 q 450 848 456 848 q 401 836 438 848 q 362 815 365 825 q 355 770 358 799 q 353 720 353 741 l 353 700 l 353 198 q 363 79 353 121 q 401 57 366 69 q 448 45 435 45 q 453 19 453 45 q 450 -5 453 3 q 369 0 441 -5 q 262 5 297 5 q 155 1 225 5 q 65 -5 84 -4 q 60 16 60 0 q 64 45 60 45 q 114 56 79 45 q 153 79 149 68 q 163 187 163 115 l 163 708 z "},"":{"ha":836,"x_min":39,"x_max":730,"o":"m 537 368 q 513 469 537 444 q 485 487 503 480 q 453 496 467 494 q 439 500 439 499 q 445 548 439 548 q 564 566 471 548 q 694 597 656 585 l 701 600 l 708 601 q 723 592 716 601 q 730 578 730 583 q 724 536 728 564 q 716 486 719 509 q 713 442 713 463 l 713 163 q 648 -138 713 -37 q 534 -243 616 -190 q 419 -296 452 -296 q 397 -263 397 -283 q 399 -250 397 -251 q 416 -241 410 -244 q 449 -209 423 -237 q 491 -143 475 -180 q 522 -32 507 -106 q 537 136 537 42 l 537 368 m 543 764 q 529 779 543 764 q 514 836 514 793 q 543 907 514 878 q 614 936 572 936 q 686 907 656 936 q 715 836 715 878 q 686 764 715 793 q 614 735 656 735 q 543 764 572 735 m 144 764 q 129 779 144 764 q 114 836 114 793 q 144 907 114 878 q 215 936 174 936 q 286 907 256 936 q 315 836 315 878 q 286 764 315 793 q 215 735 256 735 q 144 764 174 735 m 315 202 q 324 79 315 115 q 363 57 327 69 q 410 45 399 45 q 415 22 415 45 q 412 -5 415 0 q 328 1 399 -4 q 227 5 258 5 q 125 1 194 5 q 41 -5 57 -4 q 37 22 37 0 q 41 45 37 45 q 92 57 57 45 q 129 79 126 69 q 138 182 138 119 l 138 368 q 114 469 138 444 q 86 487 104 480 q 54 496 68 494 q 39 500 39 499 q 46 548 39 548 q 165 566 73 548 q 294 597 256 585 q 302 599 296 597 q 309 601 309 601 q 323 592 317 601 q 330 578 330 583 q 324 537 328 567 q 317 485 320 507 q 315 442 315 463 l 315 202 z "},"":{"ha":669,"x_min":31,"x_max":633,"o":"m 600 987 q 530 1018 589 987 q 437 1072 472 1048 q 343 1018 401 1048 q 274 987 285 987 q 260 1013 260 987 q 359 1101 298 1042 q 418 1166 388 1128 q 435 1179 429 1179 q 456 1166 444 1179 q 476 1143 458 1164 q 510 1107 494 1123 q 613 1013 575 1042 q 600 987 613 987 m 439 890 q 629 898 467 890 q 633 873 633 886 q 628 848 633 848 q 579 836 616 848 q 540 815 543 825 q 530 700 530 779 l 530 194 q 422 -166 530 -37 q 129 -296 315 -296 q 52 -271 83 -296 q 31 -201 31 -239 q 57 -142 31 -167 q 117 -118 83 -118 q 186 -159 149 -118 q 243 -201 224 -201 q 321 -106 302 -201 q 340 183 340 -11 l 340 708 q 330 814 340 795 q 292 836 323 825 q 245 848 260 848 q 240 871 240 848 q 243 898 240 895 q 439 890 430 890 z "},"":{"ha":400,"x_min":31,"x_max":420,"o":"m 408 692 q 345 728 397 692 q 260 792 292 765 q 176 728 229 765 q 113 692 123 692 q 100 723 100 692 q 190 829 133 755 q 243 906 218 865 q 260 920 251 920 q 277 906 266 920 q 296 877 281 901 q 327 836 312 853 q 420 723 387 757 q 408 692 420 692 m 171 136 l 171 376 q 146 477 171 452 q 119 495 137 488 q 87 505 100 502 q 73 509 73 507 q 79 548 73 548 q 197 566 104 548 q 328 597 290 585 l 335 600 l 342 601 q 357 592 350 601 q 363 578 363 583 q 357 536 362 564 q 350 486 353 509 q 347 442 347 463 l 347 163 q 282 -138 347 -37 q 168 -243 250 -190 q 53 -296 85 -296 q 31 -263 31 -283 q 33 -250 31 -251 q 50 -241 43 -244 q 83 -209 57 -237 q 125 -143 109 -180 q 156 -32 141 -106 q 171 136 171 42 z "},"":{"ha":1005,"x_min":35,"x_max":963,"o":"m 384 -126 q 427 -75 384 -92 q 524 -58 469 -58 q 553 -142 553 -85 q 514 -234 553 -191 q 429 -296 475 -277 l 425 -296 q 404 -288 418 -296 q 389 -274 389 -279 q 404 -264 389 -273 q 431 -240 418 -255 q 445 -212 445 -225 q 414 -170 445 -187 q 384 -126 384 -152 m 237 890 q 427 898 264 890 q 431 873 431 886 q 426 848 431 848 q 377 836 414 848 q 338 815 340 825 q 328 700 328 779 l 328 486 q 331 477 328 480 q 336 475 334 475 l 338 475 l 347 475 q 407 526 357 475 q 654 795 524 646 q 665 826 665 808 q 635 845 665 840 q 583 850 605 850 q 575 869 578 850 q 575 898 572 888 q 757 890 726 890 q 936 898 773 890 q 938 871 939 892 q 933 850 937 850 l 925 849 q 909 848 917 849 q 890 846 902 848 q 867 842 878 844 q 842 835 856 840 q 818 825 829 830 q 795 812 807 819 q 776 795 784 804 l 543 537 q 541 498 525 517 l 863 79 q 909 53 878 61 q 958 45 941 45 q 963 19 963 45 q 958 -5 963 5 q 871 0 956 -5 q 753 5 787 5 q 560 -5 680 5 q 555 22 555 0 q 560 45 555 45 q 600 53 575 45 q 624 72 624 61 q 382 388 624 115 q 363 392 378 392 q 328 369 328 392 l 328 198 q 339 79 328 121 q 376 57 342 69 q 423 45 411 45 q 429 19 429 45 q 426 -5 429 3 q 345 0 416 -5 q 237 5 273 5 q 130 1 201 5 q 41 -5 60 -4 q 35 16 35 0 q 39 45 35 45 q 90 56 54 45 q 129 79 125 68 q 138 187 138 115 l 138 708 q 127 814 138 795 q 90 836 121 825 q 43 848 58 848 q 38 871 38 848 q 41 898 38 895 q 237 890 228 890 z "},"":{"ha":876,"x_min":41,"x_max":834,"o":"m 338 -126 q 380 -75 338 -92 q 477 -58 423 -58 q 507 -142 507 -85 q 468 -234 507 -191 q 382 -296 429 -277 l 378 -296 q 357 -288 372 -296 q 343 -274 343 -279 q 357 -264 343 -273 q 385 -240 372 -255 q 399 -212 399 -225 q 368 -170 399 -187 q 338 -126 338 -152 m 663 518 q 477 370 567 463 q 579 256 517 328 q 683 138 642 184 q 741 80 724 92 q 787 55 758 65 q 827 45 815 45 q 834 19 834 45 q 831 -4 834 1 q 661 4 669 4 q 557 -1 628 4 q 480 -5 487 -5 q 475 22 475 0 q 480 45 475 45 q 511 50 494 45 q 529 62 529 56 q 528 66 529 65 l 330 293 l 315 289 l 315 202 q 324 79 315 115 q 362 57 327 69 q 410 45 397 45 q 414 22 414 45 q 412 -5 415 0 q 328 1 397 -4 q 227 5 258 5 q 125 1 194 5 q 41 -5 56 -4 q 35 22 35 0 q 41 45 35 45 q 91 57 56 45 q 129 79 126 69 q 138 182 138 119 l 138 720 q 132 818 138 784 q 61 840 125 840 l 49 840 q 41 867 41 840 q 49 890 41 890 q 134 901 91 894 q 206 914 176 907 q 260 928 236 921 q 297 939 283 935 l 311 943 l 313 943 q 324 935 319 943 q 331 920 330 926 q 315 783 315 859 l 315 351 q 361 369 351 361 q 408 409 382 388 q 446 441 433 430 q 474 466 458 453 q 496 486 490 479 q 510 501 503 494 q 519 515 517 509 q 521 526 521 521 q 507 543 521 538 q 477 547 494 547 q 458 549 461 548 q 456 578 456 559 q 461 598 456 597 q 616 597 559 597 q 757 600 696 597 q 763 584 762 597 q 762 560 764 571 q 758 549 761 549 q 663 518 716 549 z "},"":{"ha":825,"x_min":11,"x_max":810,"o":"m 336 369 q 473 477 438 446 q 507 526 507 507 q 494 543 507 538 q 464 547 480 547 q 445 549 448 548 q 442 578 442 559 q 448 598 442 597 q 602 595 545 595 q 699 600 631 595 q 777 604 768 604 q 783 588 783 601 q 783 564 784 575 q 779 552 781 552 q 745 548 762 552 q 650 518 684 537 q 453 370 529 449 q 555 256 492 328 q 659 138 617 184 q 716 80 700 92 q 762 55 734 65 q 803 45 791 45 q 810 19 810 45 q 807 -4 810 1 q 636 4 644 4 q 533 -1 604 4 q 456 -5 463 -5 q 450 22 450 0 q 456 45 450 45 q 487 50 469 45 q 505 62 505 56 q 503 66 505 65 l 305 293 l 290 289 l 290 202 q 300 79 290 115 q 338 57 302 69 q 385 45 373 45 q 390 22 389 45 q 388 -5 391 0 q 303 1 373 -4 q 202 5 233 5 q 100 1 170 5 q 16 -5 31 -4 q 11 22 11 0 q 16 45 11 45 q 66 57 31 45 q 104 79 102 69 q 114 182 114 119 l 114 378 q 107 476 114 442 q 37 498 100 498 l 24 498 q 16 525 16 498 q 24 548 16 548 q 109 559 66 552 q 182 572 152 566 q 235 586 212 579 q 273 597 259 593 l 286 601 l 289 601 q 300 593 294 601 q 307 578 305 585 q 290 441 290 517 l 290 351 q 336 369 313 351 z "},"":{"ha":811,"x_min":35,"x_max":776,"o":"m 130 1015 q 189 1081 130 1023 q 293 1173 248 1139 q 317 1179 304 1179 q 368 1166 342 1179 q 393 1127 393 1153 q 283 1041 393 1095 q 149 987 174 987 q 136 998 142 987 q 130 1015 130 1008 m 237 890 q 427 898 264 890 q 431 873 431 886 q 426 848 431 848 q 377 836 414 848 q 338 815 340 825 q 328 707 328 779 l 328 193 q 339 95 328 126 q 431 73 346 73 l 467 73 q 618 109 551 73 q 671 155 642 121 q 716 231 700 189 q 735 239 719 239 q 776 231 768 239 q 703 -3 709 43 q 461 0 625 -3 q 239 3 297 3 l 41 -5 q 35 18 35 0 q 41 45 35 45 q 92 54 57 45 q 130 75 126 64 q 138 194 138 106 l 138 712 q 127 814 138 795 q 90 836 121 825 q 43 848 58 848 q 38 871 38 848 q 41 898 38 895 q 237 890 228 890 z "},"":{"ha":453,"x_min":41,"x_max":412,"o":"m 132 1015 q 191 1081 132 1023 q 294 1173 250 1139 q 319 1179 305 1179 q 369 1166 343 1179 q 395 1127 395 1153 q 285 1041 395 1095 q 151 987 175 987 q 138 998 144 987 q 132 1015 132 1008 m 138 720 q 132 818 138 784 q 61 840 125 840 l 49 840 q 41 867 41 840 q 49 890 41 890 q 134 901 91 894 q 206 914 176 907 q 260 928 236 921 q 297 939 283 935 l 311 943 l 313 943 q 324 935 319 943 q 331 920 330 926 q 316 783 316 859 l 315 202 q 324 79 315 115 q 362 57 327 69 q 410 45 397 45 q 414 22 414 45 q 412 -5 415 0 q 328 1 397 -4 q 227 5 258 5 q 125 1 194 5 q 41 -5 56 -4 q 35 22 35 0 q 41 45 35 45 q 91 57 56 45 q 129 79 126 69 q 138 182 138 119 l 138 720 z "},"":{"ha":811,"x_min":35,"x_max":776,"o":"m 313 -126 q 356 -75 313 -92 q 453 -58 399 -58 q 483 -142 483 -85 q 444 -234 483 -191 q 358 -296 404 -277 l 354 -296 q 333 -288 347 -296 q 319 -274 319 -279 q 333 -264 319 -273 q 361 -240 347 -255 q 374 -212 374 -225 q 344 -170 374 -187 q 313 -126 313 -152 m 237 890 q 427 898 264 890 q 431 873 431 886 q 426 848 431 848 q 377 836 414 848 q 338 815 340 825 q 328 707 328 779 l 328 193 q 339 95 328 126 q 431 73 346 73 l 467 73 q 618 109 551 73 q 671 155 642 121 q 716 231 700 189 q 735 239 719 239 q 776 231 768 239 q 703 -3 709 43 q 461 0 625 -3 q 239 3 297 3 l 41 -5 q 35 18 35 0 q 41 45 35 45 q 92 54 57 45 q 130 75 126 64 q 138 194 138 106 l 138 712 q 127 814 138 795 q 90 836 121 825 q 43 848 58 848 q 38 871 38 848 q 41 898 38 895 q 237 890 228 890 z "},"":{"ha":453,"x_min":41,"x_max":412,"o":"m 138 -126 q 181 -75 138 -92 q 278 -58 224 -58 q 308 -142 308 -85 q 269 -234 308 -191 q 183 -296 229 -277 l 179 -296 q 158 -288 172 -296 q 144 -274 144 -279 q 158 -264 144 -273 q 186 -240 172 -255 q 199 -212 199 -225 q 169 -170 199 -187 q 138 -126 138 -152 m 138 720 q 132 818 138 784 q 61 840 125 840 l 49 840 q 41 867 41 840 q 49 890 41 890 q 134 901 91 894 q 206 914 176 907 q 260 928 236 921 q 297 939 283 935 l 311 943 l 313 943 q 324 935 319 943 q 331 920 330 926 q 316 783 316 859 l 315 202 q 324 79 315 115 q 362 57 327 69 q 410 45 397 45 q 414 22 414 45 q 412 -5 415 0 q 328 1 397 -4 q 227 5 258 5 q 125 1 194 5 q 41 -5 56 -4 q 35 22 35 0 q 41 45 35 45 q 91 57 56 45 q 129 79 126 69 q 138 182 138 119 l 138 720 z "},"":{"ha":811,"x_min":35,"x_max":776,"o":"m 631 876 q 642 914 631 899 q 673 935 652 929 q 711 943 694 941 q 751 944 727 944 q 770 848 770 910 q 732 725 770 787 q 651 636 694 663 l 648 636 q 629 649 642 636 q 616 667 616 662 q 632 684 616 669 q 664 724 648 700 q 680 769 680 747 q 655 814 680 787 q 631 876 631 842 m 237 890 q 427 898 264 890 q 431 873 431 886 q 426 848 431 848 q 377 836 414 848 q 338 815 340 825 q 328 707 328 779 l 328 193 q 339 95 328 126 q 431 73 346 73 l 467 73 q 618 109 551 73 q 671 155 642 121 q 716 231 700 189 q 735 239 719 239 q 776 231 768 239 q 703 -3 709 43 q 461 0 625 -3 q 239 3 297 3 l 41 -5 q 35 18 35 0 q 41 45 35 45 q 92 54 57 45 q 130 75 126 64 q 138 194 138 106 l 138 712 q 127 814 138 795 q 90 836 121 825 q 43 848 58 848 q 38 871 38 848 q 41 898 38 895 q 237 890 228 890 z "},"":{"ha":453,"x_min":41,"x_max":532,"o":"m 392 876 q 403 914 392 899 q 435 935 414 929 q 472 943 456 941 q 513 944 488 944 q 532 848 532 910 q 494 725 532 787 q 412 636 456 663 l 410 636 q 390 649 403 636 q 377 667 377 662 q 393 684 377 669 q 425 724 410 700 q 441 769 441 747 q 416 814 441 787 q 392 876 392 842 m 138 720 q 132 818 138 784 q 61 840 125 840 l 49 840 q 41 867 41 840 q 49 890 41 890 q 134 901 91 894 q 206 914 176 907 q 260 928 236 921 q 297 939 283 935 l 311 943 l 313 943 q 324 935 319 943 q 331 920 330 926 q 316 783 316 859 l 315 202 q 324 79 315 115 q 362 57 327 69 q 410 45 397 45 q 414 22 414 45 q 412 -5 415 0 q 328 1 397 -4 q 227 5 258 5 q 125 1 194 5 q 41 -5 56 -4 q 35 22 35 0 q 41 45 35 45 q 91 57 56 45 q 129 79 126 69 q 138 182 138 119 l 138 720 z "},"":{"ha":811,"x_min":35,"x_max":776,"o":"m 568 398 q 553 413 568 398 q 538 469 538 427 q 568 541 538 511 q 639 570 597 570 q 710 541 681 570 q 739 469 739 511 q 710 398 739 427 q 639 369 681 369 q 568 398 597 369 m 237 890 q 427 898 264 890 q 431 873 431 886 q 426 848 431 848 q 377 836 414 848 q 338 815 340 825 q 328 707 328 779 l 328 193 q 339 95 328 126 q 431 73 346 73 l 467 73 q 618 109 551 73 q 671 155 642 121 q 716 231 700 189 q 735 239 719 239 q 776 231 768 239 q 703 -3 709 43 q 461 0 625 -3 q 239 3 297 3 l 41 -5 q 35 18 35 0 q 41 45 35 45 q 92 54 57 45 q 130 75 126 64 q 138 194 138 106 l 138 712 q 127 814 138 795 q 90 836 121 825 q 43 848 58 848 q 38 871 38 848 q 41 898 38 895 q 237 890 228 890 z "},"":{"ha":693,"x_min":41,"x_max":659,"o":"m 488 317 q 473 331 488 317 q 458 388 458 346 q 488 459 458 430 q 559 488 517 488 q 630 459 601 488 q 659 388 659 430 q 630 317 659 346 q 559 288 601 288 q 488 317 517 288 m 138 720 q 132 818 138 784 q 61 840 125 840 l 49 840 q 41 867 41 840 q 49 890 41 890 q 134 901 91 894 q 206 914 176 907 q 260 928 236 921 q 297 939 283 935 l 311 943 l 313 943 q 324 935 319 943 q 331 920 330 926 q 316 783 316 859 l 315 202 q 324 79 315 115 q 362 57 327 69 q 410 45 397 45 q 414 22 414 45 q 412 -5 415 0 q 328 1 397 -4 q 227 5 258 5 q 125 1 194 5 q 41 -5 56 -4 q 35 22 35 0 q 41 45 35 45 q 91 57 56 45 q 129 79 126 69 q 138 182 138 119 l 138 720 z "},"":{"ha":798,"x_min":22,"x_max":776,"o":"m 237 890 q 427 898 264 890 q 431 873 431 886 q 426 848 431 848 q 377 836 414 848 q 338 815 340 825 q 328 707 328 779 l 328 500 l 499 618 q 528 572 536 581 l 328 434 l 328 193 q 339 95 328 126 q 431 73 346 73 l 467 73 q 618 109 551 73 q 671 155 642 121 q 716 231 700 189 q 735 239 719 239 q 776 231 768 239 q 703 -3 709 43 q 461 0 625 -3 q 239 3 297 3 l 41 -5 q 35 18 35 0 q 41 45 35 45 q 92 54 57 45 q 130 75 126 64 q 138 194 138 106 l 138 302 l 49 241 q 22 288 12 279 l 138 369 l 138 712 q 127 814 138 795 q 90 836 121 825 q 43 848 58 848 q 38 871 38 848 q 41 898 38 895 q 237 890 228 890 z "},"":{"ha":453,"x_min":33,"x_max":420,"o":"m 56 312 q 36 340 46 323 q 33 361 26 357 l 138 431 l 138 720 q 132 818 138 784 q 61 840 125 840 l 49 840 q 41 867 41 840 q 49 890 41 890 q 134 901 91 894 q 206 914 176 907 q 260 928 236 921 q 297 939 283 935 l 311 943 l 313 943 q 324 935 319 943 q 331 920 330 926 q 316 783 316 859 l 316 547 l 396 600 q 415 572 404 590 q 420 551 426 553 l 315 483 l 315 202 q 324 79 315 115 q 362 57 327 69 q 410 45 397 45 q 414 22 414 45 q 412 -5 415 0 q 328 1 397 -4 q 227 5 258 5 q 125 1 194 5 q 41 -5 56 -4 q 35 22 35 0 q 41 45 35 45 q 91 57 56 45 q 129 79 126 69 q 138 182 138 119 l 138 366 l 56 312 z "},"":{"ha":1054,"x_min":38,"x_max":1019,"o":"m 464 1015 q 523 1081 464 1023 q 627 1173 582 1139 q 651 1179 637 1179 q 701 1166 675 1179 q 727 1127 727 1153 q 617 1041 727 1095 q 483 987 507 987 q 470 998 476 987 q 464 1015 464 1008 m 793 711 q 776 808 793 788 q 725 836 764 823 q 670 848 686 848 q 663 870 665 848 q 666 898 662 892 q 845 887 791 887 q 938 892 879 887 q 1013 898 997 897 q 1019 873 1019 887 q 1012 848 1019 848 q 899 803 937 848 q 880 704 880 780 l 880 189 q 886 -1 880 140 q 852 -7 880 -7 q 810 24 836 -7 l 258 711 l 258 191 q 269 95 258 117 q 326 59 281 72 q 391 46 370 46 q 395 23 395 46 q 393 -5 396 0 q 313 0 381 -5 q 210 5 245 5 q 121 1 175 5 q 42 -5 66 -4 q 38 19 38 -1 q 42 45 38 45 q 73 47 56 45 q 118 63 91 50 q 157 96 145 76 q 171 195 171 118 l 171 728 q 151 825 171 799 q 103 841 144 834 q 43 848 62 848 q 37 870 38 848 q 41 898 35 892 q 127 892 62 897 q 227 887 191 887 q 359 898 273 887 q 450 764 382 852 q 623 548 517 677 q 791 336 728 419 q 793 392 793 346 l 793 711 z "}}}
